<svg width="4478" height="1928" xmlns="http://www.w3.org/2000/svg" xmlns:xlink="http://www.w3.org/1999/xlink" xml:space="preserve" overflow="hidden"><defs><clipPath id="clip0"><rect x="-78" y="373" width="4478" height="1928"/></clipPath></defs><g clip-path="url(#clip0)" transform="translate(78 -373)"><path d="M2427 930 2406.93 957.537 2395 971 2397.78 962.867C2402.13 954.38 2407.78 946.413 2414.74 939.277L2427 930Z" fill="#47D45A" fill-rule="evenodd"/><path d="M2412.33 647 2417.97 647.285 2427 648.667 2425.91 660.027C2422.42 678.101 2413.7 695.36 2399.74 709.357 2385.78 723.355 2368.57 732.103 2350.54 735.603L2336 737 2337.39 722.422C2340.88 704.348 2349.61 687.089 2363.57 673.092 2370.55 666.094 2378.34 660.407 2386.64 656.033L2412.33 647Z" fill="#FFFFFF" fill-rule="evenodd"/><path d="M2337 649 2335.9 660.464C2332.41 678.435 2323.68 695.596 2309.73 709.514 2295.77 723.432 2278.56 732.131 2260.54 735.611L2246 737 2247.39 722.505C2250.88 704.533 2259.61 687.372 2273.56 673.454 2280.54 666.495 2288.34 660.841 2296.64 656.491L2296.74 656.454 2309.48 653.188 2337 649Z" fill="#FFFFFF" fill-rule="evenodd"/><path d="M2473.71 658 2481.01 659.891 2486.13 693.693 2487 711.133 2466.44 726.416C2458.19 730.791 2449.42 733.853 2440.46 735.603L2426 737 2427.39 722.421C2430.86 704.346 2439.53 687.086 2453.42 673.087L2473.71 658Z" fill="#FFFFFF" fill-rule="evenodd"/><path d="M2241 675 2236.83 686.777C2232.46 695.009 2226.79 702.738 2219.8 709.66 2205.83 723.504 2188.6 732.157 2170.55 735.618L2156 737 2157.14 725.201 2181.83 706.913C2191.33 700.55 2201.17 694.628 2211.3 689.177L2241 675Z" fill="#FFFFFF" fill-rule="evenodd"/><path d="M2234 733 2232.61 747.49C2229.13 765.455 2220.44 782.61 2206.52 796.523 2192.61 810.437 2175.46 819.133 2157.49 822.611L2143 824 2144.39 809.51C2147.87 791.545 2156.56 774.389 2170.48 760.476 2184.39 746.563 2201.54 737.867 2219.51 734.388L2234 733Z" fill="#FFFFFF" fill-rule="evenodd"/><path d="M2324 733 2322.61 747.49C2319.13 765.455 2310.44 782.61 2296.52 796.523 2282.61 810.437 2265.46 819.133 2247.49 822.611L2233 824 2234.39 809.51C2237.87 791.545 2246.56 774.389 2260.48 760.476 2274.39 746.563 2291.54 737.867 2309.51 734.388L2324 733Z" fill="#FFFFFF" fill-rule="evenodd"/><path d="M2414 733 2412.61 747.49C2409.13 765.455 2400.44 782.61 2386.52 796.523 2372.61 810.437 2355.46 819.133 2337.49 822.611L2323 824 2324.39 809.51C2327.87 791.545 2336.56 774.389 2350.48 760.476 2364.39 746.563 2381.54 737.867 2399.51 734.388L2414 733Z" fill="#FFFFFF" fill-rule="evenodd"/><path d="M2488 735 2486.4 766.585 2483.15 787.797 2476.7 796.526C2462.75 810.438 2445.54 819.133 2427.53 822.611L2413 824 2414.39 809.512C2417.88 791.548 2426.6 774.395 2440.55 760.483 2447.53 753.527 2455.32 747.875 2463.61 743.528L2488 735Z" fill="#FFFFFF" fill-rule="evenodd"/><path d="M2144 737 2142.94 748.089C2139.46 766.132 2130.76 783.361 2116.85 797.334 2109.89 804.321 2102.12 809.998 2093.84 814.364L2075 821 2085.54 803.575C2098.34 784.562 2112.9 766.85 2129.01 750.682L2144 737Z" fill="#FFFFFF" fill-rule="evenodd"/><path d="M2131 823 2129.61 837.49C2126.13 855.455 2117.44 872.61 2103.52 886.524 2089.61 900.437 2072.46 909.133 2054.49 912.611L2040 914 2041.39 899.51C2044.87 881.545 2053.56 864.389 2067.48 850.476 2081.39 836.563 2098.54 827.867 2116.51 824.389L2131 823Z" fill="#FFFFFF" fill-rule="evenodd"/><path d="M2221 823 2219.61 837.49C2216.13 855.455 2207.44 872.61 2193.52 886.524 2179.61 900.437 2162.46 909.133 2144.49 912.611L2130 914 2131.39 899.51C2134.87 881.545 2143.56 864.389 2157.48 850.476 2171.39 836.563 2188.54 827.867 2206.51 824.389L2221 823Z" fill="#FFFFFF" fill-rule="evenodd"/><path d="M2311 823 2309.61 837.49C2306.13 855.455 2297.44 872.61 2283.52 886.524 2269.61 900.437 2252.46 909.133 2234.49 912.611L2220 914 2221.39 899.51C2224.87 881.545 2233.56 864.389 2247.48 850.476 2261.39 836.563 2278.54 827.867 2296.51 824.389L2311 823Z" fill="#FFFFFF" fill-rule="evenodd"/><path d="M2401 823 2399.61 837.49C2396.13 855.455 2387.44 872.61 2373.52 886.524 2359.61 900.437 2342.46 909.133 2324.49 912.611L2310 914 2311.39 899.51C2314.87 881.545 2323.56 864.389 2337.48 850.476 2351.39 836.563 2368.54 827.867 2386.51 824.389L2401 823Z" fill="#FFFFFF" fill-rule="evenodd"/><path d="M2475 825 2471.96 836.831C2468.49 847.963 2464.49 858.86 2459.99 869.493L2445.31 899.955 2440.51 903.491C2432.24 907.835 2423.46 910.875 2414.48 912.613L2400 914 2401.39 899.525C2404.86 881.578 2413.56 864.441 2427.47 850.542 2434.42 843.592 2442.18 837.946 2450.45 833.602L2475 825Z" fill="#FFFFFF" fill-rule="evenodd"/><path d="M2118 912 2116.61 926.49C2113.13 944.455 2104.44 961.61 2090.52 975.524 2076.61 989.437 2059.46 998.133 2041.49 1001.61L2027 1003 2028.39 988.51C2031.87 970.545 2040.56 953.389 2054.48 939.476 2068.39 925.563 2085.54 916.867 2103.51 913.389L2118 912Z" fill="#FFFFFF" fill-rule="evenodd"/><path d="M2208 912 2206.61 926.49C2203.13 944.455 2194.44 961.61 2180.52 975.524 2166.61 989.437 2149.46 998.133 2131.49 1001.61L2117 1003 2118.39 988.51C2121.87 970.545 2130.56 953.389 2144.48 939.476 2158.39 925.563 2175.54 916.867 2193.51 913.389L2208 912Z" fill="#FFFFFF" fill-rule="evenodd"/><path d="M2298 912 2296.61 926.49C2293.13 944.455 2284.44 961.61 2270.52 975.524 2256.61 989.437 2239.46 998.133 2221.49 1001.61L2207 1003 2208.39 988.51C2211.87 970.545 2220.56 953.389 2234.48 939.476 2248.39 925.563 2265.54 916.867 2283.51 913.389L2298 912Z" fill="#FFFFFF" fill-rule="evenodd"/><path d="M2388 912 2386.61 926.49C2383.13 944.455 2374.44 961.61 2360.52 975.524 2346.61 989.437 2329.46 998.133 2311.49 1001.61L2297 1003 2298.39 988.51C2301.87 970.545 2310.56 953.389 2324.48 939.476 2338.39 925.563 2355.54 916.867 2373.51 913.389L2388 912Z" fill="#FFFFFF" fill-rule="evenodd"/><path d="M2105 1002 2103.62 1016.56C2100.16 1034.61 2091.52 1051.84 2077.68 1065.82L2058.65 1080 2031.69 1072.99 2028 1048.58 2041.85 1029.6C2055.68 1015.63 2072.73 1006.89 2090.59 1003.4L2105 1002Z" fill="#FFFFFF" fill-rule="evenodd"/><path d="M2195 1002 2193.62 1016.48C2190.15 1034.44 2181.48 1051.59 2167.62 1065.5 2160.68 1072.45 2152.94 1078.1 2144.69 1082.45L2131.83 1086.97 2131.28 1087 2105 1085.67 2105.69 1078.48C2109.15 1060.52 2117.82 1043.37 2131.69 1029.46 2145.55 1015.56 2162.65 1006.86 2180.56 1003.39L2195 1002Z" fill="#FFFFFF" fill-rule="evenodd"/><path d="M2285 1002 2283.61 1016.49C2281.87 1025.47 2278.82 1034.24 2274.46 1042.52L2259.42 1062.88 2237.13 1071.02C2225.97 1074.48 2214.57 1077.42 2202.97 1079.79L2195 1081 2195.24 1078.49C2198.72 1060.53 2207.44 1043.38 2221.37 1029.47 2235.31 1015.56 2252.49 1006.87 2270.49 1003.39L2285 1002Z" fill="#FFFFFF" fill-rule="evenodd"/><path d="M2361 1003 2358.33 1005.45C2340.56 1020.25 2321.36 1033.35 2300.97 1044.53L2300 1045 2311.23 1029.63C2325.3 1015.44 2342.64 1006.57 2360.8 1003.02L2361 1003Z" fill="#FFFFFF" fill-rule="evenodd"/><path d="M2131 373C2303.52 373 2447.46 495.378 2480.75 658.063L2481.01 659.807 2473.68 657.921 2453.28 672.965C2439.32 686.923 2430.6 704.134 2427.11 722.158L2425.71 736.694 2440.25 735.301C2449.26 733.556 2458.07 730.503 2466.37 726.141L2487.04 710.902 2488 730.014 2487.76 734.825 2463.36 743.382C2455.06 747.744 2447.27 753.414 2440.29 760.393 2426.33 774.352 2417.61 791.562 2414.12 809.586L2412.72 824.122 2427.26 822.729C2445.28 819.239 2462.49 810.516 2476.45 796.557L2482.91 787.798 2480.75 801.964 2475.01 824.297 2450.37 832.936C2442.07 837.298 2434.28 842.969 2427.3 849.948 2413.34 863.906 2404.62 881.117 2401.13 899.14L2399.74 913.677 2414.27 912.284C2423.28 910.539 2432.09 907.485 2440.39 903.123L2445.21 899.572 2444.91 900.188C2439.42 910.305 2433.45 920.127 2427.03 929.623L2426.62 930.175 2414.31 939.249C2407.33 946.228 2401.66 954.02 2397.3 962.321L2394.51 970.275 2383.44 982.46 2360.74 1003.09 2360.54 1003.11C2342.52 1006.6 2325.31 1015.32 2311.35 1029.28L2300.2 1044.4 2269.96 1058.97 2259.49 1062.8 2274.55 1042.37C2278.92 1034.07 2281.97 1025.27 2283.71 1016.25L2285.11 1001.72 2270.57 1003.11C2252.55 1006.6 2235.34 1015.32 2221.38 1029.28 2207.42 1043.24 2198.7 1060.45 2195.21 1078.47L2194.97 1080.99 2167.5 1085.18 2131.55 1087 2144.5 1082.46C2152.8 1078.1 2160.59 1072.42 2167.57 1065.45 2181.53 1051.49 2190.25 1034.28 2193.74 1016.25L2195.13 1001.72 2180.6 1003.11C2162.58 1006.6 2145.37 1015.32 2131.41 1029.28 2117.45 1043.24 2108.73 1060.45 2105.24 1078.47L2104.54 1085.69 2094.5 1085.18C2082.5 1083.97 2070.67 1082.15 2059.05 1079.77L2058.4 1079.61 2077.6 1065.45C2091.56 1051.49 2100.28 1034.28 2103.77 1016.25L2105.16 1001.72 2090.63 1003.11C2072.6 1006.6 2055.39 1015.32 2041.44 1029.28L2027.46 1048.23 2031.18 1072.61 2024.84 1070.98C1879.52 1025.77 1774 890.217 1774 730.014 1774 532.841 1933.83 373 2131 373ZM2412.06 646.946 2386.38 655.954C2378.08 660.316 2370.28 665.986 2363.3 672.965 2349.35 686.924 2340.62 704.134 2337.13 722.158L2335.74 736.695 2350.28 735.301C2368.3 731.812 2385.51 723.088 2399.47 709.129 2413.42 695.171 2422.15 677.961 2425.64 659.937L2426.72 648.609 2417.7 647.231 2412.06 646.946ZM2414.04 732.828 2399.51 734.221C2381.48 737.711 2364.27 746.435 2350.32 760.393 2336.36 774.352 2327.63 791.562 2324.15 809.586L2322.75 824.122 2337.29 822.729C2355.31 819.239 2372.52 810.516 2386.48 796.557 2400.44 782.599 2409.16 765.389 2412.65 747.365L2414.04 732.828ZM2401.05 822.383 2386.52 823.776C2368.5 827.266 2351.29 835.99 2337.33 849.948 2323.37 863.906 2314.65 881.117 2311.16 899.14L2309.76 913.677 2324.3 912.284C2342.32 908.794 2359.53 900.07 2373.49 886.112 2387.45 872.153 2396.17 854.943 2399.66 836.92L2401.05 822.383ZM2388.07 911.684 2373.53 913.077C2355.51 916.567 2338.3 925.291 2324.34 939.249 2310.38 953.207 2301.66 970.418 2298.17 988.441L2296.78 1002.98 2311.31 1001.58C2329.33 998.095 2346.54 989.371 2360.5 975.413 2374.46 961.454 2383.18 944.244 2386.67 926.221L2388.07 911.684ZM2336.77 648.44 2309.25 652.641 2296.51 655.916 2296.4 655.953C2288.1 660.315 2280.31 665.986 2273.33 672.965 2259.37 686.923 2250.65 704.134 2247.16 722.158L2245.77 736.694 2260.3 735.301C2278.33 731.811 2295.54 723.087 2309.49 709.129 2323.45 695.171 2332.18 677.96 2335.67 659.937L2336.77 648.44ZM2324.07 732.828 2309.53 734.221C2291.51 737.711 2274.3 746.435 2260.34 760.393 2246.39 774.352 2237.66 791.562 2234.17 809.586L2232.78 824.122 2247.32 822.729C2265.34 819.239 2282.55 810.516 2296.51 796.557 2310.46 782.599 2319.19 765.389 2322.68 747.365L2324.07 732.828ZM2311.08 822.383 2296.55 823.776C2278.52 827.266 2261.31 835.99 2247.36 849.948 2233.4 863.906 2224.67 881.117 2221.19 899.14L2219.79 913.677 2234.33 912.284C2252.35 908.794 2269.56 900.07 2283.52 886.112 2297.48 872.153 2306.2 854.943 2309.69 836.92L2311.08 822.383ZM2298.09 911.684 2283.56 913.077C2265.54 916.567 2248.33 925.291 2234.37 939.249 2220.41 953.207 2211.69 970.418 2208.2 988.441L2206.8 1002.98 2221.34 1001.58C2239.36 998.095 2256.57 989.371 2270.53 975.413 2284.49 961.454 2293.21 944.244 2296.7 926.221L2298.09 911.684ZM2240.7 674.184 2211.03 688.477C2200.91 693.973 2191.09 699.944 2181.59 706.36L2156.94 724.799 2155.8 736.694 2170.33 735.301C2188.36 731.811 2205.56 723.087 2219.52 709.129 2226.5 702.15 2232.17 694.358 2236.53 686.058L2240.7 674.184ZM2234.1 732.828 2219.56 734.221C2201.54 737.711 2184.33 746.435 2170.37 760.393 2156.41 774.352 2147.69 791.562 2144.2 809.586L2142.81 824.122 2157.34 822.729C2175.37 819.239 2192.58 810.516 2206.53 796.557 2220.49 782.599 2229.22 765.389 2232.71 747.365L2234.1 732.828ZM2221.11 822.383 2206.57 823.776C2188.55 827.266 2171.34 835.99 2157.38 849.948 2143.43 863.906 2134.7 881.117 2131.21 899.14L2129.82 913.677 2144.36 912.284C2162.38 908.794 2179.59 900.07 2193.55 886.112 2207.5 872.153 2216.23 854.943 2219.72 836.92L2221.11 822.383ZM2208.12 911.684 2193.59 913.077C2175.56 916.567 2158.35 925.291 2144.4 939.249 2130.44 953.207 2121.71 970.418 2118.22 988.441L2116.83 1002.98 2131.37 1001.58C2149.39 998.095 2166.6 989.371 2180.56 975.413 2194.52 961.454 2203.24 944.244 2206.73 926.221L2208.12 911.684ZM2143.79 736.288 2128.76 749.955C2112.61 766.106 2098 783.799 2085.16 802.792L2074.59 820.198 2093.49 813.569C2101.79 809.207 2109.58 803.537 2116.56 796.557 2130.52 782.599 2139.24 765.389 2142.73 747.365L2143.79 736.288ZM2131.14 822.383 2116.6 823.776C2098.58 827.266 2081.37 835.99 2067.41 849.948 2053.45 863.906 2044.73 881.117 2041.24 899.14L2039.85 913.677 2054.38 912.284C2072.41 908.794 2089.62 900.07 2103.57 886.112 2117.53 872.153 2126.26 854.943 2129.74 836.92L2131.14 822.383ZM2118.15 911.684 2103.61 913.077C2085.59 916.567 2068.38 925.291 2054.42 939.249 2040.47 953.207 2031.74 970.418 2028.25 988.441L2026.86 1002.98 2041.4 1001.58C2059.42 998.095 2076.63 989.371 2090.59 975.413 2104.54 961.454 2113.27 944.244 2116.76 926.221L2118.15 911.684Z" fill="#47D45A" fill-rule="evenodd"/><path d="M2481 660 2487.36 661.628 2512 670.606 2506.51 686.202C2502.13 694.487 2496.45 702.264 2489.45 709.23L2487.04 711 2486.16 693.642 2481 660Z" fill="#47D45A" fill-rule="evenodd"/><path d="M2537.08 682 2551.39 688.929C2561.42 694.408 2571.16 700.361 2580.58 706.757L2581 707.073 2579.21 709.518C2565.36 723.434 2548.29 732.132 2530.42 735.611L2516 737 2517.38 722.507C2519.11 713.523 2522.14 704.741 2526.47 696.466L2537.08 682Z" fill="#47D45A" fill-rule="evenodd"/><path d="M2607.04 726 2608.6 727.18 2618 735.835 2606 737 2607.04 726Z" fill="#47D45A" fill-rule="evenodd"/><path d="M2504 733 2502.61 747.545C2500.88 756.561 2497.84 765.375 2493.5 773.68L2483 788 2486.23 766.706 2487.82 734.998 2489.54 734.394 2504 733Z" fill="#47D45A" fill-rule="evenodd"/><path d="M2594 733 2592.61 747.49C2589.13 765.455 2580.44 782.61 2566.52 796.523 2552.61 810.437 2535.46 819.133 2517.49 822.611L2503 824 2504.39 809.51C2507.87 791.545 2516.56 774.389 2530.48 760.476 2544.39 746.563 2561.54 737.867 2579.51 734.388L2594 733Z" fill="#47D45A" fill-rule="evenodd"/><path d="M2634.41 751 2657.22 775.736 2665 785.982 2656.95 796.746C2642.94 810.547 2625.67 819.172 2607.59 822.622L2593 824 2594.4 809.627C2597.9 791.807 2606.65 774.791 2620.66 760.99L2634.41 751Z" fill="#47D45A" fill-rule="evenodd"/><path d="M2684.01 814 2690 823.363 2683 824 2684.01 814Z" fill="#47D45A" fill-rule="evenodd"/><path d="M2491 823 2489.6 837.501C2486.1 855.48 2477.34 872.649 2463.33 886.573L2445 900 2459.79 869.482C2464.33 858.831 2468.36 847.914 2471.85 836.762L2474.91 824.909 2476.41 824.39 2491 823Z" fill="#47D45A" fill-rule="evenodd"/><path d="M2581 823 2579.61 837.49C2576.13 855.455 2567.44 872.61 2553.52 886.524 2539.61 900.437 2522.46 909.133 2504.49 912.611L2490 914 2491.39 899.51C2494.87 881.545 2503.56 864.389 2517.48 850.476 2531.39 836.563 2548.54 827.867 2566.51 824.389L2581 823Z" fill="#47D45A" fill-rule="evenodd"/><path d="M2671 823 2669.61 837.49C2666.13 855.455 2657.44 872.61 2643.52 886.524 2629.61 900.437 2612.46 909.133 2594.49 912.611L2580 914 2581.39 899.51C2584.87 881.545 2593.56 864.389 2607.48 850.476 2621.39 836.563 2638.54 827.867 2656.51 824.389L2671 823Z" fill="#47D45A" fill-rule="evenodd"/><path d="M2702.33 847 2710.52 863.927 2722 895.173 2710.69 903.482C2702.38 907.829 2693.57 910.872 2684.55 912.611L2670 914 2671.39 899.512C2674.89 881.549 2683.62 864.396 2697.58 850.485L2702.33 847Z" fill="#47D45A" fill-rule="evenodd"/><path d="M2478 912 2476.61 926.49C2473.13 944.455 2464.44 961.61 2450.52 975.524 2436.61 989.437 2419.46 998.133 2401.49 1001.61L2387 1003 2388.39 988.51 2394.74 970.402 2406.67 957.277 2426.74 930.432 2437.47 922.519C2445.75 918.171 2454.53 915.128 2463.51 913.389L2478 912Z" fill="#47D45A" fill-rule="evenodd"/><path d="M2568 912 2566.61 926.49C2563.13 944.455 2554.44 961.61 2540.52 975.524 2526.61 989.437 2509.46 998.133 2491.49 1001.61L2477 1003 2478.39 988.51C2481.87 970.545 2490.56 953.389 2504.48 939.476 2518.39 925.563 2535.54 916.867 2553.51 913.389L2568 912Z" fill="#47D45A" fill-rule="evenodd"/><path d="M2658 912 2656.61 926.49C2653.13 944.455 2644.44 961.61 2630.52 975.524 2616.61 989.437 2599.46 998.133 2581.49 1001.61L2567 1003 2568.39 988.51C2571.87 970.545 2580.56 953.389 2594.48 939.476 2608.39 925.563 2625.54 916.867 2643.51 913.389L2658 912Z" fill="#47D45A" fill-rule="evenodd"/><path d="M2727.25 916 2731.13 931.024 2735 956.227 2720.6 975.645C2706.67 989.497 2689.5 998.154 2671.51 1001.62L2657 1003 2658.39 988.574C2661.87 970.688 2670.58 953.608 2684.51 939.756 2691.48 932.83 2699.25 927.202 2707.54 922.874L2727.25 916Z" fill="#47D45A" fill-rule="evenodd"/><path d="M2375 1002 2373.61 1016.49C2370.13 1034.46 2361.44 1051.61 2347.52 1065.52 2333.61 1079.44 2316.46 1088.13 2298.49 1091.61L2284 1093 2285.39 1078.51C2287.13 1069.53 2290.17 1060.75 2294.52 1052.47L2300.36 1044.55 2301.32 1044.09C2321.49 1033.13 2340.49 1020.28 2358.06 1005.77L2360.71 1003.37 2375 1002Z" fill="#47D45A" fill-rule="evenodd"/><path d="M2465 1002 2463.61 1016.49C2460.13 1034.46 2451.44 1051.61 2437.52 1065.52 2423.61 1079.44 2406.46 1088.13 2388.49 1091.61L2374 1093 2375.39 1078.51C2378.87 1060.54 2387.56 1043.39 2401.48 1029.48 2415.39 1015.56 2432.54 1006.87 2450.51 1003.39L2465 1002Z" fill="#47D45A" fill-rule="evenodd"/><path d="M2555 1002 2553.61 1016.49C2550.13 1034.46 2541.44 1051.61 2527.52 1065.52 2513.61 1079.44 2496.46 1088.13 2478.49 1091.61L2464 1093 2465.39 1078.51C2468.87 1060.54 2477.56 1043.39 2491.48 1029.48 2505.39 1015.56 2522.54 1006.87 2540.51 1003.39L2555 1002Z" fill="#47D45A" fill-rule="evenodd"/><path d="M2645 1002 2643.61 1016.49C2640.13 1034.46 2631.44 1051.61 2617.52 1065.52 2603.61 1079.44 2586.46 1088.13 2568.49 1091.61L2554 1093 2555.39 1078.51C2558.87 1060.54 2567.56 1043.39 2581.48 1029.48 2595.39 1015.56 2612.54 1006.87 2630.51 1003.39L2645 1002Z" fill="#47D45A" fill-rule="evenodd"/><path d="M2735 1002 2733.61 1016.49C2730.13 1034.46 2721.44 1051.61 2707.52 1065.52 2693.61 1079.44 2676.46 1088.13 2658.49 1091.61L2644 1093 2645.39 1078.51C2648.87 1060.54 2657.56 1043.39 2671.48 1029.48 2685.39 1015.56 2702.54 1006.87 2720.51 1003.39L2735 1002Z" fill="#47D45A" fill-rule="evenodd"/><path d="M2260 1063 2258.04 1065.62C2244.02 1079.49 2226.72 1088.15 2208.61 1091.62L2194 1093 2195.16 1081.06 2203.18 1079.85C2214.86 1077.49 2226.33 1074.57 2237.56 1071.12L2260 1063Z" fill="#47D45A" fill-rule="evenodd"/><path d="M2031 1073 2059 1080.16 2055.02 1083.08 2035.2 1090 2031.27 1074.79 2031 1073Z" fill="#47D45A" fill-rule="evenodd"/><path d="M2104.71 1086 2131.45 1087.28 2132 1087.25 2118.69 1091.67 2104 1093 2104.71 1086Z" fill="#47D45A" fill-rule="evenodd"/><path d="M2182 1092 2180.61 1106.49C2177.13 1124.46 2168.44 1141.61 2154.52 1155.52 2140.61 1169.44 2123.46 1178.13 2105.49 1181.61L2091 1183 2092.39 1168.51C2095.87 1150.54 2104.56 1133.39 2118.48 1119.48 2132.39 1105.56 2149.54 1096.87 2167.51 1093.39L2182 1092Z" fill="#47D45A" fill-rule="evenodd"/><path d="M2272 1092 2270.61 1106.49C2267.13 1124.46 2258.44 1141.61 2244.52 1155.52 2230.61 1169.44 2213.46 1178.13 2195.49 1181.61L2181 1183 2182.39 1168.51C2185.87 1150.54 2194.56 1133.39 2208.48 1119.48 2222.39 1105.56 2239.54 1096.87 2257.51 1093.39L2272 1092Z" fill="#47D45A" fill-rule="evenodd"/><path d="M2362 1092 2360.61 1106.49C2357.13 1124.46 2348.44 1141.61 2334.52 1155.52 2320.61 1169.44 2303.46 1178.13 2285.49 1181.61L2271 1183 2272.39 1168.51C2275.87 1150.54 2284.56 1133.39 2298.48 1119.48 2312.39 1105.56 2329.54 1096.87 2347.51 1093.39L2362 1092Z" fill="#47D45A" fill-rule="evenodd"/><path d="M2452 1092 2450.61 1106.49C2447.13 1124.46 2438.44 1141.61 2424.52 1155.52 2410.61 1169.44 2393.46 1178.13 2375.49 1181.61L2361 1183 2362.39 1168.51C2365.87 1150.54 2374.56 1133.39 2388.48 1119.48 2402.39 1105.56 2419.54 1096.87 2437.51 1093.39L2452 1092Z" fill="#47D45A" fill-rule="evenodd"/><path d="M2542 1092 2540.61 1106.49C2537.13 1124.46 2528.44 1141.61 2514.52 1155.52 2500.61 1169.44 2483.46 1178.13 2465.49 1181.61L2451 1183 2452.39 1168.51C2455.87 1150.54 2464.56 1133.39 2478.48 1119.48 2492.39 1105.56 2509.54 1096.87 2527.51 1093.39L2542 1092Z" fill="#47D45A" fill-rule="evenodd"/><path d="M2632 1092 2630.61 1106.49C2627.13 1124.46 2618.44 1141.61 2604.52 1155.52 2590.61 1169.44 2573.46 1178.13 2555.49 1181.61L2541 1183 2542.39 1168.51C2545.87 1150.54 2554.56 1133.39 2568.48 1119.48 2582.39 1105.56 2599.54 1096.87 2617.51 1093.39L2632 1092Z" fill="#47D45A" fill-rule="evenodd"/><path d="M2722 1092 2720.61 1106.49C2717.13 1124.46 2708.44 1141.61 2694.52 1155.52 2680.61 1169.44 2663.46 1178.13 2645.49 1181.61L2631 1183 2632.39 1168.51C2635.87 1150.54 2644.56 1133.39 2658.48 1119.48 2672.39 1105.56 2689.54 1096.87 2707.51 1093.39L2722 1092Z" fill="#47D45A" fill-rule="evenodd"/><path d="M2092 1092 2090.62 1106.35C2087.16 1124.13 2078.52 1141.12 2064.69 1154.89L2060.46 1158 2052.45 1141.44 2041 1110.29 2051.72 1102.41C2059.94 1098.11 2068.67 1095.1 2077.6 1093.37L2092 1092Z" fill="#47D45A" fill-rule="evenodd"/><path d="M2079 1181 2078.13 1191 2073 1181.64 2079 1181Z" fill="#47D45A" fill-rule="evenodd"/><path d="M2259 1181 2257.61 1195.49C2254.13 1213.46 2245.44 1230.61 2231.52 1244.52 2217.61 1258.44 2200.46 1267.13 2182.49 1270.61L2168 1272 2169.39 1257.51C2172.87 1239.54 2181.56 1222.39 2195.48 1208.48 2209.39 1194.56 2226.54 1185.87 2244.51 1182.39L2259 1181Z" fill="#47D45A" fill-rule="evenodd"/><path d="M2349 1181 2347.61 1195.49C2344.13 1213.46 2335.44 1230.61 2321.52 1244.52 2307.61 1258.44 2290.46 1267.13 2272.49 1270.61L2258 1272 2259.39 1257.51C2262.87 1239.54 2271.56 1222.39 2285.48 1208.48 2299.39 1194.56 2316.54 1185.87 2334.51 1182.39L2349 1181Z" fill="#47D45A" fill-rule="evenodd"/><path d="M2439 1181 2437.61 1195.49C2434.13 1213.46 2425.44 1230.61 2411.52 1244.52 2397.61 1258.44 2380.46 1267.13 2362.49 1270.61L2348 1272 2349.39 1257.51C2352.87 1239.54 2361.56 1222.39 2375.48 1208.48 2389.39 1194.56 2406.54 1185.87 2424.51 1182.39L2439 1181Z" fill="#47D45A" fill-rule="evenodd"/><path d="M2529 1181 2527.61 1195.49C2524.13 1213.46 2515.44 1230.61 2501.52 1244.52 2487.61 1258.44 2470.46 1267.13 2452.49 1270.61L2438 1272 2439.39 1257.51C2442.87 1239.54 2451.56 1222.39 2465.48 1208.48 2479.39 1194.56 2496.54 1185.87 2514.51 1182.39L2529 1181Z" fill="#47D45A" fill-rule="evenodd"/><path d="M2619 1181 2617.61 1195.49C2614.13 1213.46 2605.44 1230.61 2591.52 1244.52 2577.61 1258.44 2560.46 1267.13 2542.49 1270.61L2528 1272 2529.39 1257.51C2532.87 1239.54 2541.56 1222.39 2555.48 1208.48 2569.39 1194.56 2586.54 1185.87 2604.51 1182.39L2619 1181Z" fill="#47D45A" fill-rule="evenodd"/><path d="M2169 1181 2167.62 1195.41C2164.15 1213.28 2155.49 1230.35 2141.63 1244.19L2128.31 1254 2106.01 1229.51 2098 1218.8 2105.73 1208.33C2119.59 1194.49 2136.68 1185.84 2154.57 1182.38L2169 1181Z" fill="#47D45A" fill-rule="evenodd"/><path d="M2688 1185 2677.2 1202.61C2664.38 1221.41 2649.79 1238.92 2633.65 1254.91L2618 1269 2619.13 1257.36C2622.61 1239.53 2631.33 1222.49 2645.27 1208.68 2652.24 1201.77 2660.03 1196.16 2668.32 1191.84L2688 1185Z" fill="#47D45A" fill-rule="evenodd"/><path d="M2156 1268 2155.04 1279 2154.06 1278.2 2145 1269.16 2156 1268Z" fill="#47D45A" fill-rule="evenodd"/><path d="M2246 1268 2244.61 1282.52C2242.88 1291.53 2239.85 1300.33 2235.51 1308.62L2224.96 1323 2211.09 1316.28C2201.04 1310.79 2191.27 1304.83 2181.83 1298.42L2181 1297.79 2182.65 1295.54C2196.53 1281.6 2213.63 1272.88 2231.55 1269.39L2246 1268Z" fill="#47D45A" fill-rule="evenodd"/><path d="M2336 1268 2334.61 1282.58C2331.13 1300.67 2322.42 1317.93 2308.5 1331.93L2288.17 1347 2275.05 1343.61 2250 1334.39 2255.44 1318.8C2259.79 1310.47 2265.45 1302.66 2272.41 1295.65 2286.34 1281.65 2303.51 1272.9 2321.5 1269.4L2336 1268Z" fill="#47D45A" fill-rule="evenodd"/><path d="M2426 1268 2424.61 1282.57C2421.12 1300.63 2412.39 1317.87 2398.43 1331.86 2391.45 1338.85 2383.66 1344.53 2375.36 1348.9L2349.47 1358 2344.59 1357.75 2335 1356.29 2336.09 1344.91C2339.58 1326.85 2348.3 1309.61 2362.26 1295.62 2376.22 1281.63 2393.44 1272.89 2411.46 1269.4L2426 1268Z" fill="#47D45A" fill-rule="evenodd"/><path d="M2516 1268 2514.61 1282.63C2511.12 1300.76 2502.4 1318.08 2488.44 1332.12 2481.46 1339.15 2473.67 1344.85 2465.38 1349.24L2462.57 1350.23 2453.1 1352.68 2425 1357 2426.12 1345.23C2429.61 1327.1 2438.33 1309.78 2452.29 1295.74 2466.24 1281.69 2483.45 1272.91 2501.47 1269.4L2516 1268Z" fill="#47D45A" fill-rule="evenodd"/><path d="M2606 1268 2604.81 1280.47 2580.78 1298.46C2571.29 1304.88 2561.48 1310.85 2551.37 1316.35L2521 1331 2525.32 1318.66C2529.68 1310.36 2535.35 1302.56 2542.32 1295.58 2556.27 1281.61 2573.46 1272.89 2591.47 1269.39L2606 1268Z" fill="#47D45A" fill-rule="evenodd"/><text fill="#404040" font-family="Aharoni,Aharoni_MSFontService,sans-serif" font-weight="700" font-size="367" transform="matrix(1 0 0 1 142.456 1967)">Canopy </text><text fill="#404040" font-family="Aharoni,Aharoni_MSFontService,sans-serif" font-weight="700" font-size="367" transform="matrix(1 0 0 1 1580.48 1967)">Shade</text><text fill="#404040" font-family="Aharoni,Aharoni_MSFontService,sans-serif" font-weight="700" font-size="367" transform="matrix(1 0 0 1 2771.57 1967)">Mapper</text></g></svg>