<svg width="1225" height="528" xmlns="http://www.w3.org/2000/svg" xmlns:xlink="http://www.w3.org/1999/xlink" xml:space="preserve" overflow="hidden"><defs><clipPath id="clip0"><rect x="-401" y="-721" width="1225" height="528"/></clipPath></defs><g clip-path="url(#clip0)" transform="translate(401 721)"><path d="M640.941 255.059 635.628 262.012 632.471 265.412 633.207 263.358C634.358 261.215 635.853 259.204 637.695 257.401L640.941 255.059Z" fill="#47D45A" fill-rule="evenodd" transform="matrix(1.00043 0 0 1 -379.344 -823.588)"/><path d="M637.786 176.941 639.361 177.018 641.882 177.395 641.579 180.483C640.604 185.398 638.168 190.09 634.269 193.896 630.371 197.702 625.564 200.08 620.531 201.032L616.471 201.412 616.859 197.448C617.834 192.534 620.271 187.841 624.169 184.036 626.119 182.133 628.295 180.586 630.613 179.397L637.786 176.941Z" fill="#FFFFFF" fill-rule="evenodd" transform="matrix(1.00043 0 0 1 -379.344 -823.588)"/><path d="M616.471 177.882 616.174 180.948C615.236 185.752 612.89 190.341 609.137 194.062 605.383 197.784 600.756 200.11 595.909 201.04L592 201.412 592.375 197.536C593.313 192.731 595.659 188.142 599.412 184.421 601.289 182.56 603.384 181.048 605.616 179.885L605.645 179.876 609.07 179.002 616.471 177.882Z" fill="#FFFFFF" fill-rule="evenodd" transform="matrix(1.00043 0 0 1 -379.344 -823.588)"/><path d="M654.192 179.765 656.218 180.283 657.64 189.544 657.882 194.324 652.173 198.512C649.88 199.71 647.447 200.55 644.957 201.029L640.941 201.412 641.326 197.417C642.29 192.464 644.7 187.735 648.556 183.898L654.192 179.765Z" fill="#FFFFFF" fill-rule="evenodd" transform="matrix(1.00043 0 0 1 -379.344 -823.588)"/><path d="M590.118 184.471 589.01 187.688C587.849 189.938 586.341 192.05 584.484 193.942 580.771 197.724 576.192 200.088 571.397 201.034L567.529 201.412 567.833 198.188 574.392 193.191C576.919 191.452 579.532 189.833 582.224 188.344L590.118 184.471Z" fill="#FFFFFF" fill-rule="evenodd" transform="matrix(1.00043 0 0 1 -379.344 -823.588)"/><path d="M588.235 200.471 587.862 204.517C586.926 209.534 584.588 214.325 580.847 218.21 577.105 222.095 572.492 224.523 567.661 225.495L563.765 225.882 564.138 221.836C565.074 216.819 567.412 212.028 571.153 208.143 574.895 204.258 579.508 201.83 584.339 200.858L588.235 200.471Z" fill="#FFFFFF" fill-rule="evenodd" transform="matrix(1.00043 0 0 1 -379.344 -823.588)"/><path d="M613.647 200.471 613.259 204.517C612.288 209.534 609.86 214.325 605.975 218.21 602.089 222.095 597.299 224.523 592.281 225.495L588.235 225.882 588.623 221.836C589.594 216.819 592.023 212.028 595.908 208.143 599.793 204.258 604.584 201.83 609.601 200.858L613.647 200.471Z" fill="#FFFFFF" fill-rule="evenodd" transform="matrix(1.00043 0 0 1 -379.344 -823.588)"/><path d="M638.118 200.471 637.73 204.517C636.759 209.534 634.33 214.325 630.445 218.21 626.56 222.095 621.769 224.523 616.752 225.495L612.706 225.882 613.094 221.836C614.065 216.819 616.493 212.028 620.378 208.143 624.264 204.258 629.054 201.83 634.072 200.858L638.118 200.471Z" fill="#FFFFFF" fill-rule="evenodd" transform="matrix(1.00043 0 0 1 -379.344 -823.588)"/><path d="M657.882 201.412 657.441 210.096 656.545 215.928 654.762 218.328C650.91 222.153 646.161 224.544 641.188 225.5L637.176 225.882 637.561 221.898C638.524 216.96 640.931 212.244 644.783 208.418 646.709 206.505 648.859 204.952 651.149 203.756L657.882 201.412Z" fill="#FFFFFF" fill-rule="evenodd" transform="matrix(1.00043 0 0 1 -379.344 -823.588)"/><path d="M563.765 201.412 563.476 204.518C562.527 209.572 560.154 214.398 556.358 218.312 554.459 220.269 552.34 221.86 550.082 223.082L544.941 224.941 547.817 220.06C551.307 214.734 555.282 209.773 559.674 205.244L563.765 201.412Z" fill="#FFFFFF" fill-rule="evenodd" transform="matrix(1.00043 0 0 1 -379.344 -823.588)"/><path d="M560.941 224.941 560.553 228.987C559.582 234.005 557.154 238.795 553.269 242.68 549.383 246.566 544.593 248.994 539.576 249.965L535.529 250.353 535.917 246.307C536.888 241.289 539.317 236.499 543.202 232.614 547.087 228.728 551.878 226.3 556.895 225.329L560.941 224.941Z" fill="#FFFFFF" fill-rule="evenodd" transform="matrix(1.00043 0 0 1 -379.344 -823.588)"/><path d="M585.412 224.941 585.024 228.987C584.053 234.005 581.625 238.795 577.739 242.68 573.854 246.566 569.064 248.994 564.046 249.965L560 250.353 560.388 246.307C561.359 241.289 563.787 236.499 567.672 232.614 571.558 228.728 576.348 226.3 581.366 225.329L585.412 224.941Z" fill="#FFFFFF" fill-rule="evenodd" transform="matrix(1.00043 0 0 1 -379.344 -823.588)"/><path d="M609.882 224.941 609.495 228.987C608.523 234.005 606.095 238.795 602.21 242.68 598.325 246.566 593.534 248.994 588.517 249.965L584.471 250.353 584.858 246.307C585.83 241.289 588.258 236.499 592.143 232.614 596.028 228.728 600.819 226.3 605.836 225.329L609.882 224.941Z" fill="#FFFFFF" fill-rule="evenodd" transform="matrix(1.00043 0 0 1 -379.344 -823.588)"/><path d="M634.353 224.941 633.965 228.987C632.994 234.005 630.566 238.795 626.68 242.68 622.795 246.566 618.005 248.994 612.987 249.965L608.941 250.353 609.329 246.307C610.3 241.289 612.728 236.499 616.614 232.614 620.499 228.728 625.289 226.3 630.307 225.329L634.353 224.941Z" fill="#FFFFFF" fill-rule="evenodd" transform="matrix(1.00043 0 0 1 -379.344 -823.588)"/><path d="M655.059 225.882 654.218 229.135C653.262 232.196 652.158 235.192 650.916 238.116L646.862 246.491 645.537 247.464C643.254 248.658 640.831 249.494 638.352 249.972L634.353 250.353 634.736 246.373C635.696 241.438 638.096 236.727 641.936 232.905 643.855 230.995 645.999 229.442 648.282 228.248L655.059 225.882Z" fill="#FFFFFF" fill-rule="evenodd" transform="matrix(1.00043 0 0 1 -379.344 -823.588)"/><path d="M557.176 249.412 556.789 253.458C555.817 258.475 553.389 263.266 549.504 267.151 545.619 271.036 540.828 273.464 535.811 274.436L531.765 274.824 532.152 270.777C533.124 265.76 535.552 260.969 539.437 257.084 543.322 253.199 548.113 250.771 553.13 249.8L557.176 249.412Z" fill="#FFFFFF" fill-rule="evenodd" transform="matrix(1.00043 0 0 1 -379.344 -823.588)"/><path d="M581.647 249.412 581.259 253.458C580.288 258.475 577.86 263.266 573.975 267.151 570.089 271.036 565.299 273.464 560.281 274.436L556.235 274.824 556.623 270.777C557.594 265.76 560.023 260.969 563.908 257.084 567.793 253.199 572.584 250.771 577.601 249.8L581.647 249.412Z" fill="#FFFFFF" fill-rule="evenodd" transform="matrix(1.00043 0 0 1 -379.344 -823.588)"/><path d="M606.118 249.412 605.744 253.458C604.808 258.475 602.471 263.266 598.729 267.151 594.987 271.036 590.375 273.464 585.544 274.436L581.647 274.824 582.021 270.777C582.956 265.76 585.294 260.969 589.035 257.084 592.777 253.199 597.39 250.771 602.221 249.8L606.118 249.412Z" fill="#FFFFFF" fill-rule="evenodd" transform="matrix(1.00043 0 0 1 -379.344 -823.588)"/><path d="M630.588 249.412 630.215 253.458C629.279 258.475 626.941 263.266 623.2 267.151 619.458 271.036 614.845 273.464 610.014 274.436L606.118 274.824 606.491 270.777C607.427 265.76 609.765 260.969 613.506 257.084 617.248 253.199 621.861 250.771 626.692 249.8L630.588 249.412Z" fill="#FFFFFF" fill-rule="evenodd" transform="matrix(1.00043 0 0 1 -379.344 -823.588)"/><path d="M553.412 273.882 553.024 277.923C552.052 282.932 549.621 287.715 545.733 291.594L540.383 295.529 532.801 293.585 531.765 286.81 535.657 281.544C539.546 277.664 544.341 275.24 549.362 274.269L553.412 273.882Z" fill="#FFFFFF" fill-rule="evenodd" transform="matrix(1.00043 0 0 1 -379.344 -823.588)"/><path d="M577.882 273.882 577.506 277.892C576.564 282.863 574.207 287.609 570.437 291.46 568.552 293.384 566.446 294.948 564.204 296.152L560.706 297.404 560.558 297.412 553.412 297.044 553.598 295.052C554.541 290.082 556.898 285.335 560.668 281.485 564.439 277.635 569.087 275.229 573.956 274.266L577.882 273.882Z" fill="#FFFFFF" fill-rule="evenodd" transform="matrix(1.00043 0 0 1 -379.344 -823.588)"/><path d="M602.353 273.882 601.975 278.024C601.501 280.592 600.672 283.102 599.488 285.467L595.399 291.288 589.336 293.617C586.302 294.608 583.204 295.446 580.049 296.123L577.882 296.471 577.948 295.753C578.895 290.617 581.263 285.714 585.052 281.736 588.841 277.759 593.514 275.273 598.407 274.28L602.353 273.882Z" fill="#FFFFFF" fill-rule="evenodd" transform="matrix(1.00043 0 0 1 -379.344 -823.588)"/><path d="M623.059 274.824 622.358 275.483C617.697 279.461 612.662 282.985 607.314 285.991L607.059 286.118 610.006 281.984C613.694 278.168 618.243 275.783 623.007 274.828L623.059 274.824Z" fill="#FFFFFF" fill-rule="evenodd" transform="matrix(1.00043 0 0 1 -379.344 -823.588)"/><path d="M560.471 102.588C607.544 102.588 646.82 135.98 655.903 180.371L655.976 180.847 653.975 180.332 648.408 184.438C644.599 188.246 642.218 192.942 641.267 197.86L640.887 201.827 644.853 201.447C647.312 200.97 649.715 200.137 651.98 198.947L657.619 194.789 657.882 200.004 657.816 201.317 651.159 203.652C648.894 204.841 646.768 206.389 644.864 208.294 641.055 212.102 638.675 216.798 637.722 221.716L637.342 225.683 641.309 225.303C646.227 224.35 650.922 221.97 654.731 218.161L656.493 215.771 655.903 219.637 654.337 225.73 647.615 228.088C645.35 229.277 643.224 230.824 641.32 232.729 637.512 236.538 635.13 241.234 634.179 246.152L633.799 250.119 637.765 249.738C640.224 249.262 642.627 248.429 644.892 247.239L646.206 246.27 646.125 246.438C644.626 249.198 642.997 251.879 641.246 254.47L641.133 254.62 637.776 257.096C635.871 259 634.324 261.127 633.134 263.391L632.373 265.562 629.352 268.887 623.158 274.516 623.104 274.521C618.186 275.474 613.49 277.854 609.682 281.663L606.64 285.788 598.388 289.764 595.53 290.809 599.64 285.235C600.831 282.97 601.664 280.567 602.14 278.107L602.52 274.141 598.554 274.521C593.636 275.474 588.94 277.854 585.131 281.663 581.323 285.471 578.943 290.168 577.991 295.085L577.925 295.772 570.43 296.917 560.619 297.412 564.154 296.172C566.419 294.982 568.545 293.434 570.449 291.53 574.258 287.721 576.638 283.026 577.591 278.107L577.97 274.141 574.004 274.521C569.086 275.474 564.391 277.854 560.582 281.663 556.774 285.471 554.392 290.168 553.441 295.085L553.252 297.055 550.511 296.917C547.236 296.584 544.009 296.088 540.839 295.44L540.66 295.394 545.899 291.53C549.707 287.721 552.088 283.026 553.04 278.107L553.42 274.141 549.454 274.521C544.536 275.474 539.84 277.854 536.032 281.663L532.219 286.834 533.234 293.484 531.503 293.04C491.85 280.706 463.059 243.717 463.059 200.004 463.059 146.202 506.672 102.588 560.471 102.588ZM637.161 177.337 630.152 179.796C627.888 180.985 625.762 182.533 623.858 184.438 620.049 188.247 617.669 192.942 616.716 197.86L616.337 201.827 620.303 201.447C625.221 200.494 629.916 198.114 633.725 194.305 637.533 190.497 639.914 185.8 640.866 180.883L641.162 177.791 638.699 177.416 637.161 177.337ZM637.703 200.772 633.736 201.152C628.818 202.104 624.122 204.485 620.313 208.294 616.505 212.102 614.125 216.798 613.173 221.716L612.792 225.683 616.759 225.303C621.676 224.35 626.373 221.97 630.181 218.161 633.99 214.352 636.37 209.656 637.322 204.738L637.703 200.772ZM634.158 225.208 630.192 225.588C625.274 226.54 620.578 228.92 616.77 232.729 612.961 236.538 610.581 241.234 609.628 246.152L609.249 250.119 613.215 249.738C618.133 248.786 622.828 246.406 626.637 242.597 630.445 238.789 632.826 234.092 633.778 229.175L634.158 225.208ZM630.615 249.575 626.648 249.955C621.73 250.907 617.034 253.288 613.225 257.096 609.417 260.904 607.037 265.601 606.085 270.519L605.704 274.486 609.671 274.105C614.588 273.153 619.285 270.773 623.093 266.964 626.902 263.155 629.282 258.459 630.234 253.542L630.615 249.575ZM616.617 177.746 609.108 178.891 605.632 179.785 605.603 179.796C603.338 180.985 601.212 182.533 599.307 184.438 595.499 188.246 593.119 192.942 592.167 197.86L591.786 201.827 595.753 201.447C600.67 200.494 605.367 198.114 609.175 194.305 612.984 190.496 615.364 185.8 616.316 180.883L616.617 177.746ZM613.152 200.772 609.186 201.152C604.268 202.104 599.572 204.485 595.764 208.294 591.955 212.102 589.575 216.798 588.623 221.716L588.243 225.683 592.209 225.303C597.127 224.35 601.822 221.97 605.631 218.161 609.439 214.352 611.82 209.656 612.772 204.738L613.152 200.772ZM609.608 225.208 605.642 225.588C600.724 226.54 596.028 228.92 592.219 232.729 588.411 236.538 586.031 241.234 585.079 246.152L584.698 250.119 588.664 249.738C593.583 248.786 598.279 246.406 602.087 242.597 605.896 238.789 608.276 234.092 609.228 229.175L609.608 225.208ZM606.064 249.575 602.098 249.955C597.18 250.907 592.484 253.288 588.676 257.096 584.867 260.904 582.487 265.601 581.535 270.519L581.155 274.486 585.121 274.105C590.039 273.153 594.734 270.773 598.543 266.964 602.352 263.155 604.732 258.459 605.684 253.542L606.064 249.575ZM590.403 184.77 582.307 188.67C579.546 190.169 576.867 191.799 574.276 193.549L567.547 198.581 567.237 201.827 571.203 201.447C576.12 200.494 580.817 198.114 584.625 194.305 586.529 192.401 588.076 190.275 589.267 188.009L590.403 184.77ZM588.602 200.772 584.636 201.152C579.719 202.104 575.022 204.485 571.213 208.294 567.405 212.102 565.025 216.798 564.073 221.716L563.692 225.683 567.659 225.303C572.577 224.35 577.272 221.97 581.081 218.161 584.889 214.352 587.27 209.656 588.222 204.738L588.602 200.772ZM585.058 225.208 581.092 225.588C576.174 226.54 571.479 228.92 567.67 232.729 563.861 236.538 561.48 241.234 560.529 246.152L560.149 250.119 564.115 249.738C569.032 248.786 573.729 246.406 577.537 242.597 581.346 238.789 583.726 234.092 584.678 229.175L585.058 225.208ZM581.514 249.575 577.548 249.955C572.631 250.907 567.934 253.288 564.126 257.096 560.317 260.904 557.937 265.601 556.984 270.519L556.604 274.486 560.571 274.105C565.489 273.153 570.184 270.773 573.993 266.964 577.801 263.155 580.182 258.459 581.134 253.542L581.514 249.575ZM563.961 201.716 559.859 205.445C555.451 209.852 551.465 214.68 547.964 219.863L545.079 224.612 550.236 222.803C552.501 221.612 554.627 220.065 556.531 218.161 560.34 214.352 562.72 209.656 563.672 204.739L563.961 201.716ZM560.508 225.208 556.542 225.588C551.625 226.54 546.928 228.92 543.12 232.729 539.311 236.538 536.931 241.234 535.978 246.152L535.598 250.119 539.565 249.738C544.483 248.786 549.178 246.406 552.987 242.597 556.795 238.789 559.176 234.092 560.128 229.175L560.508 225.208ZM556.965 249.575 552.998 249.955C548.08 250.907 543.384 253.288 539.576 257.096 535.768 260.904 533.387 265.601 532.435 270.519L532.055 274.486 536.021 274.105C540.938 273.153 545.635 270.773 549.443 266.964 553.252 263.155 555.632 258.459 556.584 253.542L556.965 249.575Z" fill="#47D45A" fill-rule="evenodd" transform="matrix(1.00043 0 0 1 -379.344 -823.588)"/><path d="M656 180.706 657.737 181.157 664.471 183.641 662.969 187.959C661.774 190.252 660.22 192.406 658.309 194.334L657.65 194.824 657.409 190.019 656 180.706Z" fill="#47D45A" fill-rule="evenodd" transform="matrix(1.00043 0 0 1 -379.344 -823.588)"/><path d="M671.21 186.353 675.147 188.25C677.908 189.751 680.587 191.38 683.178 193.131L683.294 193.218 682.801 193.887C678.992 197.698 674.296 200.079 669.378 201.032L665.412 201.412 665.792 197.444C666.268 194.984 667.101 192.58 668.292 190.313L671.21 186.353Z" fill="#47D45A" fill-rule="evenodd" transform="matrix(1.00043 0 0 1 -379.344 -823.588)"/><path d="M691.068 198.588 691.435 198.891 693.647 201.112 690.824 201.412 691.068 198.588Z" fill="#47D45A" fill-rule="evenodd" transform="matrix(1.00043 0 0 1 -379.344 -823.588)"/><path d="M662.588 200.471 662.216 204.453C661.749 206.921 660.932 209.335 659.765 211.608L656.941 215.529 657.81 209.699 658.238 201.017 658.699 200.852 662.588 200.471Z" fill="#47D45A" fill-rule="evenodd" transform="matrix(1.00043 0 0 1 -379.344 -823.588)"/><path d="M687.059 200.471 686.685 204.517C685.75 209.534 683.412 214.325 679.671 218.21 675.928 222.095 671.316 224.523 666.485 225.495L662.588 225.882 662.962 221.836C663.897 216.819 666.235 212.028 669.976 208.143 673.719 204.258 678.331 201.83 683.162 200.858L687.059 200.471Z" fill="#47D45A" fill-rule="evenodd" transform="matrix(1.00043 0 0 1 -379.344 -823.588)"/><path d="M698.426 205.176 704.689 212.193 706.824 215.099 704.613 218.152C700.768 222.067 696.027 224.513 691.063 225.492L687.059 225.882 687.443 221.806C688.404 216.751 690.807 211.925 694.651 208.01L698.426 205.176Z" fill="#47D45A" fill-rule="evenodd" transform="matrix(1.00043 0 0 1 -379.344 -823.588)"/><path d="M711.8 223.059 713.412 225.703 711.529 225.882 711.8 223.059Z" fill="#47D45A" fill-rule="evenodd" transform="matrix(1.00043 0 0 1 -379.344 -823.588)"/><path d="M658.824 224.941 658.452 229.018C657.52 234.072 655.19 238.899 651.463 242.813L646.588 246.588 650.523 238.008C651.73 235.015 652.801 231.945 653.729 228.81L654.545 225.478 654.942 225.332 658.824 224.941Z" fill="#47D45A" fill-rule="evenodd" transform="matrix(1.00043 0 0 1 -379.344 -823.588)"/><path d="M683.294 224.941 682.92 228.987C681.985 234.005 679.647 238.795 675.906 242.68 672.164 246.566 667.551 248.994 662.72 249.965L658.824 250.353 659.197 246.307C660.133 241.289 662.471 236.499 666.212 232.614 669.954 228.728 674.567 226.3 679.398 225.329L683.294 224.941Z" fill="#47D45A" fill-rule="evenodd" transform="matrix(1.00043 0 0 1 -379.344 -823.588)"/><path d="M708.706 224.941 708.318 228.987C707.347 234.005 704.919 238.795 701.033 242.68 697.148 246.566 692.358 248.994 687.34 249.965L683.294 250.353 683.682 246.307C684.653 241.289 687.081 236.499 690.967 232.614 694.852 228.728 699.642 226.3 704.66 225.329L708.706 224.941Z" fill="#47D45A" fill-rule="evenodd" transform="matrix(1.00043 0 0 1 -379.344 -823.588)"/><path d="M716.542 231.529 718.765 236.285 721.882 245.064 718.81 247.398C716.555 248.619 714.163 249.474 711.714 249.962L707.765 250.353 708.143 246.282C709.091 241.236 711.462 236.417 715.254 232.508L716.542 231.529Z" fill="#47D45A" fill-rule="evenodd" transform="matrix(1.00043 0 0 1 -379.344 -823.588)"/><path d="M655.059 249.412 654.685 253.458C653.75 258.475 651.412 263.266 647.671 267.151 643.928 271.036 639.316 273.464 634.485 274.436L630.588 274.824 630.962 270.777 632.669 265.72 635.877 262.056 641.275 254.559 644.161 252.349C646.386 251.135 648.747 250.285 651.162 249.8L655.059 249.412Z" fill="#47D45A" fill-rule="evenodd" transform="matrix(1.00043 0 0 1 -379.344 -823.588)"/><path d="M680.471 249.412 680.083 253.458C679.112 258.475 676.683 263.266 672.798 267.151 668.913 271.036 664.122 273.464 659.105 274.436L655.059 274.824 655.447 270.777C656.418 265.76 658.846 260.969 662.731 257.084 666.617 253.199 671.407 250.771 676.424 249.8L680.471 249.412Z" fill="#47D45A" fill-rule="evenodd" transform="matrix(1.00043 0 0 1 -379.344 -823.588)"/><path d="M704.941 249.412 704.553 253.458C703.582 258.475 701.154 263.266 697.269 267.151 693.383 271.036 688.593 273.464 683.576 274.436L679.529 274.824 679.917 270.777C680.888 265.76 683.317 260.969 687.202 257.084 691.087 253.199 695.878 250.771 700.895 249.8L704.941 249.412Z" fill="#47D45A" fill-rule="evenodd" transform="matrix(1.00043 0 0 1 -379.344 -823.588)"/><path d="M723.496 250.353 724.573 254.579 725.647 261.668 721.651 267.129C717.785 271.025 713.018 273.461 708.026 274.435L704 274.824 704.386 270.766C705.352 265.735 707.768 260.931 711.635 257.034 713.568 255.087 715.726 253.504 718.025 252.286L723.496 250.353Z" fill="#47D45A" fill-rule="evenodd" transform="matrix(1.00043 0 0 1 -379.344 -823.588)"/><path d="M626.824 273.882 626.45 277.928C625.514 282.946 623.176 287.736 619.435 291.622 615.693 295.507 611.081 297.935 606.249 298.906L602.353 299.294 602.727 295.248C603.194 292.74 604.012 290.288 605.181 287.977L606.753 285.764 607.012 285.635C612.436 282.575 617.543 278.986 622.268 274.936L622.98 274.264 626.824 273.882Z" fill="#47D45A" fill-rule="evenodd" transform="matrix(1.00043 0 0 1 -379.344 -823.588)"/><path d="M652.235 273.882 651.848 277.928C650.876 282.946 648.448 287.736 644.563 291.622 640.678 295.507 635.887 297.935 630.87 298.906L626.824 299.294 627.211 295.248C628.183 290.231 630.611 285.44 634.496 281.555 638.381 277.67 643.172 275.241 648.189 274.27L652.235 273.882Z" fill="#47D45A" fill-rule="evenodd" transform="matrix(1.00043 0 0 1 -379.344 -823.588)"/><path d="M676.706 273.882 676.318 277.928C675.347 282.946 672.919 287.736 669.033 291.622 665.148 295.507 660.358 297.935 655.34 298.906L651.294 299.294 651.682 295.248C652.653 290.231 655.081 285.44 658.967 281.555 662.852 277.67 667.642 275.241 672.66 274.27L676.706 273.882Z" fill="#47D45A" fill-rule="evenodd" transform="matrix(1.00043 0 0 1 -379.344 -823.588)"/><path d="M701.176 273.882 700.789 277.928C699.817 282.946 697.389 287.736 693.504 291.622 689.619 295.507 684.828 297.935 679.811 298.906L675.765 299.294 676.152 295.248C677.124 290.231 679.552 285.44 683.437 281.555 687.322 277.67 692.113 275.241 697.13 274.27L701.176 273.882Z" fill="#47D45A" fill-rule="evenodd" transform="matrix(1.00043 0 0 1 -379.344 -823.588)"/><path d="M725.647 273.882 725.273 277.928C724.338 282.946 722 287.736 718.259 291.622 714.517 295.507 709.904 297.935 705.073 298.906L701.176 299.294 701.55 295.248C702.486 290.231 704.824 285.44 708.565 281.555 712.307 277.67 716.919 275.241 721.751 274.27L725.647 273.882Z" fill="#47D45A" fill-rule="evenodd" transform="matrix(1.00043 0 0 1 -379.344 -823.588)"/><path d="M595.765 290.824 595.235 291.564C591.433 295.479 586.748 297.925 581.84 298.904L577.882 299.294 578.196 295.924 580.369 295.582C583.533 294.916 586.641 294.09 589.685 293.115L595.765 290.824Z" fill="#47D45A" fill-rule="evenodd" transform="matrix(1.00043 0 0 1 -379.344 -823.588)"/><path d="M532.706 293.647 540.235 295.63 539.165 296.439 533.836 298.353 532.779 294.141 532.706 293.647Z" fill="#47D45A" fill-rule="evenodd" transform="matrix(1.00043 0 0 1 -379.344 -823.588)"/><path d="M553.603 297.412 560.792 297.755 560.941 297.748 557.363 298.936 553.412 299.294 553.603 297.412Z" fill="#47D45A" fill-rule="evenodd" transform="matrix(1.00043 0 0 1 -379.344 -823.588)"/><path d="M574.118 299.294 573.744 303.191C572.808 308.022 570.471 312.634 566.729 316.376 562.987 320.118 558.375 322.456 553.544 323.391L549.647 323.765 550.021 319.868C550.956 315.037 553.294 310.424 557.035 306.682 560.777 302.941 565.39 300.603 570.221 299.668L574.118 299.294Z" fill="#47D45A" fill-rule="evenodd" transform="matrix(1.00043 0 0 1 -379.344 -823.588)"/><path d="M599.529 299.294 599.142 303.191C598.17 308.022 595.742 312.634 591.857 316.376 587.972 320.118 583.181 322.456 578.164 323.391L574.118 323.765 574.505 319.868C575.477 315.037 577.905 310.424 581.79 306.682 585.675 302.941 590.466 300.603 595.483 299.668L599.529 299.294Z" fill="#47D45A" fill-rule="evenodd" transform="matrix(1.00043 0 0 1 -379.344 -823.588)"/><path d="M624 299.294 623.612 303.191C622.641 308.022 620.213 312.634 616.328 316.376 612.442 320.118 607.652 322.456 602.634 323.391L598.588 323.765 598.976 319.868C599.947 315.037 602.376 310.424 606.261 306.682 610.146 302.941 614.936 300.603 619.954 299.668L624 299.294Z" fill="#47D45A" fill-rule="evenodd" transform="matrix(1.00043 0 0 1 -379.344 -823.588)"/><path d="M648.471 299.294 648.083 303.191C647.112 308.022 644.683 312.634 640.798 316.376 636.913 320.118 632.122 322.456 627.105 323.391L623.059 323.765 623.447 319.868C624.418 315.037 626.846 310.424 630.731 306.682 634.617 302.941 639.407 300.603 644.424 299.668L648.471 299.294Z" fill="#47D45A" fill-rule="evenodd" transform="matrix(1.00043 0 0 1 -379.344 -823.588)"/><path d="M672.941 299.294 672.568 303.191C671.632 308.022 669.294 312.634 665.553 316.376 661.811 320.118 657.198 322.456 652.367 323.391L648.471 323.765 648.844 319.868C649.78 315.037 652.118 310.424 655.859 306.682 659.601 302.941 664.214 300.603 669.045 299.668L672.941 299.294Z" fill="#47D45A" fill-rule="evenodd" transform="matrix(1.00043 0 0 1 -379.344 -823.588)"/><path d="M697.412 299.294 697.038 303.191C696.103 308.022 693.765 312.634 690.024 316.376 686.281 320.118 681.669 322.456 676.838 323.391L672.941 323.765 673.315 319.868C674.25 315.037 676.588 310.424 680.329 306.682 684.072 302.941 688.684 300.603 693.515 299.668L697.412 299.294Z" fill="#47D45A" fill-rule="evenodd" transform="matrix(1.00043 0 0 1 -379.344 -823.588)"/><path d="M721.882 299.294 721.509 303.191C720.573 308.022 718.235 312.634 714.494 316.376 710.752 320.118 706.139 322.456 701.308 323.391L697.412 323.765 697.785 319.868C698.721 315.037 701.059 310.424 704.8 306.682 708.542 302.941 713.155 300.603 717.986 299.668L721.882 299.294Z" fill="#47D45A" fill-rule="evenodd" transform="matrix(1.00043 0 0 1 -379.344 -823.588)"/><path d="M549.647 299.294 549.265 303.181C548.308 308 545.915 312.601 542.088 316.334L540.915 317.176 538.697 312.689 535.529 304.249 538.497 302.116C540.774 300.95 543.189 300.133 545.66 299.667L549.647 299.294Z" fill="#47D45A" fill-rule="evenodd" transform="matrix(1.00043 0 0 1 -379.344 -823.588)"/><path d="M545.882 323.765 545.611 325.647 544 323.884 545.882 323.765Z" fill="#47D45A" fill-rule="evenodd" transform="matrix(1.00043 0 0 1 -379.344 -823.588)"/><path d="M595.765 323.765 595.377 327.661C594.406 332.492 591.977 337.105 588.092 340.847 584.207 344.588 579.417 346.926 574.399 347.862L570.353 348.235 570.741 344.339C571.712 339.508 574.14 334.895 578.025 331.153 581.911 327.412 586.701 325.074 591.719 324.138L595.765 323.765Z" fill="#47D45A" fill-rule="evenodd" transform="matrix(1.00043 0 0 1 -379.344 -823.588)"/><path d="M620.235 323.765 619.848 327.661C618.876 332.492 616.448 337.105 612.563 340.847 608.678 344.588 603.887 346.926 598.87 347.862L594.824 348.235 595.211 344.339C596.183 339.508 598.611 334.895 602.496 331.153 606.381 327.412 611.172 325.074 616.189 324.138L620.235 323.765Z" fill="#47D45A" fill-rule="evenodd" transform="matrix(1.00043 0 0 1 -379.344 -823.588)"/><path d="M644.706 323.765 644.332 327.661C643.397 332.492 641.059 337.105 637.318 340.847 633.576 344.588 628.963 346.926 624.132 347.862L620.235 348.235 620.609 344.339C621.544 339.508 623.882 334.895 627.624 331.153 631.366 327.412 635.978 325.074 640.809 324.138L644.706 323.765Z" fill="#47D45A" fill-rule="evenodd" transform="matrix(1.00043 0 0 1 -379.344 -823.588)"/><path d="M669.176 323.765 668.803 327.661C667.867 332.492 665.529 337.105 661.788 340.847 658.046 344.588 653.433 346.926 648.602 347.862L644.706 348.235 645.08 344.339C646.015 339.508 648.353 334.895 652.094 331.153 655.836 327.412 660.449 325.074 665.28 324.138L669.176 323.765Z" fill="#47D45A" fill-rule="evenodd" transform="matrix(1.00043 0 0 1 -379.344 -823.588)"/><path d="M693.647 323.765 693.273 327.661C692.338 332.492 690 337.105 686.259 340.847 682.517 344.588 677.904 346.926 673.073 347.862L669.176 348.235 669.55 344.339C670.486 339.508 672.824 334.895 676.565 331.153 680.307 327.412 684.919 325.074 689.751 324.138L693.647 323.765Z" fill="#47D45A" fill-rule="evenodd" transform="matrix(1.00043 0 0 1 -379.344 -823.588)"/><path d="M571.294 323.765 570.909 327.667C569.944 332.505 567.534 337.125 563.676 340.872L559.966 343.529 553.76 336.898 551.529 334 553.682 331.164C557.539 327.417 562.296 325.076 567.276 324.138L571.294 323.765Z" fill="#47D45A" fill-rule="evenodd" transform="matrix(1.00043 0 0 1 -379.344 -823.588)"/><path d="M713.412 324.706 710.362 329.442C706.744 334.497 702.622 339.206 698.066 343.505L693.647 347.294 693.965 344.165C694.949 339.368 697.41 334.788 701.347 331.072 703.316 329.215 705.513 327.705 707.855 326.545L713.412 324.706Z" fill="#47D45A" fill-rule="evenodd" transform="matrix(1.00043 0 0 1 -379.344 -823.588)"/><path d="M567.529 347.294 567.201 350.118 566.867 349.912 563.765 347.592 567.529 347.294Z" fill="#47D45A" fill-rule="evenodd" transform="matrix(1.00043 0 0 1 -379.344 -823.588)"/><path d="M592 347.294 591.619 351.271C591.142 353.736 590.307 356.146 589.113 358.417L586.213 362.353 582.396 360.514C579.63 359.011 576.944 357.377 574.346 355.622L574.118 355.451 574.571 354.835C578.389 351.016 583.096 348.63 588.024 347.675L592 347.294Z" fill="#47D45A" fill-rule="evenodd" transform="matrix(1.00043 0 0 1 -379.344 -823.588)"/><path d="M616.471 347.294 616.09 351.29C615.138 356.245 612.756 360.976 608.945 364.813L603.385 368.941 599.796 368.011 592.941 365.485 594.428 361.214C595.62 358.933 597.168 356.791 599.073 354.872 602.884 351.034 607.582 348.636 612.503 347.677L616.471 347.294Z" fill="#47D45A" fill-rule="evenodd" transform="matrix(1.00043 0 0 1 -379.344 -823.588)"/><path d="M640.941 347.294 640.567 351.255C639.628 356.165 637.282 360.854 633.528 364.657 631.651 366.558 629.555 368.104 627.323 369.291L620.361 371.765 619.05 371.698 616.471 371.299 616.763 368.206C617.702 363.296 620.048 358.607 623.801 354.804 627.556 351.001 632.184 348.624 637.032 347.673L640.941 347.294Z" fill="#47D45A" fill-rule="evenodd" transform="matrix(1.00043 0 0 1 -379.344 -823.588)"/><path d="M666.353 347.294 665.964 351.316C664.99 356.302 662.554 361.064 658.657 364.925 656.709 366.856 654.534 368.424 652.216 369.632L651.432 369.904 648.787 370.578 640.941 371.765 641.254 368.53C642.228 363.544 644.664 358.782 648.561 354.92 652.457 351.059 657.263 348.645 662.295 347.679L666.353 347.294Z" fill="#47D45A" fill-rule="evenodd" transform="matrix(1.00043 0 0 1 -379.344 -823.588)"/><path d="M690.824 347.294 690.493 350.648 683.844 355.484C681.217 357.21 678.5 358.817 675.702 360.296L667.294 364.235 668.49 360.918C669.697 358.685 671.265 356.588 673.195 354.711 677.057 350.955 681.817 348.608 686.803 347.669L690.824 347.294Z" fill="#47D45A" fill-rule="evenodd" transform="matrix(1.00043 0 0 1 -379.344 -823.588)"/><text fill="#404040" font-family="Aharoni,Aharoni_MSFontService,sans-serif" font-weight="700" font-size="107" transform="matrix(0.941583 0 0 0.941176 -340.323 -285)">Canopy</text><text fill="#404040" font-family="Aharoni,Aharoni_MSFontService,sans-serif" font-weight="700" font-size="107" transform="matrix(0.941583 0 0 0.941176 25.7962 -285)">-</text><text fill="#404040" font-family="Aharoni,Aharoni_MSFontService,sans-serif" font-weight="700" font-size="107" transform="matrix(0.941583 0 0 0.941176 56.3977 -285)">Shade</text><text fill="#404040" font-family="Aharoni,Aharoni_MSFontService,sans-serif" font-weight="700" font-size="107" transform="matrix(0.941583 0 0 0.941176 354.88 -285)">-</text><text fill="#404040" font-family="Aharoni,Aharoni_MSFontService,sans-serif" font-weight="700" font-size="107" transform="matrix(0.941583 0 0 0.941176 385.481 -285)">Mapper</text></g></svg>