<svg width="2741" height="1146" xmlns="http://www.w3.org/2000/svg" xmlns:xlink="http://www.w3.org/1999/xlink" xml:space="preserve" overflow="hidden"><g transform="translate(-1293 -990)"><path d="M2759 1300 2747.71 1315.45 2741 1323 2742.56 1318.44C2745.01 1313.68 2748.19 1309.21 2752.1 1305.2L2759 1300Z" fill="#47D45A" fill-rule="evenodd"/><path d="M2595 990C2691.17 990 2771.4 1058.22 2789.96 1148.9L2790.11 1149.87 2786.02 1148.82 2774.64 1157.21C2766.86 1164.99 2762 1174.58 2760.06 1184.63L2759.28 1192.73 2767.38 1191.95C2772.41 1190.98 2777.32 1189.28 2781.94 1186.85L2793.46 1178.35 2794 1189.01 2793.86 1191.69 2780.26 1196.46C2775.64 1198.89 2771.29 1202.05 2767.4 1205.94 2759.62 1213.72 2754.76 1223.32 2752.82 1233.36L2752.04 1241.47 2760.14 1240.69C2770.19 1238.74 2779.78 1233.88 2787.56 1226.1L2791.16 1221.22 2789.96 1229.11 2786.76 1241.56 2773.02 1246.38C2768.4 1248.81 2764.05 1251.97 2760.16 1255.86 2752.38 1263.64 2747.52 1273.24 2745.58 1283.28L2744.8 1291.39 2752.9 1290.61C2757.93 1289.64 2762.84 1287.93 2767.46 1285.5L2770.15 1283.52 2769.98 1283.87C2766.92 1289.51 2763.59 1294.98 2760.01 1300.27L2759.78 1300.58 2752.92 1305.64C2749.03 1309.53 2745.87 1313.87 2743.44 1318.5L2741.89 1322.93 2735.71 1329.73 2723.06 1341.23 2722.95 1341.24C2712.91 1343.18 2703.31 1348.05 2695.53 1355.83L2689.32 1364.26 2672.46 1372.38 2666.62 1374.51 2675.02 1363.12C2677.45 1358.5 2679.15 1353.59 2680.13 1348.56L2680.9 1340.46 2672.8 1341.24C2662.75 1343.18 2653.16 1348.05 2645.38 1355.83 2637.6 1363.61 2632.74 1373.2 2630.79 1383.25L2630.66 1384.65 2615.35 1386.99 2595.3 1388 2602.52 1385.47C2607.15 1383.04 2611.49 1379.88 2615.38 1375.99 2623.17 1368.2 2628.03 1358.61 2629.97 1348.56L2630.75 1340.46 2622.65 1341.24C2612.6 1343.18 2603.01 1348.05 2595.23 1355.83 2587.45 1363.61 2582.58 1373.2 2580.64 1383.25L2580.25 1387.27 2574.65 1386.99C2567.96 1386.31 2561.37 1385.3 2554.89 1383.97L2554.53 1383.88 2565.23 1375.99C2573.01 1368.2 2577.88 1358.61 2579.82 1348.56L2580.6 1340.46 2572.49 1341.24C2562.45 1343.18 2552.85 1348.05 2545.07 1355.83L2537.29 1366.39 2539.36 1379.98 2535.82 1379.07C2454.82 1353.87 2396 1278.31 2396 1189.01 2396 1079.1 2485.1 990 2595 990ZM2751.67 1142.7 2737.35 1147.72C2732.73 1150.16 2728.38 1153.32 2724.49 1157.21 2716.71 1164.99 2711.85 1174.58 2709.9 1184.63L2709.13 1192.73 2717.23 1191.96C2727.28 1190.01 2736.87 1185.15 2744.65 1177.37 2752.43 1169.59 2757.29 1159.99 2759.24 1149.95L2759.84 1143.63 2754.81 1142.86 2751.67 1142.7ZM2752.77 1190.58 2744.67 1191.35C2734.63 1193.3 2725.03 1198.16 2717.25 1205.94 2709.47 1213.72 2704.61 1223.32 2702.66 1233.36L2701.89 1241.47 2709.99 1240.69C2720.04 1238.74 2729.63 1233.88 2737.41 1226.1 2745.19 1218.32 2750.05 1208.73 2752 1198.68L2752.77 1190.58ZM2745.53 1240.5 2737.43 1241.27C2727.39 1243.22 2717.79 1248.08 2710.01 1255.86 2702.23 1263.64 2697.37 1273.24 2695.42 1283.28L2694.65 1291.39 2702.75 1290.61C2712.8 1288.66 2722.39 1283.8 2730.17 1276.02 2737.95 1268.24 2742.81 1258.65 2744.76 1248.6L2745.53 1240.5ZM2738.29 1290.27 2730.19 1291.05C2720.15 1293 2710.55 1297.86 2702.77 1305.64 2694.99 1313.42 2690.13 1323.01 2688.18 1333.06L2687.41 1341.16 2695.51 1340.39C2705.56 1338.44 2715.15 1333.58 2722.93 1325.8 2730.71 1318.02 2735.57 1308.42 2737.52 1298.38L2738.29 1290.27ZM2709.7 1143.54 2694.36 1145.88 2687.26 1147.7 2687.2 1147.72C2682.57 1150.16 2678.23 1153.32 2674.34 1157.21 2666.56 1164.99 2661.7 1174.58 2659.75 1184.63L2658.97 1192.73 2667.08 1191.95C2677.12 1190.01 2686.72 1185.15 2694.5 1177.37 2702.28 1169.59 2707.14 1159.99 2709.09 1149.95L2709.7 1143.54ZM2702.62 1190.58 2694.52 1191.35C2684.47 1193.3 2674.88 1198.16 2667.1 1205.94 2659.32 1213.72 2654.46 1223.32 2652.51 1233.36L2651.73 1241.47 2659.84 1240.69C2669.88 1238.74 2679.48 1233.88 2687.26 1226.1 2695.04 1218.32 2699.9 1208.73 2701.85 1198.68L2702.62 1190.58ZM2695.38 1240.5 2687.28 1241.27C2677.23 1243.22 2667.64 1248.08 2659.86 1255.86 2652.08 1263.64 2647.22 1273.24 2645.27 1283.28L2644.49 1291.39 2652.6 1290.61C2662.64 1288.66 2672.24 1283.8 2680.02 1276.02 2687.8 1268.24 2692.66 1258.65 2694.61 1248.6L2695.38 1240.5ZM2688.14 1290.27 2680.04 1291.05C2669.99 1293 2660.4 1297.86 2652.62 1305.64 2644.84 1313.42 2639.98 1323.01 2638.03 1333.06L2637.25 1341.16 2645.36 1340.39C2655.4 1338.44 2665 1333.58 2672.78 1325.8 2680.56 1318.02 2685.42 1308.42 2687.37 1298.38L2688.14 1290.27ZM2656.15 1157.89 2639.61 1165.85C2633.97 1168.92 2628.5 1172.25 2623.2 1175.82L2609.46 1186.1 2608.82 1192.73 2616.92 1191.95C2626.97 1190.01 2636.56 1185.15 2644.34 1177.37 2648.23 1173.48 2651.4 1169.13 2653.83 1164.51L2656.15 1157.89ZM2652.47 1190.58 2644.37 1191.35C2634.32 1193.3 2624.73 1198.16 2616.95 1205.94 2609.17 1213.72 2604.3 1223.32 2602.36 1233.36L2601.58 1241.47 2609.68 1240.69C2619.73 1238.74 2629.32 1233.88 2637.1 1226.1 2644.88 1218.32 2649.75 1208.73 2651.69 1198.68L2652.47 1190.58ZM2645.23 1240.5 2637.13 1241.27C2627.08 1243.22 2617.49 1248.08 2609.71 1255.86 2601.93 1263.64 2597.06 1273.24 2595.12 1283.28L2594.34 1291.39 2602.44 1290.61C2612.49 1288.66 2622.08 1283.8 2629.86 1276.02 2637.65 1268.24 2642.51 1258.65 2644.45 1248.6L2645.23 1240.5ZM2637.99 1290.27 2629.89 1291.05C2619.84 1293 2610.25 1297.86 2602.47 1305.64 2594.69 1313.42 2589.82 1323.01 2587.88 1333.06L2587.1 1341.16 2595.21 1340.39C2605.25 1338.44 2614.84 1333.58 2622.62 1325.8 2630.41 1318.02 2635.27 1308.42 2637.21 1298.38L2637.99 1290.27ZM2602.13 1192.51 2593.75 1200.12C2584.75 1209.13 2576.6 1218.99 2569.45 1229.58L2563.56 1239.28 2574.09 1235.58C2578.72 1233.15 2583.06 1229.99 2586.95 1226.1 2594.73 1218.32 2599.59 1208.73 2601.54 1198.68L2602.13 1192.51ZM2595.08 1240.5 2586.97 1241.27C2576.93 1243.22 2567.33 1248.08 2559.55 1255.86 2551.77 1263.64 2546.91 1273.24 2544.97 1283.28L2544.19 1291.39 2552.29 1290.61C2562.34 1288.66 2571.93 1283.8 2579.71 1276.02 2587.49 1268.24 2592.36 1258.65 2594.3 1248.6L2595.08 1240.5ZM2587.84 1290.27 2579.73 1291.05C2569.69 1293 2560.09 1297.86 2552.31 1305.64 2544.53 1313.42 2539.67 1323.01 2537.73 1333.06L2536.95 1341.16 2545.05 1340.39C2555.1 1338.44 2564.69 1333.58 2572.47 1325.8 2580.25 1318.02 2585.12 1308.42 2587.06 1298.38L2587.84 1290.27Z" fill="#47D45A" fill-rule="evenodd"/><path d="M2790 1150 2793.49 1150.89 2807 1155.82 2803.99 1164.39C2801.59 1168.93 2798.47 1173.2 2794.63 1177.03L2793.31 1178 2792.83 1168.47 2790 1150Z" fill="#47D45A" fill-rule="evenodd"/><path d="M2820.67 1162 2828.6 1165.91C2834.16 1168.99 2839.55 1172.35 2844.77 1175.95L2845 1176.13 2844.01 1177.51C2836.34 1185.35 2826.89 1190.26 2816.99 1192.22L2809 1193 2809.77 1184.83C2810.72 1179.77 2812.4 1174.82 2814.8 1170.15L2820.67 1162Z" fill="#47D45A" fill-rule="evenodd"/><path d="M2859.61 1186 2860.52 1186.75 2866 1192.26 2859 1193 2859.61 1186Z" fill="#47D45A" fill-rule="evenodd"/><path d="M2802 1190 2801.27 1198.2C2800.36 1203.28 2798.77 1208.25 2796.5 1212.93L2791 1221 2792.69 1209 2793.53 1191.13 2794.42 1190.79 2802 1190Z" fill="#47D45A" fill-rule="evenodd"/><path d="M2853 1190 2852.22 1198.12C2850.27 1208.19 2845.4 1217.8 2837.6 1225.6 2829.8 1233.4 2820.19 1238.27 2810.12 1240.22L2802 1241 2802.78 1232.88C2804.73 1222.81 2809.6 1213.2 2817.4 1205.4 2825.2 1197.6 2834.81 1192.73 2844.88 1190.78L2853 1190Z" fill="#47D45A" fill-rule="evenodd"/><path d="M2875 1200 2887.68 1213.89 2892 1219.65 2887.52 1225.69C2879.74 1233.44 2870.15 1238.29 2860.1 1240.23L2852 1241 2852.78 1232.93C2854.72 1222.92 2859.58 1213.36 2867.37 1205.61L2875 1200Z" fill="#47D45A" fill-rule="evenodd"/><path d="M2902.58 1235 2906 1240.62 2902 1241 2902.58 1235Z" fill="#47D45A" fill-rule="evenodd"/><path d="M2795 1240 2794.24 1248.1C2792.34 1258.14 2787.58 1267.73 2779.96 1275.5L2770 1283 2778.04 1265.96C2780.51 1260.01 2782.69 1253.91 2784.59 1247.69L2786.26 1241.07 2787.07 1240.78 2795 1240Z" fill="#47D45A" fill-rule="evenodd"/><path d="M2845 1240 2844.24 1248.12C2842.33 1258.19 2837.55 1267.8 2829.9 1275.6 2822.26 1283.4 2812.83 1288.27 2802.96 1290.22L2795 1291 2795.76 1282.88C2797.67 1272.81 2802.45 1263.2 2810.1 1255.4 2817.74 1247.6 2827.17 1242.73 2837.04 1240.78L2845 1240Z" fill="#47D45A" fill-rule="evenodd"/><path d="M2895 1240 2894.24 1248.12C2892.33 1258.19 2887.55 1267.8 2879.9 1275.6 2872.26 1283.4 2862.83 1288.27 2852.96 1290.22L2845 1291 2845.76 1282.88C2847.67 1272.81 2852.45 1263.2 2860.1 1255.4 2867.74 1247.6 2877.17 1242.73 2887.04 1240.78L2895 1240Z" fill="#47D45A" fill-rule="evenodd"/><path d="M2913.03 1254 2917.6 1263.35 2924 1280.6 2917.69 1285.19C2913.06 1287.59 2908.14 1289.27 2903.11 1290.23L2895 1291 2895.78 1283C2897.72 1273.08 2902.59 1263.61 2910.38 1255.92L2913.03 1254Z" fill="#47D45A" fill-rule="evenodd"/><path d="M2788 1290 2787.22 1298.12C2785.27 1308.19 2780.4 1317.8 2772.6 1325.6 2764.8 1333.4 2755.19 1338.27 2745.12 1340.22L2737 1341 2737.78 1332.88 2741.34 1322.73 2748.02 1315.38 2759.27 1300.33 2765.29 1295.9C2769.92 1293.46 2774.85 1291.75 2779.88 1290.78L2788 1290Z" fill="#47D45A" fill-rule="evenodd"/><path d="M2838 1290 2837.22 1298.12C2835.27 1308.19 2830.4 1317.8 2822.6 1325.6 2814.8 1333.4 2805.19 1338.27 2795.12 1340.22L2787 1341 2787.78 1332.88C2789.73 1322.81 2794.6 1313.2 2802.4 1305.4 2810.2 1297.6 2819.81 1292.73 2829.88 1290.78L2838 1290Z" fill="#47D45A" fill-rule="evenodd"/><path d="M2888 1290 2887.22 1298.12C2885.27 1308.19 2880.4 1317.8 2872.6 1325.6 2864.8 1333.4 2855.19 1338.27 2845.12 1340.22L2837 1341 2837.78 1332.88C2839.73 1322.81 2844.6 1313.2 2852.4 1305.4 2860.2 1297.6 2869.81 1292.73 2879.88 1290.78L2888 1290Z" fill="#47D45A" fill-rule="evenodd"/><path d="M2926.63 1292 2928.82 1300.46 2931 1314.66 2922.88 1325.59C2915.02 1333.39 2905.33 1338.27 2895.18 1340.22L2887 1341 2887.78 1332.87C2889.75 1322.8 2894.66 1313.18 2902.52 1305.38 2906.45 1301.48 2910.83 1298.31 2915.51 1295.87L2926.63 1292Z" fill="#47D45A" fill-rule="evenodd"/><path d="M2731 1340 2730.22 1348.12C2728.27 1358.19 2723.4 1367.8 2715.6 1375.6 2707.8 1383.4 2698.19 1388.27 2688.12 1390.22L2680 1391 2680.78 1382.88C2681.75 1377.85 2683.46 1372.92 2685.9 1368.29L2689.17 1363.85 2689.71 1363.59C2701.01 1357.45 2711.66 1350.24 2721.51 1342.11L2722.99 1340.77 2731 1340Z" fill="#47D45A" fill-rule="evenodd"/><path d="M2781 1340 2780.22 1348.12C2778.27 1358.19 2773.4 1367.8 2765.6 1375.6 2757.8 1383.4 2748.19 1388.27 2738.12 1390.22L2730 1391 2730.78 1382.88C2732.73 1372.81 2737.6 1363.2 2745.4 1355.4 2753.2 1347.6 2762.81 1342.73 2772.88 1340.78L2781 1340Z" fill="#47D45A" fill-rule="evenodd"/><path d="M2831 1340 2830.22 1348.12C2828.27 1358.19 2823.4 1367.8 2815.6 1375.6 2807.8 1383.4 2798.19 1388.27 2788.12 1390.22L2780 1391 2780.78 1382.88C2782.73 1372.81 2787.6 1363.2 2795.4 1355.4 2803.2 1347.6 2812.81 1342.73 2822.88 1340.78L2831 1340Z" fill="#47D45A" fill-rule="evenodd"/><path d="M2881 1340 2880.22 1348.12C2878.27 1358.19 2873.4 1367.8 2865.6 1375.6 2857.8 1383.4 2848.19 1388.27 2838.12 1390.22L2830 1391 2830.78 1382.88C2832.73 1372.81 2837.6 1363.2 2845.4 1355.4 2853.2 1347.6 2862.81 1342.73 2872.88 1340.78L2881 1340Z" fill="#47D45A" fill-rule="evenodd"/><path d="M2931 1340 2930.22 1348.12C2928.27 1358.19 2923.4 1367.8 2915.6 1375.6 2907.8 1383.4 2898.19 1388.27 2888.12 1390.22L2880 1391 2880.78 1382.88C2882.73 1372.81 2887.6 1363.2 2895.4 1355.4 2903.2 1347.6 2912.81 1342.73 2922.88 1340.78L2931 1340Z" fill="#47D45A" fill-rule="evenodd"/><path d="M2666 1374 2664.93 1375.49C2657.28 1383.34 2647.85 1388.25 2637.97 1390.22L2630 1391 2630.63 1384.24 2635.01 1383.55C2641.38 1382.21 2647.63 1380.56 2653.76 1378.6L2666 1374Z" fill="#47D45A" fill-rule="evenodd"/><path d="M2539 1380 2554 1383.79 2551.87 1385.34 2541.25 1389 2539.15 1380.95 2539 1380Z" fill="#47D45A" fill-rule="evenodd"/><path d="M2580.38 1387 2594.7 1387.73 2595 1387.71 2587.87 1390.24 2580 1391 2580.38 1387Z" fill="#47D45A" fill-rule="evenodd"/><path d="M2623 1390 2622.22 1398.12C2620.27 1408.19 2615.4 1417.8 2607.6 1425.6 2599.8 1433.4 2590.19 1438.27 2580.12 1440.22L2572 1441 2572.78 1432.88C2574.73 1422.81 2579.6 1413.2 2587.4 1405.4 2595.2 1397.6 2604.81 1392.73 2614.88 1390.78L2623 1390Z" fill="#47D45A" fill-rule="evenodd"/><path d="M2673 1390 2672.22 1398.12C2670.27 1408.19 2665.4 1417.8 2657.6 1425.6 2649.8 1433.4 2640.19 1438.27 2630.12 1440.22L2622 1441 2622.78 1432.88C2624.73 1422.81 2629.6 1413.2 2637.4 1405.4 2645.2 1397.6 2654.81 1392.73 2664.88 1390.78L2673 1390Z" fill="#47D45A" fill-rule="evenodd"/><path d="M2723 1390 2722.24 1398.12C2720.33 1408.19 2715.55 1417.8 2707.9 1425.6 2700.26 1433.4 2690.83 1438.27 2680.96 1440.22L2673 1441 2673.76 1432.88C2675.67 1422.81 2680.45 1413.2 2688.1 1405.4 2695.74 1397.6 2705.17 1392.73 2715.04 1390.78L2723 1390Z" fill="#47D45A" fill-rule="evenodd"/><path d="M2774 1390 2773.22 1398.12C2771.27 1408.19 2766.4 1417.8 2758.6 1425.6 2750.8 1433.4 2741.19 1438.27 2731.12 1440.22L2723 1441 2723.78 1432.88C2725.73 1422.81 2730.6 1413.2 2738.4 1405.4 2746.2 1397.6 2755.81 1392.73 2765.88 1390.78L2774 1390Z" fill="#47D45A" fill-rule="evenodd"/><path d="M2824 1390 2823.22 1398.12C2821.27 1408.19 2816.4 1417.8 2808.6 1425.6 2800.8 1433.4 2791.19 1438.27 2781.12 1440.22L2773 1441 2773.78 1432.88C2775.73 1422.81 2780.6 1413.2 2788.4 1405.4 2796.2 1397.6 2805.81 1392.73 2815.88 1390.78L2824 1390Z" fill="#47D45A" fill-rule="evenodd"/><path d="M2874 1390 2873.22 1398.12C2871.27 1408.19 2866.4 1417.8 2858.6 1425.6 2850.8 1433.4 2841.19 1438.27 2831.12 1440.22L2823 1441 2823.78 1432.88C2825.73 1422.81 2830.6 1413.2 2838.4 1405.4 2846.2 1397.6 2855.81 1392.73 2865.88 1390.78L2874 1390Z" fill="#47D45A" fill-rule="evenodd"/><path d="M2924 1390 2923.22 1398.12C2921.27 1408.19 2916.4 1417.8 2908.6 1425.6 2900.8 1433.4 2891.19 1438.27 2881.12 1440.22L2873 1441 2873.78 1432.88C2875.73 1422.81 2880.6 1413.2 2888.4 1405.4 2896.2 1397.6 2905.81 1392.73 2915.88 1390.78L2924 1390Z" fill="#47D45A" fill-rule="evenodd"/><path d="M2573 1390 2572.21 1398.04C2570.25 1408.01 2565.33 1417.53 2557.47 1425.26L2555.06 1427 2550.51 1417.71 2544 1400.25 2550.1 1395.84C2554.77 1393.43 2559.73 1391.74 2564.81 1390.77L2573 1390Z" fill="#47D45A" fill-rule="evenodd"/><path d="M2566 1440 2565.42 1445 2562 1440.32 2566 1440Z" fill="#47D45A" fill-rule="evenodd"/><path d="M2666 1440 2665.22 1448.12C2663.27 1458.19 2658.4 1467.8 2650.6 1475.6 2642.8 1483.4 2633.19 1488.27 2623.12 1490.22L2615 1491 2615.78 1482.88C2617.73 1472.81 2622.6 1463.2 2630.4 1455.4 2638.2 1447.6 2647.81 1442.73 2657.88 1440.78L2666 1440Z" fill="#47D45A" fill-rule="evenodd"/><path d="M2716 1440 2715.22 1448.12C2713.27 1458.19 2708.4 1467.8 2700.6 1475.6 2692.8 1483.4 2683.19 1488.27 2673.12 1490.22L2665 1491 2665.78 1482.88C2667.73 1472.81 2672.6 1463.2 2680.4 1455.4 2688.2 1447.6 2697.81 1442.73 2707.88 1440.78L2716 1440Z" fill="#47D45A" fill-rule="evenodd"/><path d="M2766 1440 2765.22 1448.12C2763.27 1458.19 2758.4 1467.8 2750.6 1475.6 2742.8 1483.4 2733.19 1488.27 2723.12 1490.22L2715 1491 2715.78 1482.88C2717.73 1472.81 2722.6 1463.2 2730.4 1455.4 2738.2 1447.6 2747.81 1442.73 2757.88 1440.78L2766 1440Z" fill="#47D45A" fill-rule="evenodd"/><path d="M2816 1440 2815.24 1448.12C2813.33 1458.19 2808.55 1467.8 2800.9 1475.6 2793.26 1483.4 2783.83 1488.27 2773.96 1490.22L2766 1491 2766.76 1482.88C2768.67 1472.81 2773.45 1463.2 2781.1 1455.4 2788.74 1447.6 2798.17 1442.73 2808.04 1440.78L2816 1440Z" fill="#47D45A" fill-rule="evenodd"/><path d="M2867 1440 2866.22 1448.12C2864.27 1458.19 2859.4 1467.8 2851.6 1475.6 2843.8 1483.4 2834.19 1488.27 2824.12 1490.22L2816 1491 2816.78 1482.88C2818.73 1472.81 2823.6 1463.2 2831.4 1455.4 2839.2 1447.6 2848.81 1442.73 2858.88 1440.78L2867 1440Z" fill="#47D45A" fill-rule="evenodd"/><path d="M2616 1440 2615.22 1448.09C2613.27 1458.13 2608.39 1467.71 2600.58 1475.49L2593.07 1481 2580.52 1467.24 2576 1461.23 2580.36 1455.35C2588.16 1447.58 2597.79 1442.72 2607.87 1440.78L2616 1440Z" fill="#47D45A" fill-rule="evenodd"/><path d="M2905 1442 2898.98 1451.85C2891.84 1462.37 2883.71 1472.17 2874.72 1481.12L2866 1489 2866.63 1482.49C2868.57 1472.51 2873.42 1462.98 2881.19 1455.25 2885.08 1451.38 2889.42 1448.24 2894.04 1445.83L2905 1442Z" fill="#47D45A" fill-rule="evenodd"/><path d="M2609 1488 2608.39 1494 2607.77 1493.56 2602 1488.63 2609 1488Z" fill="#47D45A" fill-rule="evenodd"/><path d="M2659 1488 2658.21 1496.19C2657.22 1501.26 2655.5 1506.22 2653.03 1510.9L2647.03 1519 2639.13 1515.21C2633.41 1512.12 2627.85 1508.76 2622.47 1505.14L2622 1504.79 2622.94 1503.52C2630.84 1495.66 2640.58 1490.75 2650.77 1488.78L2659 1488Z" fill="#47D45A" fill-rule="evenodd"/><path d="M2709 1488 2708.22 1496.12C2706.28 1506.19 2701.42 1515.81 2693.65 1523.61L2682.31 1532 2674.98 1530.11 2661 1524.98 2664.03 1516.29C2666.46 1511.66 2669.62 1507.3 2673.51 1503.4 2681.28 1495.6 2690.87 1490.73 2700.9 1488.78L2709 1488Z" fill="#47D45A" fill-rule="evenodd"/><path d="M2759 1488 2758.22 1496.09C2756.26 1506.13 2751.37 1515.71 2743.55 1523.48 2739.64 1527.36 2735.27 1530.52 2730.62 1532.95L2716.11 1538 2713.38 1537.86 2708 1537.05 2708.61 1530.73C2710.57 1520.7 2715.46 1511.12 2723.28 1503.34 2731.1 1495.57 2740.75 1490.72 2750.85 1488.78L2759 1488Z" fill="#47D45A" fill-rule="evenodd"/><path d="M2809 1488 2808.22 1496.22C2806.26 1506.41 2801.38 1516.13 2793.56 1524.03 2789.64 1527.97 2785.28 1531.18 2780.63 1533.64L2779.05 1534.2 2773.75 1535.58 2758 1538 2758.63 1531.39C2760.58 1521.2 2765.47 1511.47 2773.29 1503.58 2781.11 1495.69 2790.76 1490.76 2800.86 1488.79L2809 1488Z" fill="#47D45A" fill-rule="evenodd"/><path d="M2859 1488 2858.34 1494.93 2845.06 1504.92C2839.81 1508.49 2834.38 1511.81 2828.79 1514.86L2812 1523 2814.39 1516.15C2816.8 1511.53 2819.93 1507.2 2823.79 1503.32 2831.5 1495.56 2841.01 1490.71 2850.97 1488.77L2859 1488Z" fill="#47D45A" fill-rule="evenodd"/><text fill="#404040" font-family="Aharoni,Aharoni_MSFontService,sans-serif" font-weight="700" font-size="275" transform="matrix(1 0 0 1 1458.95 1886)">TreeShadeMapper</text></g></svg>