<svg width="969" height="334" xmlns="http://www.w3.org/2000/svg" xmlns:xlink="http://www.w3.org/1999/xlink" xml:space="preserve" overflow="hidden"><g transform="translate(-374 112)"><path d="M798 378 794.864 382.701 793 385 793.434 383.611C794.114 382.163 794.997 380.802 796.084 379.584L798 378Z" fill="#47D45A" fill-rule="evenodd" transform="matrix(1.00043 0 0 1 68.4566 -400)"/><path d="M750.5 288C778.287 288 801.47 307.882 806.832 334.313L806.875 334.596 805.693 334.29 802.407 336.734C800.159 339.002 798.754 341.798 798.192 344.726L797.968 347.088 800.309 346.861C801.76 346.578 803.179 346.082 804.516 345.373L807.845 342.897 808 346.002 807.961 346.784 804.031 348.174C802.694 348.883 801.439 349.804 800.315 350.938 798.067 353.206 796.662 356.002 796.1 358.93L795.876 361.292 798.217 361.065C801.12 360.498 803.892 359.081 806.14 356.813L807.18 355.39 806.832 357.692 805.907 361.32 801.939 362.724C800.602 363.432 799.347 364.353 798.223 365.487 795.975 367.755 794.57 370.551 794.008 373.479L793.784 375.841 796.125 375.615C797.577 375.331 798.995 374.835 800.332 374.126L801.108 373.549 801.06 373.65C800.175 375.293 799.213 376.889 798.18 378.432L798.113 378.521 796.131 379.996C795.007 381.13 794.094 382.395 793.392 383.744L792.942 385.036 791.159 387.016 787.503 390.368 787.471 390.371C784.568 390.938 781.796 392.355 779.548 394.623L777.753 397.079 772.882 399.446 771.195 400.069 773.621 396.75C774.324 395.401 774.816 393.97 775.097 392.506L775.321 390.144 772.98 390.371C770.077 390.938 767.305 392.355 765.057 394.623 762.809 396.891 761.404 399.687 760.842 402.615L760.803 403.024 756.379 403.705 750.588 404 752.674 403.262C754.011 402.553 755.266 401.632 756.39 400.498 758.638 398.23 760.043 395.434 760.605 392.506L760.83 390.144 758.488 390.371C755.586 390.938 752.814 392.355 750.566 394.623 748.318 396.891 746.912 399.687 746.35 402.615L746.239 403.787 744.621 403.705C742.688 403.507 740.783 403.212 738.912 402.826L738.806 402.799 741.899 400.498C744.147 398.23 745.552 395.434 746.114 392.506L746.338 390.144 743.997 390.371C741.094 390.938 738.322 392.355 736.074 394.623L733.824 397.702 734.423 401.662 733.401 401.397C709.995 394.053 693 372.03 693 346.002 693 313.969 718.744 288 750.5 288ZM795.769 332.507 791.632 333.97C790.295 334.679 789.04 335.6 787.916 336.734 785.668 339.002 784.263 341.798 783.701 344.726L783.476 347.088 785.818 346.861C788.721 346.294 791.492 344.877 793.74 342.609 795.989 340.342 797.394 337.545 797.956 334.617L798.131 332.777 796.677 332.553 795.769 332.507ZM796.088 346.46 793.747 346.686C790.844 347.253 788.072 348.67 785.824 350.938 783.576 353.206 782.171 356.002 781.609 358.93L781.384 361.292 783.726 361.065C786.629 360.498 789.4 359.081 791.648 356.813 793.897 354.546 795.302 351.749 795.864 348.821L796.088 346.46ZM793.996 361.009 791.655 361.235C788.752 361.802 785.98 363.22 783.732 365.487 781.484 367.755 780.079 370.551 779.517 373.479L779.293 375.841 781.634 375.615C784.537 375.048 787.308 373.63 789.557 371.363 791.805 369.095 793.21 366.299 793.772 363.371L793.996 361.009ZM791.904 375.517 789.563 375.744C786.66 376.311 783.888 377.728 781.64 379.996 779.392 382.263 777.987 385.059 777.425 387.988L777.201 390.349 779.542 390.123C782.445 389.556 785.217 388.139 787.465 385.871 789.713 383.603 791.118 380.807 791.68 377.879L791.904 375.517ZM783.642 332.749 779.209 333.432 777.158 333.964 777.141 333.97C775.804 334.679 774.549 335.6 773.425 336.734 771.177 339.002 769.771 341.798 769.209 344.726L768.985 347.088 771.326 346.861C774.229 346.294 777.001 344.877 779.249 342.609 781.497 340.341 782.902 337.545 783.464 334.617L783.642 332.749ZM781.597 346.46 779.256 346.686C776.353 347.253 773.581 348.67 771.333 350.938 769.085 353.206 767.68 356.002 767.118 358.93L766.893 361.292 769.234 361.065C772.137 360.498 774.909 359.081 777.157 356.813 779.405 354.546 780.81 351.749 781.372 348.821L781.597 346.46ZM779.505 361.009 777.164 361.235C774.261 361.802 771.489 363.22 769.241 365.487 766.993 367.755 765.588 370.551 765.026 373.479L764.801 375.841 767.142 375.615C770.045 375.048 772.817 373.63 775.065 371.363 777.313 369.095 778.718 366.299 779.28 363.371L779.505 361.009ZM777.413 375.517 775.072 375.744C772.169 376.311 769.397 377.728 767.149 379.996 764.901 382.263 763.496 385.059 762.934 387.988L762.709 390.349 765.051 390.123C767.953 389.556 770.725 388.139 772.973 385.871 775.221 383.603 776.626 380.807 777.189 377.879L777.413 375.517ZM768.168 336.932 763.39 339.254C761.76 340.147 760.178 341.117 758.649 342.159L754.677 345.155 754.494 347.088 756.835 346.861C759.738 346.294 762.51 344.877 764.758 342.609 765.882 341.475 766.795 340.209 767.498 338.861L768.168 336.932ZM767.105 346.46 764.764 346.686C761.861 347.253 759.089 348.67 756.841 350.938 754.593 353.206 753.188 356.002 752.626 358.93L752.402 361.292 754.743 361.065C757.646 360.498 760.418 359.081 762.666 356.813 764.914 354.546 766.319 351.749 766.881 348.821L767.105 346.46ZM765.014 361.009 762.672 361.235C759.769 361.802 756.998 363.22 754.749 365.487 752.501 367.755 751.096 370.551 750.534 373.479L750.31 375.841 752.651 375.615C755.554 375.048 758.326 373.63 760.574 371.363 762.822 369.095 764.227 366.299 764.789 363.371L765.014 361.009ZM762.922 375.517 760.58 375.744C757.677 376.311 754.906 377.728 752.658 379.996 750.409 382.263 749.004 385.059 748.442 387.988L748.218 390.349 750.559 390.123C753.462 389.556 756.234 388.139 758.482 385.871 760.73 383.603 762.135 380.807 762.697 377.879L762.922 375.517ZM752.561 347.022 750.139 349.242C747.537 351.866 745.184 354.74 743.118 357.826L741.414 360.654 744.459 359.577C745.796 358.868 747.051 357.947 748.175 356.813 750.423 354.546 751.828 351.749 752.39 348.821L752.561 347.022ZM750.522 361.009 748.181 361.235C745.278 361.802 742.506 363.22 740.258 365.487 738.01 367.755 736.605 370.551 736.043 373.479L735.819 375.841 738.16 375.615C741.063 375.048 743.835 373.63 746.083 371.363 748.331 369.095 749.736 366.299 750.298 363.371L750.522 361.009ZM748.43 375.517 746.089 375.744C743.186 376.311 740.414 377.728 738.166 379.996 735.918 382.263 734.513 385.059 733.951 387.988L733.727 390.349 736.068 390.123C738.971 389.556 741.743 388.139 743.991 385.871 746.239 383.603 747.644 380.807 748.206 377.879L748.43 375.517Z" fill="#47D45A" fill-rule="evenodd" transform="matrix(1.00043 0 0 1 68.4566 -400)"/><path d="M807 334 808.026 334.287 812 335.872 811.114 338.624C810.408 340.086 809.491 341.458 808.363 342.688L807.974 343 807.832 339.937 807 334Z" fill="#47D45A" fill-rule="evenodd" transform="matrix(1.00043 0 0 1 68.4566 -400)"/><path d="M816.567 338 818.988 339.134C820.687 340.03 822.335 341.005 823.929 342.051L824 342.103 823.696 342.503C821.354 344.78 818.465 346.203 815.44 346.773L813 347 813.234 344.628C813.527 343.158 814.039 341.721 814.771 340.367L816.567 338Z" fill="#47D45A" fill-rule="evenodd" transform="matrix(1.00043 0 0 1 68.4566 -400)"/><path d="M827.174 345 827.433 345.215 829 346.788 827 347 827.174 345Z" fill="#47D45A" fill-rule="evenodd" transform="matrix(1.00043 0 0 1 68.4566 -400)"/><path d="M811 346 810.802 348.38C810.554 349.856 810.12 351.298 809.5 352.657L808 355 808.462 351.516 808.689 346.327 808.934 346.228 811 346Z" fill="#47D45A" fill-rule="evenodd" transform="matrix(1.00043 0 0 1 68.4566 -400)"/><path d="M826 346 825.771 348.388C825.198 351.35 823.764 354.178 821.471 356.471 819.177 358.764 816.35 360.198 813.388 360.771L811 361 811.229 358.612C811.802 355.65 813.236 352.822 815.529 350.529 817.822 348.236 820.65 346.802 823.612 346.229L826 346Z" fill="#47D45A" fill-rule="evenodd" transform="matrix(1.00043 0 0 1 68.4566 -400)"/><path d="M831.901 349 835.704 353.066 837 354.75 835.658 356.52C833.323 358.788 830.445 360.206 827.431 360.774L825 361 825.233 358.637C825.817 355.708 827.275 352.911 829.61 350.642L831.901 349Z" fill="#47D45A" fill-rule="evenodd" transform="matrix(1.00043 0 0 1 68.4566 -400)"/><path d="M840.144 359 841 360.873 840 361 840.144 359Z" fill="#47D45A" fill-rule="evenodd" transform="matrix(1.00043 0 0 1 68.4566 -400)"/><path d="M809 361 808.757 363.26C808.147 366.062 806.624 368.737 804.187 370.907L801 373 803.573 368.244C804.362 366.584 805.062 364.883 805.669 363.145L806.203 361.298 806.462 361.217 809 361Z" fill="#47D45A" fill-rule="evenodd" transform="matrix(1.00043 0 0 1 68.4566 -400)"/><path d="M823 361 822.786 363.388C822.251 366.35 820.913 369.178 818.773 371.471 816.632 373.764 813.993 375.198 811.229 375.771L809 376 809.214 373.612C809.749 370.65 811.087 367.822 813.227 365.529 815.368 363.236 818.007 361.802 820.771 361.229L823 361Z" fill="#47D45A" fill-rule="evenodd" transform="matrix(1.00043 0 0 1 68.4566 -400)"/><path d="M838 361 837.771 363.388C837.198 366.35 835.764 369.178 833.471 371.471 831.177 373.764 828.35 375.198 825.388 375.771L823 376 823.229 373.612C823.802 370.65 825.236 367.822 827.529 365.529 829.822 363.236 832.65 361.802 835.612 361.229L838 361Z" fill="#47D45A" fill-rule="evenodd" transform="matrix(1.00043 0 0 1 68.4566 -400)"/><path d="M842.974 365 844.233 367.779 846 372.909 844.259 374.273C842.981 374.987 841.625 375.487 840.238 375.772L838 376 838.215 373.621C838.752 370.672 840.095 367.856 842.244 365.572L842.974 365Z" fill="#47D45A" fill-rule="evenodd" transform="matrix(1.00043 0 0 1 68.4566 -400)"/><path d="M807 375 806.771 377.388C806.198 380.35 804.764 383.178 802.471 385.471 800.177 387.764 797.35 389.198 794.388 389.771L792 390 792.229 387.612 793.276 384.627 795.242 382.463 798.551 378.038 800.32 376.734C801.684 376.017 803.131 375.516 804.612 375.229L807 375Z" fill="#47D45A" fill-rule="evenodd" transform="matrix(1.00043 0 0 1 68.4566 -400)"/><path d="M821 375 820.786 377.388C820.251 380.35 818.913 383.178 816.773 385.471 814.632 387.764 811.993 389.198 809.229 389.771L807 390 807.214 387.612C807.749 384.65 809.087 381.822 811.227 379.529 813.368 377.236 816.007 375.802 818.771 375.229L821 375Z" fill="#47D45A" fill-rule="evenodd" transform="matrix(1.00043 0 0 1 68.4566 -400)"/><path d="M836 375 835.771 377.388C835.198 380.35 833.764 383.178 831.471 385.471 829.177 387.764 826.35 389.198 823.388 389.771L821 390 821.229 387.612C821.802 384.65 823.236 381.822 825.529 379.529 827.822 377.236 830.65 375.802 833.612 375.229L836 375Z" fill="#47D45A" fill-rule="evenodd" transform="matrix(1.00043 0 0 1 68.4566 -400)"/><path d="M846.807 376 847.405 378.418 848 382.473 845.785 385.598C843.642 387.827 840.999 389.22 838.232 389.777L836 390 836.214 387.679C836.75 384.8 838.089 382.052 840.232 379.823 841.304 378.708 842.5 377.803 843.775 377.106L846.807 376Z" fill="#47D45A" fill-rule="evenodd" transform="matrix(1.00043 0 0 1 68.4566 -400)"/><path d="M790 390 789.771 392.388C789.198 395.35 787.764 398.178 785.471 400.471 783.177 402.764 780.35 404.198 777.388 404.771L775 405 775.229 402.612C775.516 401.131 776.017 399.684 776.734 398.32L777.697 397.013 777.856 396.937C781.18 395.131 784.311 393.013 787.208 390.622L787.644 390.226 790 390Z" fill="#47D45A" fill-rule="evenodd" transform="matrix(1.00043 0 0 1 68.4566 -400)"/><path d="M805 390 804.771 392.388C804.198 395.35 802.764 398.178 800.471 400.471 798.177 402.764 795.35 404.198 792.388 404.771L790 405 790.229 402.612C790.802 399.65 792.236 396.822 794.529 394.529 796.822 392.236 799.65 390.802 802.612 390.229L805 390Z" fill="#47D45A" fill-rule="evenodd" transform="matrix(1.00043 0 0 1 68.4566 -400)"/><path d="M819 390 818.771 392.388C818.198 395.35 816.764 398.178 814.471 400.471 812.177 402.764 809.35 404.198 806.388 404.771L804 405 804.229 402.612C804.802 399.65 806.236 396.822 808.529 394.529 810.822 392.236 813.65 390.802 816.612 390.229L819 390Z" fill="#47D45A" fill-rule="evenodd" transform="matrix(1.00043 0 0 1 68.4566 -400)"/><path d="M834 390 833.771 392.388C833.198 395.35 831.764 398.178 829.471 400.471 827.177 402.764 824.35 404.198 821.388 404.771L819 405 819.229 402.612C819.802 399.65 821.236 396.822 823.529 394.529 825.822 392.236 828.65 390.802 831.612 390.229L834 390Z" fill="#47D45A" fill-rule="evenodd" transform="matrix(1.00043 0 0 1 68.4566 -400)"/><path d="M848 390 847.786 392.388C847.251 395.35 845.913 398.178 843.773 400.471 841.632 402.764 838.993 404.198 836.229 404.771L834 405 834.214 402.612C834.749 399.65 836.087 396.822 838.227 394.529 840.368 392.236 843.007 390.802 845.771 390.229L848 390Z" fill="#47D45A" fill-rule="evenodd" transform="matrix(1.00043 0 0 1 68.4566 -400)"/><path d="M771 400 770.703 400.437C768.578 402.748 765.958 404.192 763.213 404.769L761 405 761.175 403.011 762.391 402.809C764.16 402.415 765.898 401.928 767.6 401.353L771 400Z" fill="#47D45A" fill-rule="evenodd" transform="matrix(1.00043 0 0 1 68.4566 -400)"/><path d="M734 401 739 402.264 738.289 402.78 734.751 404 734.049 401.315 734 401Z" fill="#47D45A" fill-rule="evenodd" transform="matrix(1.00043 0 0 1 68.4566 -400)"/><path d="M746.127 403 750.901 403.365 751 403.357 748.624 404.619 746 405 746.127 403Z" fill="#47D45A" fill-rule="evenodd" transform="matrix(1.00043 0 0 1 68.4566 -400)"/><path d="M759 404 758.771 406.388C758.198 409.35 756.764 412.178 754.471 414.471 752.177 416.764 749.35 418.198 746.388 418.771L744 419 744.229 416.612C744.802 413.65 746.236 410.822 748.529 408.529 750.822 406.236 753.65 404.802 756.612 404.229L759 404Z" fill="#47D45A" fill-rule="evenodd" transform="matrix(1.00043 0 0 1 68.4566 -400)"/><path d="M773 404 772.786 406.388C772.251 409.35 770.913 412.178 768.773 414.471 766.632 416.764 763.993 418.198 761.229 418.771L759 419 759.214 416.612C759.749 413.65 761.087 410.822 763.227 408.529 765.368 406.236 768.007 404.802 770.771 404.229L773 404Z" fill="#47D45A" fill-rule="evenodd" transform="matrix(1.00043 0 0 1 68.4566 -400)"/><path d="M788 404 787.771 406.388C787.198 409.35 785.764 412.178 783.471 414.471 781.177 416.764 778.35 418.198 775.388 418.771L773 419 773.229 416.612C773.802 413.65 775.236 410.822 777.529 408.529 779.822 406.236 782.65 404.802 785.612 404.229L788 404Z" fill="#47D45A" fill-rule="evenodd" transform="matrix(1.00043 0 0 1 68.4566 -400)"/><path d="M803 404 802.771 406.388C802.198 409.35 800.764 412.178 798.471 414.471 796.177 416.764 793.35 418.198 790.388 418.771L788 419 788.229 416.612C788.802 413.65 790.236 410.822 792.529 408.529 794.822 406.236 797.65 404.802 800.612 404.229L803 404Z" fill="#47D45A" fill-rule="evenodd" transform="matrix(1.00043 0 0 1 68.4566 -400)"/><path d="M817 404 816.771 406.388C816.198 409.35 814.764 412.178 812.471 414.471 810.177 416.764 807.35 418.198 804.388 418.771L802 419 802.229 416.612C802.802 413.65 804.236 410.822 806.529 408.529 808.822 406.236 811.65 404.802 814.612 404.229L817 404Z" fill="#47D45A" fill-rule="evenodd" transform="matrix(1.00043 0 0 1 68.4566 -400)"/><path d="M832 404 831.771 406.388C831.198 409.35 829.764 412.178 827.471 414.471 825.177 416.764 822.35 418.198 819.388 418.771L817 419 817.229 416.612C817.802 413.65 819.236 410.822 821.529 408.529 823.822 406.236 826.65 404.802 829.612 404.229L832 404Z" fill="#47D45A" fill-rule="evenodd" transform="matrix(1.00043 0 0 1 68.4566 -400)"/><path d="M846 404 845.786 406.388C845.251 409.35 843.913 412.178 841.773 414.471 839.632 416.764 836.993 418.198 834.229 418.771L832 419 832.214 416.612C832.749 413.65 834.087 410.822 836.227 408.529 838.368 406.236 841.007 404.802 843.771 404.229L846 404Z" fill="#47D45A" fill-rule="evenodd" transform="matrix(1.00043 0 0 1 68.4566 -400)"/><path d="M744 404 743.783 406.391C743.241 409.355 741.885 412.186 739.716 414.482L739.052 415 737.795 412.239 736 407.048 737.682 405.736C738.972 405.018 740.34 404.516 741.741 404.229L744 404Z" fill="#47D45A" fill-rule="evenodd" transform="matrix(1.00043 0 0 1 68.4566 -400)"/><path d="M742 419 741.856 420 741 419.064 742 419Z" fill="#47D45A" fill-rule="evenodd" transform="matrix(1.00043 0 0 1 68.4566 -400)"/><path d="M771 419 770.786 421.388C770.251 424.35 768.913 427.178 766.773 429.471 764.632 431.764 761.993 433.198 759.229 433.771L757 434 757.214 431.612C757.749 428.65 759.087 425.822 761.227 423.529 763.368 421.236 766.007 419.802 768.771 419.229L771 419Z" fill="#47D45A" fill-rule="evenodd" transform="matrix(1.00043 0 0 1 68.4566 -400)"/><path d="M786 419 785.771 421.388C785.198 424.35 783.764 427.178 781.471 429.471 779.177 431.764 776.35 433.198 773.388 433.771L771 434 771.229 431.612C771.802 428.65 773.236 425.822 775.529 423.529 777.822 421.236 780.65 419.802 783.612 419.229L786 419Z" fill="#47D45A" fill-rule="evenodd" transform="matrix(1.00043 0 0 1 68.4566 -400)"/><path d="M800 419 799.786 421.388C799.251 424.35 797.913 427.178 795.773 429.471 793.632 431.764 790.993 433.198 788.229 433.771L786 434 786.214 431.612C786.749 428.65 788.087 425.822 790.227 423.529 792.368 421.236 795.007 419.802 797.771 419.229L800 419Z" fill="#47D45A" fill-rule="evenodd" transform="matrix(1.00043 0 0 1 68.4566 -400)"/><path d="M815 419 814.771 421.388C814.198 424.35 812.764 427.178 810.471 429.471 808.177 431.764 805.35 433.198 802.388 433.771L800 434 800.229 431.612C800.802 428.65 802.236 425.822 804.529 423.529 806.822 421.236 809.65 419.802 812.612 419.229L815 419Z" fill="#47D45A" fill-rule="evenodd" transform="matrix(1.00043 0 0 1 68.4566 -400)"/><path d="M830 419 829.771 421.388C829.198 424.35 827.764 427.178 825.471 429.471 823.177 431.764 820.35 433.198 817.388 433.771L815 434 815.229 431.612C815.802 428.65 817.236 425.822 819.529 423.529 821.822 421.236 824.65 419.802 827.612 419.229L830 419Z" fill="#47D45A" fill-rule="evenodd" transform="matrix(1.00043 0 0 1 68.4566 -400)"/><path d="M757 419 756.766 421.369C756.181 424.307 754.717 427.112 752.375 429.387L750.122 431 746.355 426.974 745 425.214 746.307 423.493C748.649 421.218 751.537 419.796 754.561 419.227L757 419Z" fill="#47D45A" fill-rule="evenodd" transform="matrix(1.00043 0 0 1 68.4566 -400)"/><path d="M841 419 839.149 421.935C836.951 425.068 834.449 427.987 831.683 430.651L829 433 829.193 431.061C829.791 428.088 831.285 425.248 833.675 422.946 834.87 421.795 836.205 420.859 837.626 420.14L841 419Z" fill="#47D45A" fill-rule="evenodd" transform="matrix(1.00043 0 0 1 68.4566 -400)"/><path d="M755 433 754.825 435 754.648 434.854 753 433.21 755 433Z" fill="#47D45A" fill-rule="evenodd" transform="matrix(1.00043 0 0 1 68.4566 -400)"/><path d="M769 433 768.787 435.377C768.52 436.85 768.053 438.29 767.386 439.647L765.764 442 763.63 440.901C762.082 440.002 760.58 439.026 759.128 437.977L759 437.875 759.254 437.507C761.388 435.225 764.021 433.798 766.777 433.228L769 433Z" fill="#47D45A" fill-rule="evenodd" transform="matrix(1.00043 0 0 1 68.4566 -400)"/><path d="M784 433 783.774 435.4C783.207 438.375 781.79 441.217 779.523 443.521L776.214 446 774.078 445.442 770 443.925 770.885 441.36C771.594 439.989 772.515 438.703 773.648 437.551 775.916 435.246 778.711 433.806 781.639 433.23L784 433Z" fill="#47D45A" fill-rule="evenodd" transform="matrix(1.00043 0 0 1 68.4566 -400)"/><path d="M798 433 797.786 435.428C797.249 438.438 795.906 441.312 793.759 443.643 792.685 444.809 791.486 445.756 790.209 446.484L786.226 448 785.476 447.959 784 447.714 784.167 445.819C784.704 442.809 786.047 439.935 788.194 437.603 790.342 435.272 792.99 433.815 795.763 433.233L798 433Z" fill="#47D45A" fill-rule="evenodd" transform="matrix(1.00043 0 0 1 68.4566 -400)"/><path d="M813 433 812.77 435.301C812.195 438.154 810.758 440.878 808.457 443.087 807.307 444.192 806.023 445.089 804.655 445.78L804.192 445.936 802.631 446.321 798 447 798.185 445.149C798.76 442.296 800.197 439.572 802.498 437.363 804.798 435.154 807.634 433.773 810.604 433.22L813 433Z" fill="#47D45A" fill-rule="evenodd" transform="matrix(1.00043 0 0 1 68.4566 -400)"/><path d="M828 433 827.803 434.98 823.847 437.835C822.284 438.854 820.667 439.802 819.002 440.675L814 443 814.712 441.042C815.429 439.724 816.363 438.486 817.511 437.378 819.809 435.161 822.641 433.775 825.608 433.221L828 433Z" fill="#47D45A" fill-rule="evenodd" transform="matrix(1.00043 0 0 1 68.4566 -400)"/><text fill="#404040" font-family="Aharoni,Aharoni_MSFontService,sans-serif" font-weight="700" font-size="80" transform="matrix(1.00043 0 0 1 488.802 148)">TreeShadeMapper</text></g></svg>