<svg width="591" height="248" xmlns="http://www.w3.org/2000/svg" xmlns:xlink="http://www.w3.org/1999/xlink" xml:space="preserve" overflow="hidden"><defs><clipPath id="clip0"><rect x="-169" y="60" width="591" height="248"/></clipPath></defs><g clip-path="url(#clip0)" transform="translate(169 -60)"><path d="M594.703 279.947 592.38 283.429 591 285.132 591.321 284.103C591.825 283.03 592.479 282.023 593.284 281.12L594.703 279.947Z" fill="#47D45A" fill-rule="evenodd" transform="matrix(1 0 0 1.00258 -447.466 -153.844)"/><path d="M559.154 213.293C579.912 213.293 597.231 228.018 601.237 247.593L601.268 247.802 600.386 247.576 597.931 249.386C596.252 251.065 595.202 253.136 594.782 255.305L594.614 257.054 596.363 256.886C597.448 256.676 598.507 256.309 599.507 255.784L601.993 253.95 602.109 256.25 602.08 256.829 599.144 257.858C598.145 258.383 597.208 259.065 596.369 259.905 594.689 261.585 593.64 263.656 593.22 265.824L593.051 267.573 594.801 267.405C596.969 266.985 599.04 265.936 600.72 264.256L601.497 263.202 601.237 264.907 600.546 267.594 597.582 268.634C596.583 269.158 595.645 269.84 594.805 270.68 593.126 272.36 592.076 274.431 591.657 276.599L591.489 278.348 593.238 278.181C594.322 277.971 595.382 277.603 596.38 277.078L596.96 276.651 596.925 276.726C596.263 277.943 595.545 279.125 594.773 280.267L594.723 280.333 593.243 281.426C592.403 282.265 591.721 283.202 591.196 284.201L590.86 285.158 589.528 286.625 586.797 289.107 586.773 289.109C584.605 289.529 582.533 290.579 580.854 292.258L579.513 294.077 575.874 295.83 574.614 296.292 576.426 293.834C576.952 292.835 577.319 291.775 577.528 290.691L577.697 288.941 575.947 289.109C573.779 289.529 571.708 290.579 570.028 292.258 568.349 293.938 567.3 296.009 566.88 298.177L566.85 298.48 563.546 298.984 559.22 299.203 560.778 298.656C561.777 298.131 562.714 297.449 563.554 296.609 565.234 294.93 566.283 292.859 566.703 290.691L566.87 288.941 565.122 289.109C562.953 289.529 560.883 290.579 559.203 292.258 557.524 293.938 556.474 296.009 556.054 298.177L555.971 299.045 554.762 298.984C553.318 298.838 551.895 298.619 550.497 298.334L550.418 298.314 552.729 296.609C554.408 294.93 555.458 292.859 555.878 290.691L556.045 288.941 554.297 289.109C552.128 289.529 550.057 290.579 548.378 292.258L546.696 294.539 547.144 297.471 546.381 297.275C528.895 291.836 516.199 275.526 516.199 256.25 516.199 232.526 535.43 213.293 559.154 213.293ZM592.971 246.255 589.882 247.339C588.883 247.864 587.945 248.546 587.105 249.386 585.426 251.065 584.376 253.136 583.957 255.305L583.789 257.054 585.538 256.886C587.706 256.466 589.777 255.416 591.456 253.737 593.136 252.058 594.185 249.986 594.605 247.818L594.736 246.455 593.65 246.289 592.971 246.255ZM593.21 256.589 591.461 256.756C589.293 257.176 587.222 258.226 585.542 259.905 583.864 261.585 582.813 263.656 582.393 265.824L582.226 267.573 583.975 267.405C586.144 266.985 588.215 265.936 589.893 264.256 591.573 262.577 592.623 260.506 593.043 258.337L593.21 256.589ZM591.647 267.364 589.899 267.531C587.73 267.951 585.659 269.001 583.98 270.68 582.3 272.36 581.251 274.431 580.831 276.599L580.663 278.348 582.413 278.181C584.581 277.761 586.652 276.711 588.331 275.032 590.011 273.352 591.06 271.282 591.48 269.113L591.647 267.364ZM590.085 278.108 588.336 278.277C586.168 278.696 584.097 279.746 582.417 281.426 580.737 283.105 579.688 285.175 579.268 287.344L579.101 289.093 580.849 288.926C583.018 288.506 585.089 287.456 586.768 285.777 588.448 284.097 589.497 282.026 589.917 279.858L590.085 278.108ZM583.912 246.434 580.601 246.94 579.069 247.334 579.056 247.339C578.057 247.864 577.12 248.546 576.28 249.386 574.6 251.065 573.551 253.136 573.131 255.305L572.963 257.054 574.712 256.886C576.88 256.466 578.951 255.416 580.631 253.737 582.311 252.057 583.36 249.986 583.78 247.818L583.912 246.434ZM582.385 256.589 580.636 256.756C578.468 257.176 576.396 258.226 574.717 259.905 573.037 261.585 571.988 263.656 571.568 265.824L571.401 267.573 573.149 267.405C575.318 266.985 577.388 265.936 579.068 264.256 580.748 262.577 581.797 260.506 582.217 258.337L582.385 256.589ZM580.822 267.364 579.073 267.531C576.904 267.951 574.833 269.001 573.154 270.68 571.475 272.36 570.425 274.431 570.005 276.599L569.838 278.348 571.587 278.181C573.755 277.761 575.826 276.711 577.505 275.032 579.185 273.352 580.235 271.282 580.655 269.113L580.822 267.364ZM579.259 278.108 577.51 278.277C575.341 278.696 573.271 279.746 571.592 281.426 569.912 283.105 568.863 285.175 568.443 287.344L568.275 289.093 570.024 288.926C572.192 288.506 574.263 287.456 575.943 285.777 577.622 284.097 578.672 282.026 579.092 279.858L579.259 278.108ZM572.353 249.532 568.783 251.252C567.566 251.913 566.384 252.632 565.242 253.403L562.275 255.622 562.138 257.054 563.887 256.886C566.055 256.466 568.126 255.416 569.805 253.737 570.645 252.897 571.327 251.959 571.852 250.961L572.353 249.532ZM571.559 256.589 569.81 256.756C567.641 257.176 565.571 258.226 563.892 259.905 562.212 261.585 561.163 263.656 560.743 265.824L560.575 267.573 562.324 267.405C564.492 266.985 566.563 265.936 568.243 264.256 569.922 262.577 570.972 260.506 571.391 258.337L571.559 256.589ZM569.997 267.364 568.247 267.531C566.079 267.951 564.008 269.001 562.328 270.68 560.649 272.36 559.6 274.431 559.18 276.599L559.012 278.348 560.761 278.181C562.93 277.761 565 276.711 566.68 275.032 568.359 273.352 569.409 271.282 569.828 269.113L569.997 267.364ZM568.434 278.108 566.685 278.277C564.516 278.696 562.445 279.746 560.766 281.426 559.087 283.105 558.037 285.175 557.617 287.344L557.449 289.093 559.199 288.926C561.367 288.506 563.438 287.456 565.117 285.777 566.796 284.097 567.846 282.026 568.266 279.858L568.434 278.108ZM560.694 257.005 558.885 258.649C556.941 260.592 555.183 262.721 553.639 265.006L552.367 267.101 554.641 266.303C555.64 265.778 556.578 265.096 557.417 264.256 559.096 262.577 560.146 260.506 560.566 258.337L560.694 257.005ZM559.17 267.364 557.422 267.531C555.253 267.951 553.183 269.001 551.503 270.68 549.823 272.36 548.774 274.431 548.354 276.599L548.187 278.348 549.936 278.181C552.104 277.761 554.175 276.711 555.854 275.032 557.534 273.352 558.583 271.282 559.003 269.113L559.17 267.364ZM557.608 278.108 555.859 278.277C553.691 278.696 551.62 279.746 549.94 281.426 548.261 283.105 547.211 285.175 546.791 287.344L546.624 289.093 548.372 288.926C550.541 288.506 552.612 287.456 554.291 285.777 555.971 284.097 557.02 282.026 557.44 279.858L557.608 278.108Z" fill="#47D45A" fill-rule="evenodd" transform="matrix(1 0 0 1.00258 -447.466 -153.844)"/><path d="M601.368 247.361 602.128 247.573 605.071 248.747 604.415 250.785C603.892 251.868 603.213 252.884 602.378 253.795L602.09 254.026 601.985 251.758 601.368 247.361Z" fill="#47D45A" fill-rule="evenodd" transform="matrix(1 0 0 1.00258 -447.466 -153.844)"/><path d="M607.713 250.323 609.506 251.163C610.764 251.827 611.985 252.549 613.165 253.323L613.218 253.362 612.993 253.658C611.258 255.345 609.119 256.398 606.878 256.821L605.071 256.989 605.245 255.232C605.462 254.143 605.841 253.079 606.383 252.076L607.713 250.323Z" fill="#47D45A" fill-rule="evenodd" transform="matrix(1 0 0 1.00258 -447.466 -153.844)"/><path d="M616.309 255.508 616.501 255.667 617.662 256.832 616.18 256.989 616.309 255.508Z" fill="#47D45A" fill-rule="evenodd" transform="matrix(1 0 0 1.00258 -447.466 -153.844)"/><path d="M603.59 256.248 603.444 258.011C603.26 259.104 602.938 260.172 602.479 261.178L601.368 262.914 601.711 260.333 601.879 256.49 602.06 256.417 603.59 256.248Z" fill="#47D45A" fill-rule="evenodd" transform="matrix(1 0 0 1.00258 -447.466 -153.844)"/><path d="M614.699 256.248 614.53 258.017C614.105 260.21 613.043 262.305 611.345 264.003 609.646 265.701 607.552 266.763 605.359 267.188L603.59 267.357 603.76 265.589C604.184 263.395 605.246 261.3 606.944 259.602 608.643 257.904 610.737 256.842 612.931 256.418L614.699 256.248Z" fill="#47D45A" fill-rule="evenodd" transform="matrix(1 0 0 1.00258 -447.466 -153.844)"/><path d="M619.384 258.47 621.966 261.481 622.846 262.728 621.934 264.039C620.35 265.719 618.396 266.769 616.349 267.19L614.699 267.357 614.858 265.607C615.253 263.438 616.244 261.366 617.829 259.686L619.384 258.47Z" fill="#47D45A" fill-rule="evenodd" transform="matrix(1 0 0 1.00258 -447.466 -153.844)"/><path d="M625.174 265.876 625.808 267.263 625.068 267.357 625.174 265.876Z" fill="#47D45A" fill-rule="evenodd" transform="matrix(1 0 0 1.00258 -447.466 -153.844)"/><path d="M602.109 267.357 601.951 269.031C601.557 271.106 600.569 273.087 598.99 274.694L596.925 276.244 598.592 272.722C599.103 271.493 599.557 270.233 599.951 268.946L600.296 267.578 600.464 267.518 602.109 267.357Z" fill="#47D45A" fill-rule="evenodd" transform="matrix(1 0 0 1.00258 -447.466 -153.844)"/><path d="M613.218 267.357 613.048 269.126C612.624 271.319 611.562 273.414 609.864 275.112 608.165 276.81 606.071 277.872 603.878 278.297L602.109 278.466 602.279 276.698C602.703 274.504 603.765 272.41 605.463 270.711 607.161 269.013 609.256 267.951 611.449 267.527L613.218 267.357Z" fill="#47D45A" fill-rule="evenodd" transform="matrix(1 0 0 1.00258 -447.466 -153.844)"/><path d="M623.586 267.357 623.428 269.126C623.032 271.319 622.041 273.414 620.456 275.112 618.87 276.81 616.916 277.872 614.869 278.297L613.218 278.466 613.377 276.698C613.773 274.504 614.764 272.41 616.349 270.711 617.934 269.013 619.889 267.951 621.936 267.527L623.586 267.357Z" fill="#47D45A" fill-rule="evenodd" transform="matrix(1 0 0 1.00258 -447.466 -153.844)"/><path d="M627.731 270.32 628.78 272.378 630.252 276.177 628.802 277.187C627.737 277.716 626.607 278.086 625.451 278.297L623.586 278.466 623.765 276.704C624.213 274.52 625.332 272.435 627.122 270.743L627.731 270.32Z" fill="#47D45A" fill-rule="evenodd" transform="matrix(1 0 0 1.00258 -447.466 -153.844)"/><path d="M600.628 277.726 600.458 279.494C600.034 281.688 598.972 283.782 597.274 285.48 595.575 287.179 593.481 288.241 591.287 288.665L589.519 288.835 589.688 287.066 590.464 284.855 591.92 283.253 594.37 279.975 595.681 279.01C596.691 278.479 597.762 278.108 598.859 277.895L600.628 277.726Z" fill="#47D45A" fill-rule="evenodd" transform="matrix(1 0 0 1.00258 -447.466 -153.844)"/><path d="M611.737 277.726 611.567 279.494C611.143 281.688 610.081 283.782 608.383 285.48 606.684 287.179 604.59 288.241 602.396 288.665L600.628 288.835 600.797 287.066C601.222 284.872 602.284 282.778 603.982 281.08 605.68 279.382 607.775 278.32 609.968 277.895L611.737 277.726Z" fill="#47D45A" fill-rule="evenodd" transform="matrix(1 0 0 1.00258 -447.466 -153.844)"/><path d="M622.105 277.726 621.936 279.494C621.511 281.688 620.449 283.782 618.751 285.48 617.052 287.179 614.958 288.241 612.765 288.665L610.996 288.835 611.166 287.066C611.59 284.872 612.652 282.778 614.35 281.08 616.049 279.382 618.143 278.32 620.337 277.895L622.105 277.726Z" fill="#47D45A" fill-rule="evenodd" transform="matrix(1 0 0 1.00258 -447.466 -153.844)"/><path d="M630.776 278.466 631.255 280.257 631.733 283.26 629.956 285.574C628.237 287.225 626.116 288.257 623.896 288.669L622.105 288.835 622.277 287.116C622.707 284.983 623.781 282.948 625.501 281.297 626.361 280.472 627.321 279.801 628.343 279.285L630.776 278.466Z" fill="#47D45A" fill-rule="evenodd" transform="matrix(1 0 0 1.00258 -447.466 -153.844)"/><path d="M588.038 288.835 587.879 290.603C587.483 292.797 586.492 294.891 584.907 296.589 583.321 298.288 581.367 299.35 579.32 299.774L577.669 299.944 577.828 298.175C578.025 297.078 578.372 296.007 578.867 294.996L579.533 294.028 579.643 293.972C581.941 292.635 584.105 291.066 586.108 289.295L586.409 289.002 588.038 288.835Z" fill="#47D45A" fill-rule="evenodd" transform="matrix(1 0 0 1.00258 -447.466 -153.844)"/><path d="M599.147 288.835 598.977 290.603C598.553 292.797 597.491 294.891 595.792 296.589 594.093 298.288 592 299.35 589.806 299.774L588.038 299.944 588.207 298.175C588.632 295.981 589.694 293.887 591.392 292.189 593.09 290.491 595.184 289.429 597.378 289.004L599.147 288.835Z" fill="#47D45A" fill-rule="evenodd" transform="matrix(1 0 0 1.00258 -447.466 -153.844)"/><path d="M610.256 288.835 610.086 290.603C609.662 292.797 608.6 294.891 606.901 296.589 605.203 298.288 603.109 299.35 600.915 299.774L599.147 299.944 599.316 298.175C599.741 295.981 600.803 293.887 602.501 292.189 604.199 290.491 606.293 289.429 608.487 289.004L610.256 288.835Z" fill="#47D45A" fill-rule="evenodd" transform="matrix(1 0 0 1.00258 -447.466 -153.844)"/><path d="M620.624 288.835 620.454 290.603C620.03 292.797 618.968 294.891 617.27 296.589 615.571 298.288 613.477 299.35 611.284 299.774L609.515 299.944 609.685 298.175C610.109 295.981 611.171 293.887 612.869 292.189 614.567 290.491 616.662 289.429 618.855 289.004L620.624 288.835Z" fill="#47D45A" fill-rule="evenodd" transform="matrix(1 0 0 1.00258 -447.466 -153.844)"/><path d="M631.733 288.835 631.563 290.603C631.139 292.797 630.077 294.891 628.379 296.589 626.68 298.288 624.586 299.35 622.393 299.774L620.624 299.944 620.794 298.175C621.218 295.981 622.28 293.887 623.978 292.189 625.676 290.491 627.771 289.429 629.964 289.004L631.733 288.835Z" fill="#47D45A" fill-rule="evenodd" transform="matrix(1 0 0 1.00258 -447.466 -153.844)"/><path d="M574.707 296.241 574.465 296.564C572.734 298.276 570.599 299.345 568.364 299.773L566.56 299.944 566.703 298.471 567.693 298.321C569.134 298.029 570.55 297.668 571.937 297.243L574.707 296.241Z" fill="#47D45A" fill-rule="evenodd" transform="matrix(1 0 0 1.00258 -447.466 -153.844)"/><path d="M547.305 296.981 550.267 297.917 549.846 298.299 547.75 299.203 547.333 297.214 547.305 296.981Z" fill="#47D45A" fill-rule="evenodd" transform="matrix(1 0 0 1.00258 -447.466 -153.844)"/><path d="M555.545 298.462 559.081 298.733 559.154 298.727 557.394 299.661 555.451 299.944 555.545 298.462Z" fill="#47D45A" fill-rule="evenodd" transform="matrix(1 0 0 1.00258 -447.466 -153.844)"/><path d="M565.079 299.203 564.909 300.972C564.485 303.165 563.423 305.26 561.725 306.958 560.026 308.656 557.932 309.718 555.738 310.142L553.97 310.312 554.14 308.543C554.564 306.35 555.626 304.255 557.324 302.557 559.022 300.859 561.117 299.797 563.31 299.373L565.079 299.203Z" fill="#47D45A" fill-rule="evenodd" transform="matrix(1 0 0 1.00258 -447.466 -153.844)"/><path d="M576.188 299.203 576.018 300.972C575.594 303.165 574.532 305.26 572.834 306.958 571.135 308.656 569.041 309.718 566.847 310.142L565.079 310.312 565.249 308.543C565.673 306.35 566.735 304.255 568.433 302.557 570.131 300.859 572.226 299.797 574.419 299.373L576.188 299.203Z" fill="#47D45A" fill-rule="evenodd" transform="matrix(1 0 0 1.00258 -447.466 -153.844)"/><path d="M586.556 299.203 586.387 300.972C585.962 303.165 584.9 305.26 583.202 306.958 581.503 308.656 579.41 309.718 577.216 310.142L575.447 310.312 575.617 308.543C576.041 306.35 577.103 304.255 578.802 302.557 580.5 300.859 582.594 299.797 584.788 299.373L586.556 299.203Z" fill="#47D45A" fill-rule="evenodd" transform="matrix(1 0 0 1.00258 -447.466 -153.844)"/><path d="M597.665 299.203 597.496 300.972C597.071 303.165 596.009 305.26 594.311 306.958 592.612 308.656 590.519 309.718 588.325 310.142L586.556 310.312 586.726 308.543C587.15 306.35 588.212 304.255 589.911 302.557 591.609 300.859 593.703 299.797 595.897 299.373L597.665 299.203Z" fill="#47D45A" fill-rule="evenodd" transform="matrix(1 0 0 1.00258 -447.466 -153.844)"/><path d="M608.034 299.203 607.875 300.972C607.479 303.165 606.488 305.26 604.903 306.958 603.318 308.656 601.363 309.718 599.316 310.142L597.665 310.312 597.824 308.543C598.22 306.35 599.211 304.255 600.796 302.557 602.382 300.859 604.336 299.797 606.383 299.373L608.034 299.203Z" fill="#47D45A" fill-rule="evenodd" transform="matrix(1 0 0 1.00258 -447.466 -153.844)"/><path d="M619.143 299.203 618.973 300.972C618.549 303.165 617.487 305.26 615.789 306.958 614.09 308.656 611.996 309.718 609.802 310.142L608.034 310.312 608.203 308.543C608.628 306.35 609.69 304.255 611.388 302.557 613.086 300.859 615.181 299.797 617.374 299.373L619.143 299.203Z" fill="#47D45A" fill-rule="evenodd" transform="matrix(1 0 0 1.00258 -447.466 -153.844)"/><path d="M630.252 299.203 630.082 300.972C629.658 303.165 628.596 305.26 626.898 306.958 625.199 308.656 623.105 309.718 620.911 310.142L619.143 310.312 619.312 308.543C619.737 306.35 620.799 304.255 622.497 302.557 624.195 300.859 626.29 299.797 628.483 299.373L630.252 299.203Z" fill="#47D45A" fill-rule="evenodd" transform="matrix(1 0 0 1.00258 -447.466 -153.844)"/><path d="M554.711 299.203 554.53 300.974C554.078 303.169 552.949 305.266 551.142 306.966L550.588 307.35 549.541 305.305 548.045 301.46 549.446 300.489C550.521 299.957 551.661 299.585 552.828 299.373L554.711 299.203Z" fill="#47D45A" fill-rule="evenodd" transform="matrix(1 0 0 1.00258 -447.466 -153.844)"/><path d="M552.489 310.312 552.382 311.053 551.748 310.359 552.489 310.312Z" fill="#47D45A" fill-rule="evenodd" transform="matrix(1 0 0 1.00258 -447.466 -153.844)"/><path d="M574.707 310.312 574.537 312.081C574.113 314.274 573.051 316.369 571.353 318.067 569.654 319.765 567.56 320.827 565.366 321.251L563.598 321.421 563.767 319.652C564.192 317.459 565.254 315.364 566.952 313.666 568.65 311.968 570.745 310.906 572.938 310.482L574.707 310.312Z" fill="#47D45A" fill-rule="evenodd" transform="matrix(1 0 0 1.00258 -447.466 -153.844)"/><path d="M585.075 310.312 584.906 312.081C584.481 314.274 583.419 316.369 581.721 318.067 580.022 319.765 577.928 320.827 575.735 321.251L573.966 321.421 574.136 319.652C574.56 317.459 575.622 315.364 577.32 313.666 579.019 311.968 581.113 310.906 583.307 310.482L585.075 310.312Z" fill="#47D45A" fill-rule="evenodd" transform="matrix(1 0 0 1.00258 -447.466 -153.844)"/><path d="M596.184 310.312 596.015 312.081C595.59 314.274 594.528 316.369 592.83 318.067 591.131 319.765 589.037 320.827 586.844 321.251L585.075 321.421 585.245 319.652C585.669 317.459 586.731 315.364 588.429 313.666 590.128 311.968 592.222 310.906 594.416 310.482L596.184 310.312Z" fill="#47D45A" fill-rule="evenodd" transform="matrix(1 0 0 1.00258 -447.466 -153.844)"/><path d="M606.553 310.312 606.394 312.081C605.998 314.274 605.007 316.369 603.422 318.067 601.836 319.765 599.882 320.827 597.835 321.251L596.184 321.421 596.343 319.652C596.739 317.459 597.73 315.364 599.315 313.666 600.9 311.968 602.855 310.906 604.902 310.482L606.553 310.312Z" fill="#47D45A" fill-rule="evenodd" transform="matrix(1 0 0 1.00258 -447.466 -153.844)"/><path d="M617.662 310.312 617.492 312.081C617.068 314.274 616.006 316.369 614.307 318.067 612.609 319.765 610.515 320.827 608.321 321.251L606.553 321.421 606.722 319.652C607.147 317.459 608.209 315.364 609.907 313.666 611.605 311.968 613.699 310.906 615.893 310.482L617.662 310.312Z" fill="#47D45A" fill-rule="evenodd" transform="matrix(1 0 0 1.00258 -447.466 -153.844)"/><path d="M563.598 310.312 563.424 312.066C562.991 314.242 561.907 316.32 560.172 318.005L558.504 319.199 555.714 316.218 554.711 314.914 555.678 313.64C557.413 311.955 559.552 310.902 561.791 310.48L563.598 310.312Z" fill="#47D45A" fill-rule="evenodd" transform="matrix(1 0 0 1.00258 -447.466 -153.844)"/><path d="M625.808 310.312 624.551 312.486C623.06 314.806 621.361 316.968 619.483 318.941L617.662 320.68 617.793 319.244C618.199 317.043 619.212 314.939 620.835 313.234 621.647 312.382 622.553 311.689 623.518 311.156L625.808 310.312Z" fill="#47D45A" fill-rule="evenodd" transform="matrix(1 0 0 1.00258 -447.466 -153.844)"/><path d="M562.117 320.68 561.987 322.162 561.856 322.054 560.635 320.836 562.117 320.68Z" fill="#47D45A" fill-rule="evenodd" transform="matrix(1 0 0 1.00258 -447.466 -153.844)"/><path d="M572.485 320.68 572.327 322.441C572.129 323.532 571.784 324.598 571.29 325.603L570.088 327.346 568.508 326.532C567.361 325.866 566.249 325.143 565.174 324.366L565.079 324.291 565.267 324.018C566.847 322.328 568.797 321.271 570.839 320.849L572.485 320.68Z" fill="#47D45A" fill-rule="evenodd" transform="matrix(1 0 0 1.00258 -447.466 -153.844)"/><path d="M583.594 320.68 583.427 322.458C583.007 324.661 581.957 326.766 580.278 328.472L577.828 330.308 576.246 329.895 573.226 328.772 573.881 326.872C574.406 325.857 575.088 324.904 575.927 324.051 577.607 322.344 579.677 321.277 581.845 320.851L583.594 320.68Z" fill="#47D45A" fill-rule="evenodd" transform="matrix(1 0 0 1.00258 -447.466 -153.844)"/><path d="M594.703 320.68 594.533 322.479C594.107 324.708 593.042 326.836 591.338 328.563 590.485 329.426 589.534 330.128 588.52 330.667L585.36 331.789 584.765 331.759 583.594 331.578 583.727 330.174C584.153 327.945 585.218 325.816 586.922 324.089 588.626 322.363 590.727 321.284 592.929 320.853L594.703 320.68Z" fill="#47D45A" fill-rule="evenodd" transform="matrix(1 0 0 1.00258 -447.466 -153.844)"/><path d="M605.071 320.68 604.901 322.385C604.475 324.497 603.411 326.515 601.707 328.151 600.855 328.969 599.904 329.634 598.891 330.145L598.548 330.261 597.392 330.546 593.962 331.049 594.099 329.678C594.525 327.565 595.589 325.548 597.294 323.912 598.997 322.276 601.097 321.253 603.297 320.843L605.071 320.68Z" fill="#47D45A" fill-rule="evenodd" transform="matrix(1 0 0 1.00258 -447.466 -153.844)"/><path d="M616.18 320.68 616.035 322.147 613.105 324.261C611.947 325.016 610.75 325.718 609.516 326.365L605.812 328.086 606.339 326.636C606.87 325.66 607.562 324.743 608.412 323.923 610.114 322.281 612.212 321.254 614.409 320.844L616.18 320.68Z" fill="#47D45A" fill-rule="evenodd" transform="matrix(1 0 0 1.00258 -447.466 -153.844)"/><text fill="#404040" font-family="Aharoni,Aharoni_MSFontService,sans-serif" font-weight="700" font-size="80" transform="matrix(0.740601 0 0 0.742515 -133.138 253)">TreeShadeMapper</text></g></svg>