<svg width="3459" height="1146" xmlns="http://www.w3.org/2000/svg" xmlns:xlink="http://www.w3.org/1999/xlink" xml:space="preserve" overflow="hidden"><g transform="translate(-961 -990)"><path d="M2787 1300 2775.71 1315.45 2769 1323 2770.56 1318.44C2773.01 1313.68 2776.19 1309.21 2780.1 1305.2L2787 1300Z" fill="#47D45A" fill-rule="evenodd"/><path d="M2622 990C2718.17 990 2798.4 1058.22 2816.96 1148.9L2817.11 1149.87 2813.02 1148.82 2801.64 1157.21C2793.86 1164.99 2789 1174.58 2787.06 1184.63L2786.28 1192.73 2794.38 1191.95C2799.41 1190.98 2804.32 1189.28 2808.94 1186.85L2820.46 1178.35 2821 1189.01 2820.86 1191.69 2807.26 1196.46C2802.64 1198.89 2798.29 1202.05 2794.4 1205.94 2786.62 1213.72 2781.76 1223.32 2779.82 1233.36L2779.04 1241.47 2787.14 1240.69C2797.19 1238.74 2806.78 1233.88 2814.56 1226.1L2818.16 1221.22 2816.96 1229.11 2813.76 1241.56 2800.02 1246.38C2795.4 1248.81 2791.05 1251.97 2787.16 1255.86 2779.38 1263.64 2774.52 1273.24 2772.58 1283.28L2771.8 1291.39 2779.9 1290.61C2784.93 1289.64 2789.84 1287.93 2794.46 1285.5L2797.15 1283.52 2796.98 1283.87C2793.92 1289.51 2790.59 1294.98 2787.01 1300.27L2786.78 1300.58 2779.92 1305.64C2776.03 1309.53 2772.87 1313.87 2770.44 1318.5L2768.89 1322.93 2762.71 1329.73 2750.06 1341.23 2749.95 1341.24C2739.91 1343.18 2730.31 1348.05 2722.53 1355.83L2716.32 1364.26 2699.46 1372.38 2693.62 1374.51 2702.02 1363.12C2704.45 1358.5 2706.15 1353.59 2707.13 1348.56L2707.9 1340.46 2699.8 1341.24C2689.75 1343.18 2680.16 1348.05 2672.38 1355.83 2664.6 1363.61 2659.74 1373.2 2657.79 1383.25L2657.66 1384.65 2642.35 1386.99 2622.3 1388 2629.52 1385.47C2634.15 1383.04 2638.49 1379.88 2642.38 1375.99 2650.17 1368.2 2655.03 1358.61 2656.97 1348.56L2657.75 1340.46 2649.65 1341.24C2639.6 1343.18 2630.01 1348.05 2622.23 1355.83 2614.45 1363.61 2609.58 1373.2 2607.64 1383.25L2607.25 1387.27 2601.65 1386.99C2594.96 1386.31 2588.37 1385.3 2581.89 1383.97L2581.53 1383.88 2592.23 1375.99C2600.01 1368.2 2604.88 1358.61 2606.82 1348.56L2607.6 1340.46 2599.49 1341.24C2589.45 1343.18 2579.85 1348.05 2572.07 1355.83L2564.29 1366.39 2566.36 1379.98 2562.82 1379.07C2481.82 1353.87 2423 1278.31 2423 1189.01 2423 1079.1 2512.1 990 2622 990ZM2778.67 1142.7 2764.35 1147.72C2759.73 1150.16 2755.38 1153.32 2751.49 1157.21 2743.71 1164.99 2738.85 1174.58 2736.9 1184.63L2736.13 1192.73 2744.23 1191.96C2754.28 1190.01 2763.87 1185.15 2771.65 1177.37 2779.43 1169.59 2784.29 1159.99 2786.24 1149.95L2786.84 1143.63 2781.81 1142.86 2778.67 1142.7ZM2779.77 1190.58 2771.67 1191.35C2761.63 1193.3 2752.03 1198.16 2744.25 1205.94 2736.47 1213.72 2731.61 1223.32 2729.66 1233.36L2728.89 1241.47 2736.99 1240.69C2747.04 1238.74 2756.63 1233.88 2764.41 1226.1 2772.19 1218.32 2777.05 1208.73 2779 1198.68L2779.77 1190.58ZM2772.53 1240.5 2764.43 1241.27C2754.39 1243.22 2744.79 1248.08 2737.01 1255.86 2729.23 1263.64 2724.37 1273.24 2722.42 1283.28L2721.65 1291.39 2729.75 1290.61C2739.8 1288.66 2749.39 1283.8 2757.17 1276.02 2764.95 1268.24 2769.81 1258.65 2771.76 1248.6L2772.53 1240.5ZM2765.29 1290.27 2757.19 1291.05C2747.15 1293 2737.55 1297.86 2729.77 1305.64 2721.99 1313.42 2717.13 1323.01 2715.18 1333.06L2714.41 1341.16 2722.51 1340.39C2732.56 1338.44 2742.15 1333.58 2749.93 1325.8 2757.71 1318.02 2762.57 1308.42 2764.52 1298.38L2765.29 1290.27ZM2736.7 1143.54 2721.36 1145.88 2714.26 1147.7 2714.2 1147.72C2709.57 1150.16 2705.23 1153.32 2701.34 1157.21 2693.56 1164.99 2688.7 1174.58 2686.75 1184.63L2685.97 1192.73 2694.08 1191.95C2704.12 1190.01 2713.72 1185.15 2721.5 1177.37 2729.28 1169.59 2734.14 1159.99 2736.09 1149.95L2736.7 1143.54ZM2729.62 1190.58 2721.52 1191.35C2711.47 1193.3 2701.88 1198.16 2694.1 1205.94 2686.32 1213.72 2681.46 1223.32 2679.51 1233.36L2678.73 1241.47 2686.84 1240.69C2696.88 1238.74 2706.48 1233.88 2714.26 1226.1 2722.04 1218.32 2726.9 1208.73 2728.85 1198.68L2729.62 1190.58ZM2722.38 1240.5 2714.28 1241.27C2704.23 1243.22 2694.64 1248.08 2686.86 1255.86 2679.08 1263.64 2674.22 1273.24 2672.27 1283.28L2671.49 1291.39 2679.6 1290.61C2689.64 1288.66 2699.24 1283.8 2707.02 1276.02 2714.8 1268.24 2719.66 1258.65 2721.61 1248.6L2722.38 1240.5ZM2715.14 1290.27 2707.04 1291.05C2696.99 1293 2687.4 1297.86 2679.62 1305.64 2671.84 1313.42 2666.98 1323.01 2665.03 1333.06L2664.25 1341.16 2672.36 1340.39C2682.4 1338.44 2692 1333.58 2699.78 1325.8 2707.56 1318.02 2712.42 1308.42 2714.37 1298.38L2715.14 1290.27ZM2683.15 1157.89 2666.61 1165.85C2660.97 1168.92 2655.5 1172.25 2650.2 1175.82L2636.46 1186.1 2635.82 1192.73 2643.92 1191.95C2653.97 1190.01 2663.56 1185.15 2671.34 1177.37 2675.23 1173.48 2678.4 1169.13 2680.83 1164.51L2683.15 1157.89ZM2679.47 1190.58 2671.37 1191.35C2661.32 1193.3 2651.73 1198.16 2643.95 1205.94 2636.17 1213.72 2631.3 1223.32 2629.36 1233.36L2628.58 1241.47 2636.68 1240.69C2646.73 1238.74 2656.32 1233.88 2664.1 1226.1 2671.88 1218.32 2676.75 1208.73 2678.69 1198.68L2679.47 1190.58ZM2672.23 1240.5 2664.13 1241.27C2654.08 1243.22 2644.49 1248.08 2636.71 1255.86 2628.93 1263.64 2624.06 1273.24 2622.12 1283.28L2621.34 1291.39 2629.44 1290.61C2639.49 1288.66 2649.08 1283.8 2656.86 1276.02 2664.65 1268.24 2669.51 1258.65 2671.45 1248.6L2672.23 1240.5ZM2664.99 1290.27 2656.89 1291.05C2646.84 1293 2637.25 1297.86 2629.47 1305.64 2621.69 1313.42 2616.82 1323.01 2614.88 1333.06L2614.1 1341.16 2622.21 1340.39C2632.25 1338.44 2641.84 1333.58 2649.62 1325.8 2657.41 1318.02 2662.27 1308.42 2664.21 1298.38L2664.99 1290.27ZM2629.13 1192.51 2620.75 1200.12C2611.75 1209.13 2603.6 1218.99 2596.45 1229.58L2590.56 1239.28 2601.09 1235.58C2605.72 1233.15 2610.06 1229.99 2613.95 1226.1 2621.73 1218.32 2626.59 1208.73 2628.54 1198.68L2629.13 1192.51ZM2622.08 1240.5 2613.97 1241.27C2603.93 1243.22 2594.33 1248.08 2586.55 1255.86 2578.77 1263.64 2573.91 1273.24 2571.97 1283.28L2571.19 1291.39 2579.29 1290.61C2589.34 1288.66 2598.93 1283.8 2606.71 1276.02 2614.49 1268.24 2619.36 1258.65 2621.3 1248.6L2622.08 1240.5ZM2614.84 1290.27 2606.73 1291.05C2596.69 1293 2587.09 1297.86 2579.31 1305.64 2571.53 1313.42 2566.67 1323.01 2564.73 1333.06L2563.95 1341.16 2572.05 1340.39C2582.1 1338.44 2591.69 1333.58 2599.47 1325.8 2607.25 1318.02 2612.12 1308.42 2614.06 1298.38L2614.84 1290.27Z" fill="#47D45A" fill-rule="evenodd"/><path d="M2817 1150 2820.49 1150.89 2834 1155.82 2830.99 1164.39C2828.59 1168.93 2825.47 1173.2 2821.63 1177.03L2820.31 1178 2819.83 1168.47 2817 1150Z" fill="#47D45A" fill-rule="evenodd"/><path d="M2848 1162 2856.14 1165.91C2861.85 1168.99 2867.4 1172.35 2872.76 1175.95L2873 1176.13 2871.98 1177.51C2864.1 1185.35 2854.38 1190.26 2844.21 1192.22L2836 1193 2836.79 1184.83C2837.77 1179.77 2839.5 1174.82 2841.96 1170.15L2848 1162Z" fill="#47D45A" fill-rule="evenodd"/><path d="M2886.61 1186 2887.52 1186.75 2893 1192.26 2886 1193 2886.61 1186Z" fill="#47D45A" fill-rule="evenodd"/><path d="M2830 1190 2829.21 1198.2C2828.22 1203.28 2826.48 1208.25 2824 1212.93L2818 1221 2819.85 1209 2820.76 1191.13 2821.74 1190.79 2830 1190Z" fill="#47D45A" fill-rule="evenodd"/><path d="M2880 1190 2879.22 1198.12C2877.27 1208.19 2872.4 1217.8 2864.6 1225.6 2856.8 1233.4 2847.19 1238.27 2837.12 1240.22L2829 1241 2829.78 1232.88C2831.73 1222.81 2836.6 1213.2 2844.4 1205.4 2852.2 1197.6 2861.81 1192.73 2871.88 1190.78L2880 1190Z" fill="#47D45A" fill-rule="evenodd"/><path d="M2902 1200 2914.68 1213.89 2919 1219.65 2914.53 1225.69C2906.74 1233.44 2897.15 1238.29 2887.1 1240.23L2879 1241 2879.78 1232.93C2881.72 1222.92 2886.58 1213.36 2894.37 1205.61L2902 1200Z" fill="#47D45A" fill-rule="evenodd"/><path d="M2929.58 1235 2933 1240.62 2929 1241 2929.58 1235Z" fill="#47D45A" fill-rule="evenodd"/><path d="M2823 1240 2822.21 1248.1C2820.23 1258.14 2815.28 1267.73 2807.36 1275.5L2797 1283 2805.36 1265.96C2807.93 1260.01 2810.2 1253.91 2812.17 1247.69L2813.91 1241.07 2814.75 1240.78 2823 1240Z" fill="#47D45A" fill-rule="evenodd"/><path d="M2873 1240 2872.22 1248.12C2870.27 1258.19 2865.4 1267.8 2857.6 1275.6 2849.8 1283.4 2840.19 1288.27 2830.12 1290.22L2822 1291 2822.78 1282.88C2824.73 1272.81 2829.6 1263.2 2837.4 1255.4 2845.2 1247.6 2854.81 1242.73 2864.88 1240.78L2873 1240Z" fill="#47D45A" fill-rule="evenodd"/><path d="M2923 1240 2922.22 1248.12C2920.27 1258.19 2915.4 1267.8 2907.6 1275.6 2899.8 1283.4 2890.19 1288.27 2880.12 1290.22L2872 1291 2872.78 1282.88C2874.73 1272.81 2879.6 1263.2 2887.4 1255.4 2895.2 1247.6 2904.81 1242.73 2914.88 1240.78L2923 1240Z" fill="#47D45A" fill-rule="evenodd"/><path d="M2940.03 1254 2944.6 1263.35 2951 1280.6 2944.69 1285.19C2940.06 1287.59 2935.14 1289.27 2930.11 1290.23L2922 1291 2922.78 1283C2924.72 1273.08 2929.59 1263.61 2937.38 1255.92L2940.03 1254Z" fill="#47D45A" fill-rule="evenodd"/><path d="M2815 1290 2814.22 1298.12C2812.27 1308.19 2807.4 1317.8 2799.6 1325.6 2791.8 1333.4 2782.19 1338.27 2772.12 1340.22L2764 1341 2764.78 1332.88 2768.34 1322.73 2775.02 1315.38 2786.27 1300.33 2792.29 1295.9C2796.92 1293.46 2801.84 1291.75 2806.88 1290.78L2815 1290Z" fill="#47D45A" fill-rule="evenodd"/><path d="M2865 1290 2864.24 1298.12C2862.33 1308.19 2857.55 1317.8 2849.9 1325.6 2842.26 1333.4 2832.83 1338.27 2822.96 1340.22L2815 1341 2815.76 1332.88C2817.67 1322.81 2822.45 1313.2 2830.1 1305.4 2837.74 1297.6 2847.17 1292.73 2857.04 1290.78L2865 1290Z" fill="#47D45A" fill-rule="evenodd"/><path d="M2915 1290 2914.24 1298.12C2912.33 1308.19 2907.55 1317.8 2899.9 1325.6 2892.26 1333.4 2882.83 1338.27 2872.96 1340.22L2865 1341 2865.76 1332.88C2867.67 1322.81 2872.45 1313.2 2880.1 1305.4 2887.74 1297.6 2897.17 1292.73 2907.04 1290.78L2915 1290Z" fill="#47D45A" fill-rule="evenodd"/><path d="M2953.73 1292 2955.87 1300.46 2958 1314.66 2950.06 1325.59C2942.38 1333.39 2932.91 1338.27 2923 1340.22L2915 1341 2915.77 1332.87C2917.69 1322.8 2922.49 1313.18 2930.17 1305.38 2934.01 1301.48 2938.29 1298.31 2942.86 1295.87L2953.73 1292Z" fill="#47D45A" fill-rule="evenodd"/><path d="M2758 1340 2757.22 1348.12C2755.27 1358.19 2750.4 1367.8 2742.6 1375.6 2734.8 1383.4 2725.19 1388.27 2715.12 1390.22L2707 1391 2707.78 1382.88C2708.75 1377.85 2710.46 1372.92 2712.9 1368.29L2716.17 1363.85 2716.71 1363.59C2728.01 1357.45 2738.66 1350.24 2748.51 1342.11L2749.99 1340.77 2758 1340Z" fill="#47D45A" fill-rule="evenodd"/><path d="M2808 1340 2807.22 1348.12C2805.27 1358.19 2800.4 1367.8 2792.6 1375.6 2784.8 1383.4 2775.19 1388.27 2765.12 1390.22L2757 1391 2757.78 1382.88C2759.73 1372.81 2764.6 1363.2 2772.4 1355.4 2780.2 1347.6 2789.81 1342.73 2799.88 1340.78L2808 1340Z" fill="#47D45A" fill-rule="evenodd"/><path d="M2858 1340 2857.22 1348.12C2855.27 1358.19 2850.4 1367.8 2842.6 1375.6 2834.8 1383.4 2825.19 1388.27 2815.12 1390.22L2807 1391 2807.78 1382.88C2809.73 1372.81 2814.6 1363.2 2822.4 1355.4 2830.2 1347.6 2839.81 1342.73 2849.88 1340.78L2858 1340Z" fill="#47D45A" fill-rule="evenodd"/><path d="M2908 1340 2907.22 1348.12C2905.27 1358.19 2900.4 1367.8 2892.6 1375.6 2884.8 1383.4 2875.19 1388.27 2865.12 1390.22L2857 1391 2857.78 1382.88C2859.73 1372.81 2864.6 1363.2 2872.4 1355.4 2880.2 1347.6 2889.81 1342.73 2899.88 1340.78L2908 1340Z" fill="#47D45A" fill-rule="evenodd"/><path d="M2958 1340 2957.24 1348.12C2955.33 1358.19 2950.55 1367.8 2942.9 1375.6 2935.26 1383.4 2925.83 1388.27 2915.96 1390.22L2908 1391 2908.76 1382.88C2910.67 1372.81 2915.45 1363.2 2923.1 1355.4 2930.74 1347.6 2940.17 1342.73 2950.04 1340.78L2958 1340Z" fill="#47D45A" fill-rule="evenodd"/><path d="M2694 1374 2692.9 1375.49C2685.04 1383.34 2675.34 1388.25 2665.19 1390.22L2657 1391 2657.65 1384.24 2662.14 1383.55C2668.69 1382.21 2675.12 1380.56 2681.42 1378.6L2694 1374Z" fill="#47D45A" fill-rule="evenodd"/><path d="M2566 1380 2582 1383.79 2579.73 1385.34 2568.4 1389 2566.16 1380.95 2566 1380Z" fill="#47D45A" fill-rule="evenodd"/><path d="M2607.38 1387 2621.7 1387.73 2622 1387.71 2614.87 1390.24 2607 1391 2607.38 1387Z" fill="#47D45A" fill-rule="evenodd"/><path d="M2650 1390 2649.24 1398.12C2647.33 1408.19 2642.55 1417.8 2634.9 1425.6 2627.26 1433.4 2617.83 1438.27 2607.96 1440.22L2600 1441 2600.76 1432.88C2602.67 1422.81 2607.45 1413.2 2615.1 1405.4 2622.74 1397.6 2632.17 1392.73 2642.04 1390.78L2650 1390Z" fill="#47D45A" fill-rule="evenodd"/><path d="M2701 1390 2700.22 1398.12C2698.27 1408.19 2693.4 1417.8 2685.6 1425.6 2677.8 1433.4 2668.19 1438.27 2658.12 1440.22L2650 1441 2650.78 1432.88C2652.73 1422.81 2657.6 1413.2 2665.4 1405.4 2673.2 1397.6 2682.81 1392.73 2692.88 1390.78L2701 1390Z" fill="#47D45A" fill-rule="evenodd"/><path d="M2751 1390 2750.22 1398.12C2748.27 1408.19 2743.4 1417.8 2735.6 1425.6 2727.8 1433.4 2718.19 1438.27 2708.12 1440.22L2700 1441 2700.78 1432.88C2702.73 1422.81 2707.6 1413.2 2715.4 1405.4 2723.2 1397.6 2732.81 1392.73 2742.88 1390.78L2751 1390Z" fill="#47D45A" fill-rule="evenodd"/><path d="M2801 1390 2800.22 1398.12C2798.27 1408.19 2793.4 1417.8 2785.6 1425.6 2777.8 1433.4 2768.19 1438.27 2758.12 1440.22L2750 1441 2750.78 1432.88C2752.73 1422.81 2757.6 1413.2 2765.4 1405.4 2773.2 1397.6 2782.81 1392.73 2792.88 1390.78L2801 1390Z" fill="#47D45A" fill-rule="evenodd"/><path d="M2851 1390 2850.22 1398.12C2848.27 1408.19 2843.4 1417.8 2835.6 1425.6 2827.8 1433.4 2818.19 1438.27 2808.12 1440.22L2800 1441 2800.78 1432.88C2802.73 1422.81 2807.6 1413.2 2815.4 1405.4 2823.2 1397.6 2832.81 1392.73 2842.88 1390.78L2851 1390Z" fill="#47D45A" fill-rule="evenodd"/><path d="M2901 1390 2900.22 1398.12C2898.27 1408.19 2893.4 1417.8 2885.6 1425.6 2877.8 1433.4 2868.19 1438.27 2858.12 1440.22L2850 1441 2850.78 1432.88C2852.73 1422.81 2857.6 1413.2 2865.4 1405.4 2873.2 1397.6 2882.81 1392.73 2892.88 1390.78L2901 1390Z" fill="#47D45A" fill-rule="evenodd"/><path d="M2951 1390 2950.22 1398.12C2948.27 1408.19 2943.4 1417.8 2935.6 1425.6 2927.8 1433.4 2918.19 1438.27 2908.12 1440.22L2900 1441 2900.78 1432.88C2902.73 1422.81 2907.6 1413.2 2915.4 1405.4 2923.2 1397.6 2932.81 1392.73 2942.88 1390.78L2951 1390Z" fill="#47D45A" fill-rule="evenodd"/><path d="M2600 1390 2599.24 1398.04C2597.34 1408.01 2592.6 1417.53 2585.01 1425.26L2582.68 1427 2578.28 1417.71 2572 1400.25 2577.89 1395.84C2582.4 1393.43 2587.19 1391.74 2592.09 1390.77L2600 1390Z" fill="#47D45A" fill-rule="evenodd"/><path d="M2593 1440 2592.42 1445 2589 1440.32 2593 1440Z" fill="#47D45A" fill-rule="evenodd"/><path d="M2693 1440 2692.24 1448.12C2690.33 1458.19 2685.55 1467.8 2677.9 1475.6 2670.26 1483.4 2660.83 1488.27 2650.96 1490.22L2643 1491 2643.76 1482.88C2645.67 1472.81 2650.45 1463.2 2658.1 1455.4 2665.74 1447.6 2675.17 1442.73 2685.04 1440.78L2693 1440Z" fill="#47D45A" fill-rule="evenodd"/><path d="M2743 1440 2742.24 1448.12C2740.33 1458.19 2735.55 1467.8 2727.9 1475.6 2720.26 1483.4 2710.83 1488.27 2700.96 1490.22L2693 1491 2693.76 1482.88C2695.67 1472.81 2700.45 1463.2 2708.1 1455.4 2715.74 1447.6 2725.17 1442.73 2735.04 1440.78L2743 1440Z" fill="#47D45A" fill-rule="evenodd"/><path d="M2794 1440 2793.22 1448.12C2791.27 1458.19 2786.4 1467.8 2778.6 1475.6 2770.8 1483.4 2761.19 1488.27 2751.12 1490.22L2743 1491 2743.78 1482.88C2745.73 1472.81 2750.6 1463.2 2758.4 1455.4 2766.2 1447.6 2775.81 1442.73 2785.88 1440.78L2794 1440Z" fill="#47D45A" fill-rule="evenodd"/><path d="M2844 1440 2843.22 1448.12C2841.27 1458.19 2836.4 1467.8 2828.6 1475.6 2820.8 1483.4 2811.19 1488.27 2801.12 1490.22L2793 1491 2793.78 1482.88C2795.73 1472.81 2800.6 1463.2 2808.4 1455.4 2816.2 1447.6 2825.81 1442.73 2835.88 1440.78L2844 1440Z" fill="#47D45A" fill-rule="evenodd"/><path d="M2894 1440 2893.22 1448.12C2891.27 1458.19 2886.4 1467.8 2878.6 1475.6 2870.8 1483.4 2861.19 1488.27 2851.12 1490.22L2843 1491 2843.78 1482.88C2845.73 1472.81 2850.6 1463.2 2858.4 1455.4 2866.2 1447.6 2875.81 1442.73 2885.88 1440.78L2894 1440Z" fill="#47D45A" fill-rule="evenodd"/><path d="M2643 1440 2642.22 1448.09C2640.27 1458.13 2635.39 1467.71 2627.58 1475.49L2620.07 1481 2607.51 1467.24 2603 1461.23 2607.36 1455.35C2615.16 1447.58 2624.79 1442.72 2634.87 1440.78L2643 1440Z" fill="#47D45A" fill-rule="evenodd"/><path d="M2932 1442 2925.98 1451.85C2918.84 1462.37 2910.71 1472.17 2901.72 1481.12L2893 1489 2893.63 1482.49C2895.57 1472.51 2900.42 1462.98 2908.19 1455.25 2912.08 1451.38 2916.42 1448.24 2921.04 1445.83L2932 1442Z" fill="#47D45A" fill-rule="evenodd"/><path d="M2636 1488 2635.48 1494 2634.94 1493.56 2630 1488.63 2636 1488Z" fill="#47D45A" fill-rule="evenodd"/><path d="M2686 1488 2685.23 1496.19C2684.27 1501.26 2682.59 1506.22 2680.19 1510.9L2674.35 1519 2666.67 1515.21C2661.1 1512.12 2655.69 1508.76 2650.46 1505.14L2650 1504.79 2650.91 1503.52C2658.6 1495.66 2668.07 1490.75 2678 1488.78L2686 1488Z" fill="#47D45A" fill-rule="evenodd"/><path d="M2736 1488 2735.22 1496.12C2733.28 1506.19 2728.42 1515.81 2720.65 1523.61L2709.31 1532 2701.98 1530.11 2688 1524.98 2691.03 1516.29C2693.46 1511.66 2696.62 1507.3 2700.51 1503.4 2708.28 1495.6 2717.87 1490.73 2727.9 1488.78L2736 1488Z" fill="#47D45A" fill-rule="evenodd"/><path d="M2786 1488 2785.23 1496.09C2783.32 1506.13 2778.52 1515.71 2770.85 1523.48 2767.02 1527.36 2762.74 1530.52 2758.17 1532.95L2743.95 1538 2741.27 1537.86 2736 1537.05 2736.6 1530.73C2738.52 1520.7 2743.31 1511.12 2750.98 1503.34 2758.65 1495.57 2768.11 1490.72 2778.01 1488.78L2786 1488Z" fill="#47D45A" fill-rule="evenodd"/><path d="M2836 1488 2835.23 1496.22C2833.32 1506.41 2828.53 1516.13 2820.86 1524.03 2817.02 1527.97 2812.74 1531.18 2808.18 1533.64L2806.64 1534.2 2801.44 1535.58 2786 1538 2786.62 1531.39C2788.53 1521.2 2793.32 1511.47 2800.99 1503.58 2808.66 1495.69 2818.11 1490.76 2828.01 1488.79L2836 1488Z" fill="#47D45A" fill-rule="evenodd"/><path d="M2887 1488 2886.33 1494.93 2872.76 1504.92C2867.4 1508.49 2861.86 1511.81 2856.15 1514.86L2839 1523 2841.44 1516.15C2843.9 1511.53 2847.1 1507.2 2851.04 1503.32 2858.92 1495.56 2868.63 1490.71 2878.8 1488.77L2887 1488Z" fill="#47D45A" fill-rule="evenodd"/><text fill="#404040" font-family="Aharoni,Aharoni_MSFontService,sans-serif" font-weight="700" font-size="275" transform="matrix(1 0 0 1 1486.22 1886)">TreeShadeMapper</text></g></svg>