<svg width="3864" height="1812" xmlns="http://www.w3.org/2000/svg" xmlns:xlink="http://www.w3.org/1999/xlink" xml:space="preserve" overflow="hidden"><defs><clipPath id="clip0"><rect x="407" y="373" width="3864" height="1812"/></clipPath></defs><g clip-path="url(#clip0)" transform="translate(-407 -373)"><path d="M2528 930 2507.93 957.537 2496 971 2498.78 962.867C2503.13 954.38 2508.78 946.413 2515.74 939.277L2528 930Z" fill="#47D45A" fill-rule="evenodd"/><path d="M2513.33 647 2518.97 647.285 2528 648.667 2526.91 660.027C2523.42 678.101 2514.7 695.36 2500.74 709.357 2486.78 723.355 2469.56 732.103 2451.54 735.603L2437 737 2438.39 722.422C2441.88 704.348 2450.61 687.089 2464.57 673.092 2471.55 666.094 2479.34 660.407 2487.64 656.033L2513.33 647Z" fill="#FFFFFF" fill-rule="evenodd"/><path d="M2438 649 2436.9 660.464C2433.41 678.435 2424.68 695.596 2410.73 709.514 2396.77 723.432 2379.56 732.131 2361.54 735.611L2347 737 2348.39 722.505C2351.88 704.533 2360.61 687.372 2374.56 673.454 2381.54 666.495 2389.34 660.841 2397.64 656.491L2397.74 656.454 2410.48 653.188 2438 649Z" fill="#FFFFFF" fill-rule="evenodd"/><path d="M2575.5 658 2582.91 659.891 2588.11 693.693 2589 711.133 2568.1 726.416C2559.71 730.791 2550.81 733.853 2541.7 735.603L2527 737 2528.41 722.421C2531.94 704.346 2540.76 687.086 2554.87 673.087L2575.5 658Z" fill="#FFFFFF" fill-rule="evenodd"/><path d="M2342 675 2337.83 686.777C2333.46 695.009 2327.79 702.738 2320.8 709.66 2306.83 723.504 2289.6 732.157 2271.55 735.618L2257 737 2258.14 725.201 2282.83 706.913C2292.33 700.55 2302.17 694.628 2312.3 689.177L2342 675Z" fill="#FFFFFF" fill-rule="evenodd"/><path d="M2336 733 2334.6 747.49C2331.08 765.455 2322.29 782.61 2308.22 796.523 2294.16 810.437 2276.81 819.133 2258.65 822.611L2244 824 2245.4 809.51C2248.92 791.545 2257.71 774.389 2271.78 760.476 2285.84 746.563 2303.19 737.867 2321.35 734.388L2336 733Z" fill="#FFFFFF" fill-rule="evenodd"/><path d="M2426 733 2424.6 747.49C2421.08 765.455 2412.29 782.61 2398.22 796.523 2384.16 810.437 2366.81 819.133 2348.65 822.611L2334 824 2335.4 809.51C2338.92 791.545 2347.71 774.389 2361.78 760.476 2375.84 746.563 2393.19 737.867 2411.35 734.388L2426 733Z" fill="#FFFFFF" fill-rule="evenodd"/><path d="M2516 733 2514.6 747.49C2511.08 765.455 2502.29 782.61 2488.22 796.523 2474.16 810.437 2456.81 819.133 2438.65 822.611L2424 824 2425.4 809.51C2428.92 791.545 2437.71 774.389 2451.78 760.476 2465.84 746.563 2483.19 737.867 2501.35 734.388L2516 733Z" fill="#FFFFFF" fill-rule="evenodd"/><path d="M2589 735 2587.4 766.585 2584.15 787.797 2577.7 796.526C2563.75 810.438 2546.54 819.133 2528.53 822.611L2514 824 2515.39 809.512C2518.88 791.548 2527.6 774.395 2541.55 760.483 2548.53 753.527 2556.32 747.875 2564.61 743.528L2589 735Z" fill="#FFFFFF" fill-rule="evenodd"/><path d="M2245 737 2243.94 748.089C2240.46 766.132 2231.76 783.361 2217.85 797.334 2210.89 804.321 2203.12 809.998 2194.85 814.364L2176 821 2186.54 803.575C2199.34 784.562 2213.9 766.85 2230.01 750.682L2245 737Z" fill="#FFFFFF" fill-rule="evenodd"/><path d="M2233 823 2231.61 837.49C2228.13 855.455 2219.44 872.61 2205.52 886.524 2191.61 900.437 2174.46 909.133 2156.49 912.611L2142 914 2143.39 899.51C2146.87 881.545 2155.56 864.389 2169.48 850.476 2183.39 836.563 2200.54 827.867 2218.51 824.389L2233 823Z" fill="#FFFFFF" fill-rule="evenodd"/><path d="M2323 823 2321.6 837.49C2318.08 855.455 2309.29 872.61 2295.22 886.524 2281.16 900.437 2263.81 909.133 2245.65 912.611L2231 914 2232.4 899.51C2235.92 881.545 2244.71 864.389 2258.78 850.476 2272.84 836.563 2290.19 827.867 2308.35 824.389L2323 823Z" fill="#FFFFFF" fill-rule="evenodd"/><path d="M2413 823 2411.6 837.49C2408.08 855.455 2399.29 872.61 2385.22 886.524 2371.16 900.437 2353.81 909.133 2335.65 912.611L2321 914 2322.4 899.51C2325.92 881.545 2334.71 864.389 2348.78 850.476 2362.84 836.563 2380.19 827.867 2398.35 824.389L2413 823Z" fill="#FFFFFF" fill-rule="evenodd"/><path d="M2503 823 2501.6 837.49C2498.08 855.455 2489.29 872.61 2475.22 886.524 2461.16 900.437 2443.81 909.133 2425.65 912.611L2411 914 2412.4 899.51C2415.92 881.545 2424.71 864.389 2438.78 850.476 2452.84 836.563 2470.19 827.867 2488.35 824.389L2503 823Z" fill="#FFFFFF" fill-rule="evenodd"/><path d="M2577 825 2573.92 836.831C2570.4 847.963 2566.35 858.86 2561.79 869.493L2546.91 899.955 2542.05 903.491C2533.67 907.835 2524.78 910.875 2515.68 912.613L2501 914 2502.41 899.525C2505.93 881.578 2514.74 864.441 2528.83 850.542 2535.88 843.592 2543.75 837.946 2552.13 833.602L2577 825Z" fill="#FFFFFF" fill-rule="evenodd"/><path d="M2220 912 2218.61 926.49C2215.13 944.455 2206.44 961.61 2192.52 975.524 2178.61 989.437 2161.46 998.133 2143.49 1001.61L2129 1003 2130.39 988.51C2133.87 970.545 2142.56 953.389 2156.48 939.476 2170.39 925.563 2187.54 916.867 2205.51 913.389L2220 912Z" fill="#FFFFFF" fill-rule="evenodd"/><path d="M2310 912 2308.6 926.49C2305.08 944.455 2296.29 961.61 2282.22 975.524 2268.16 989.437 2250.81 998.133 2232.65 1001.61L2218 1003 2219.4 988.51C2222.92 970.545 2231.71 953.389 2245.78 939.476 2259.84 925.563 2277.19 916.867 2295.35 913.389L2310 912Z" fill="#FFFFFF" fill-rule="evenodd"/><path d="M2400 912 2398.6 926.49C2395.08 944.455 2386.29 961.61 2372.22 975.524 2358.16 989.437 2340.81 998.133 2322.65 1001.61L2308 1003 2309.4 988.51C2312.92 970.545 2321.71 953.389 2335.78 939.476 2349.84 925.563 2367.19 916.867 2385.35 913.389L2400 912Z" fill="#FFFFFF" fill-rule="evenodd"/><path d="M2490 912 2488.6 926.49C2485.08 944.455 2476.29 961.61 2462.22 975.524 2448.16 989.437 2430.81 998.133 2412.65 1001.61L2398 1003 2399.4 988.51C2402.92 970.545 2411.71 953.389 2425.78 939.476 2439.84 925.563 2457.19 916.867 2475.35 913.389L2490 912Z" fill="#FFFFFF" fill-rule="evenodd"/><path d="M2207 1002 2205.6 1016.56C2202.1 1034.61 2193.34 1051.84 2179.33 1065.82L2160.05 1080 2132.73 1072.99 2129 1048.58 2143.03 1029.6C2157.04 1015.63 2174.32 1006.89 2192.41 1003.4L2207 1002Z" fill="#FFFFFF" fill-rule="evenodd"/><path d="M2297 1002 2295.6 1016.48C2292.09 1034.44 2283.33 1051.59 2269.31 1065.5 2262.3 1072.45 2254.47 1078.1 2246.14 1082.45L2233.12 1086.97 2232.57 1087 2206 1085.67 2206.69 1078.48C2210.2 1060.52 2218.96 1043.37 2232.98 1029.46 2247.01 1015.56 2264.29 1006.86 2282.4 1003.39L2297 1002Z" fill="#FFFFFF" fill-rule="evenodd"/><path d="M2387 1002 2385.61 1016.49C2383.87 1025.47 2380.82 1034.24 2376.46 1042.52L2361.42 1062.88 2339.13 1071.02C2327.97 1074.48 2316.57 1077.42 2304.97 1079.79L2297 1081 2297.24 1078.49C2300.73 1060.53 2309.44 1043.38 2323.37 1029.47 2337.31 1015.56 2354.49 1006.87 2372.49 1003.39L2387 1002Z" fill="#FFFFFF" fill-rule="evenodd"/><path d="M2462 1003 2459.37 1005.45C2441.89 1020.25 2423.01 1033.35 2402.96 1044.53L2402 1045 2413.05 1029.63C2426.88 1015.44 2443.94 1006.57 2461.81 1003.02L2462 1003Z" fill="#FFFFFF" fill-rule="evenodd"/><path d="M2233 373C2405.52 373 2549.46 495.378 2582.75 658.063L2583.01 659.807 2575.68 657.921 2555.28 672.965C2541.32 686.923 2532.6 704.134 2529.11 722.158L2527.71 736.694 2542.25 735.301C2551.26 733.556 2560.07 730.503 2568.37 726.141L2589.04 710.902 2590 730.014 2589.76 734.825 2565.36 743.382C2557.06 747.744 2549.27 753.414 2542.29 760.393 2528.33 774.352 2519.61 791.562 2516.12 809.586L2514.72 824.122 2529.26 822.729C2547.28 819.239 2564.49 810.516 2578.45 796.557L2584.91 787.798 2582.75 801.964 2577.01 824.297 2552.37 832.936C2544.07 837.298 2536.28 842.969 2529.3 849.948 2515.34 863.906 2506.62 881.117 2503.13 899.14L2501.74 913.677 2516.27 912.284C2525.28 910.539 2534.09 907.485 2542.39 903.123L2547.21 899.572 2546.91 900.188C2541.42 910.305 2535.45 920.127 2529.03 929.623L2528.62 930.175 2516.31 939.249C2509.33 946.228 2503.66 954.02 2499.3 962.321L2496.51 970.275 2485.44 982.46 2462.74 1003.09 2462.54 1003.11C2444.52 1006.6 2427.31 1015.32 2413.35 1029.28L2402.2 1044.4 2371.96 1058.97 2361.49 1062.8 2376.55 1042.37C2380.92 1034.07 2383.97 1025.27 2385.71 1016.25L2387.11 1001.72 2372.57 1003.11C2354.55 1006.6 2337.34 1015.32 2323.38 1029.28 2309.42 1043.24 2300.7 1060.45 2297.21 1078.47L2296.97 1080.99 2269.5 1085.18 2233.55 1087 2246.5 1082.46C2254.8 1078.1 2262.59 1072.42 2269.57 1065.45 2283.53 1051.49 2292.25 1034.28 2295.74 1016.25L2297.13 1001.72 2282.6 1003.11C2264.57 1006.6 2247.36 1015.32 2233.41 1029.28 2219.45 1043.24 2210.73 1060.45 2207.24 1078.47L2206.54 1085.69 2196.5 1085.18C2184.5 1083.97 2172.67 1082.15 2161.05 1079.77L2160.4 1079.61 2179.6 1065.45C2193.56 1051.49 2202.28 1034.28 2205.77 1016.25L2207.16 1001.72 2192.63 1003.11C2174.6 1006.6 2157.39 1015.32 2143.44 1029.28L2129.46 1048.23 2133.18 1072.61 2126.84 1070.98C1981.52 1025.77 1876 890.217 1876 730.014 1876 532.841 2035.83 373 2233 373ZM2514.06 646.946 2488.38 655.954C2480.08 660.316 2472.28 665.986 2465.3 672.965 2451.35 686.924 2442.62 704.134 2439.13 722.158L2437.74 736.695 2452.28 735.301C2470.3 731.812 2487.51 723.088 2501.47 709.129 2515.42 695.171 2524.15 677.961 2527.64 659.937L2528.72 648.609 2519.7 647.231 2514.06 646.946ZM2516.04 732.828 2501.51 734.221C2483.48 737.711 2466.27 746.435 2452.32 760.393 2438.36 774.352 2429.63 791.562 2426.15 809.586L2424.75 824.122 2439.29 822.729C2457.31 819.239 2474.52 810.516 2488.48 796.557 2502.44 782.599 2511.16 765.389 2514.65 747.365L2516.04 732.828ZM2503.05 822.383 2488.52 823.776C2470.5 827.266 2453.29 835.99 2439.33 849.948 2425.37 863.906 2416.65 881.117 2413.16 899.14L2411.76 913.677 2426.3 912.284C2444.32 908.794 2461.53 900.07 2475.49 886.112 2489.45 872.153 2498.17 854.943 2501.66 836.92L2503.05 822.383ZM2490.07 911.684 2475.53 913.077C2457.51 916.567 2440.3 925.291 2426.34 939.249 2412.38 953.207 2403.66 970.418 2400.17 988.441L2398.78 1002.98 2413.31 1001.58C2431.33 998.095 2448.54 989.371 2462.5 975.413 2476.46 961.454 2485.18 944.244 2488.67 926.221L2490.07 911.684ZM2438.77 648.44 2411.25 652.641 2398.51 655.916 2398.4 655.953C2390.1 660.315 2382.31 665.986 2375.33 672.965 2361.37 686.923 2352.65 704.134 2349.16 722.158L2347.77 736.694 2362.3 735.301C2380.33 731.811 2397.54 723.087 2411.49 709.129 2425.45 695.171 2434.18 677.96 2437.67 659.937L2438.77 648.44ZM2426.07 732.828 2411.53 734.221C2393.51 737.711 2376.3 746.435 2362.34 760.393 2348.39 774.352 2339.66 791.562 2336.17 809.586L2334.78 824.122 2349.32 822.729C2367.34 819.239 2384.55 810.516 2398.51 796.557 2412.46 782.599 2421.19 765.389 2424.68 747.365L2426.07 732.828ZM2413.08 822.383 2398.55 823.776C2380.52 827.266 2363.31 835.99 2349.36 849.948 2335.4 863.906 2326.67 881.117 2323.19 899.14L2321.79 913.677 2336.33 912.284C2354.35 908.794 2371.56 900.07 2385.52 886.112 2399.48 872.153 2408.2 854.943 2411.69 836.92L2413.08 822.383ZM2400.09 911.684 2385.56 913.077C2367.54 916.567 2350.33 925.291 2336.37 939.249 2322.41 953.207 2313.69 970.418 2310.2 988.441L2308.8 1002.98 2323.34 1001.58C2341.36 998.095 2358.57 989.371 2372.53 975.413 2386.49 961.454 2395.21 944.244 2398.7 926.221L2400.09 911.684ZM2342.7 674.184 2313.03 688.477C2302.91 693.973 2293.09 699.944 2283.59 706.36L2258.94 724.799 2257.8 736.694 2272.33 735.301C2290.36 731.811 2307.56 723.087 2321.52 709.129 2328.5 702.15 2334.17 694.358 2338.53 686.058L2342.7 674.184ZM2336.1 732.828 2321.56 734.221C2303.54 737.711 2286.33 746.435 2272.37 760.393 2258.41 774.352 2249.69 791.562 2246.2 809.586L2244.81 824.122 2259.34 822.729C2277.37 819.239 2294.58 810.516 2308.53 796.557 2322.49 782.599 2331.22 765.389 2334.71 747.365L2336.1 732.828ZM2323.11 822.383 2308.57 823.776C2290.55 827.266 2273.34 835.99 2259.38 849.948 2245.43 863.906 2236.7 881.117 2233.21 899.14L2231.82 913.677 2246.36 912.284C2264.38 908.794 2281.59 900.07 2295.55 886.112 2309.5 872.153 2318.23 854.943 2321.72 836.92L2323.11 822.383ZM2310.12 911.684 2295.59 913.077C2277.56 916.567 2260.35 925.291 2246.4 939.249 2232.44 953.207 2223.71 970.418 2220.22 988.441L2218.83 1002.98 2233.37 1001.58C2251.39 998.095 2268.6 989.371 2282.56 975.413 2296.52 961.454 2305.24 944.244 2308.73 926.221L2310.12 911.684ZM2245.79 736.288 2230.76 749.955C2214.61 766.106 2200 783.799 2187.16 802.792L2176.59 820.198 2195.49 813.569C2203.79 809.207 2211.58 803.537 2218.56 796.557 2232.52 782.599 2241.24 765.389 2244.73 747.365L2245.79 736.288ZM2233.14 822.383 2218.6 823.776C2200.58 827.266 2183.37 835.99 2169.41 849.948 2155.45 863.906 2146.73 881.117 2143.24 899.14L2141.85 913.677 2156.38 912.284C2174.41 908.794 2191.62 900.07 2205.57 886.112 2219.53 872.153 2228.26 854.943 2231.74 836.92L2233.14 822.383ZM2220.15 911.684 2205.61 913.077C2187.59 916.567 2170.38 925.291 2156.42 939.249 2142.47 953.207 2133.74 970.418 2130.25 988.441L2128.86 1002.98 2143.4 1001.58C2161.42 998.095 2178.63 989.371 2192.59 975.413 2206.54 961.454 2215.27 944.244 2218.76 926.221L2220.15 911.684Z" fill="#47D45A" fill-rule="evenodd"/><path d="M2583 660 2589.36 661.628 2614 670.606 2608.51 686.202C2604.13 694.487 2598.45 702.264 2591.45 709.23L2589.04 711 2588.16 693.642 2583 660Z" fill="#47D45A" fill-rule="evenodd"/><path d="M2638.4 682 2652.93 688.929C2663.12 694.408 2673.01 700.361 2682.57 706.757L2683 707.073 2681.18 709.518C2667.12 723.434 2649.79 732.132 2631.64 735.611L2617 737 2618.4 722.507C2620.16 713.523 2623.24 704.741 2627.63 696.466L2638.4 682Z" fill="#47D45A" fill-rule="evenodd"/><path d="M2708.04 726 2709.6 727.18 2719 735.835 2707 737 2708.04 726Z" fill="#47D45A" fill-rule="evenodd"/><path d="M2606 733 2604.61 747.545C2602.88 756.561 2599.84 765.375 2595.5 773.68L2585 788 2588.23 766.706 2589.82 734.998 2591.54 734.394 2606 733Z" fill="#47D45A" fill-rule="evenodd"/><path d="M2696 733 2694.6 747.49C2691.08 765.455 2682.29 782.61 2668.22 796.523 2654.16 810.437 2636.81 819.133 2618.65 822.611L2604 824 2605.4 809.51C2608.92 791.545 2617.71 774.389 2631.78 760.476 2645.84 746.563 2663.19 737.867 2681.35 734.388L2696 733Z" fill="#47D45A" fill-rule="evenodd"/><path d="M2735.41 751 2758.22 775.736 2766 785.982 2757.95 796.746C2743.94 810.547 2726.67 819.172 2708.59 822.622L2694 824 2695.4 809.627C2698.9 791.807 2707.65 774.791 2721.66 760.99L2735.41 751Z" fill="#47D45A" fill-rule="evenodd"/><path d="M2785.01 814 2791 823.363 2784 824 2785.01 814Z" fill="#47D45A" fill-rule="evenodd"/><path d="M2593 823 2591.6 837.501C2588.1 855.48 2579.34 872.649 2565.33 886.573L2547 900 2561.79 869.482C2566.33 858.831 2570.36 847.914 2573.85 836.762L2576.91 824.909 2578.41 824.39 2593 823Z" fill="#47D45A" fill-rule="evenodd"/><path d="M2683 823 2681.6 837.49C2678.08 855.455 2669.29 872.61 2655.22 886.524 2641.16 900.437 2623.81 909.133 2605.65 912.611L2591 914 2592.4 899.51C2595.92 881.545 2604.71 864.389 2618.78 850.476 2632.84 836.563 2650.19 827.867 2668.35 824.389L2683 823Z" fill="#47D45A" fill-rule="evenodd"/><path d="M2773 823 2771.6 837.49C2768.08 855.455 2759.29 872.61 2745.22 886.524 2731.16 900.437 2713.81 909.133 2695.65 912.611L2681 914 2682.4 899.51C2685.92 881.545 2694.71 864.389 2708.78 850.476 2722.84 836.563 2740.19 827.867 2758.35 824.389L2773 823Z" fill="#47D45A" fill-rule="evenodd"/><path d="M2803.33 847 2811.52 863.927 2823 895.173 2811.69 903.482C2803.38 907.829 2794.57 910.872 2785.55 912.611L2771 914 2772.39 899.512C2775.89 881.549 2784.62 864.396 2798.58 850.485L2803.33 847Z" fill="#47D45A" fill-rule="evenodd"/><path d="M2580 912 2578.6 926.49C2575.08 944.455 2566.29 961.61 2552.22 975.524 2538.16 989.437 2520.81 998.133 2502.65 1001.61L2488 1003 2489.4 988.51 2495.82 970.402 2507.88 957.277 2528.18 930.432 2539.03 922.519C2547.39 918.171 2556.27 915.128 2565.35 913.389L2580 912Z" fill="#47D45A" fill-rule="evenodd"/><path d="M2670 912 2668.6 926.49C2665.08 944.455 2656.29 961.61 2642.22 975.524 2628.16 989.437 2610.81 998.133 2592.65 1001.61L2578 1003 2579.4 988.51C2582.92 970.545 2591.71 953.389 2605.78 939.476 2619.84 925.563 2637.19 916.867 2655.35 913.389L2670 912Z" fill="#47D45A" fill-rule="evenodd"/><path d="M2760 912 2758.6 926.49C2755.08 944.455 2746.29 961.61 2732.22 975.524 2718.16 989.437 2700.81 998.133 2682.65 1001.61L2668 1003 2669.4 988.51C2672.92 970.545 2681.71 953.389 2695.78 939.476 2709.84 925.563 2727.19 916.867 2745.35 913.389L2760 912Z" fill="#47D45A" fill-rule="evenodd"/><path d="M2828.25 916 2832.13 931.024 2836 956.227 2821.6 975.645C2807.67 989.497 2790.5 998.154 2772.51 1001.62L2758 1003 2759.39 988.574C2762.87 970.688 2771.58 953.608 2785.51 939.756 2792.48 932.83 2800.25 927.202 2808.54 922.874L2828.25 916Z" fill="#47D45A" fill-rule="evenodd"/><path d="M2477 1002 2475.6 1016.49C2472.08 1034.46 2463.29 1051.61 2449.22 1065.52 2435.16 1079.44 2417.81 1088.13 2399.65 1091.61L2385 1093 2386.4 1078.51C2388.16 1069.53 2391.24 1060.75 2395.63 1052.47L2401.54 1044.55 2402.51 1044.09C2422.91 1033.13 2442.11 1020.28 2459.87 1005.77L2462.55 1003.37 2477 1002Z" fill="#47D45A" fill-rule="evenodd"/><path d="M2567 1002 2565.6 1016.49C2562.08 1034.46 2553.29 1051.61 2539.22 1065.52 2525.16 1079.44 2507.81 1088.13 2489.65 1091.61L2475 1093 2476.4 1078.51C2479.92 1060.54 2488.71 1043.39 2502.78 1029.48 2516.84 1015.56 2534.19 1006.87 2552.35 1003.39L2567 1002Z" fill="#47D45A" fill-rule="evenodd"/><path d="M2657 1002 2655.6 1016.49C2652.08 1034.46 2643.29 1051.61 2629.22 1065.52 2615.16 1079.44 2597.81 1088.13 2579.65 1091.61L2565 1093 2566.4 1078.51C2569.92 1060.54 2578.71 1043.39 2592.78 1029.48 2606.84 1015.56 2624.19 1006.87 2642.35 1003.39L2657 1002Z" fill="#47D45A" fill-rule="evenodd"/><path d="M2747 1002 2745.6 1016.49C2742.08 1034.46 2733.29 1051.61 2719.22 1065.52 2705.16 1079.44 2687.81 1088.13 2669.65 1091.61L2655 1093 2656.4 1078.51C2659.92 1060.54 2668.71 1043.39 2682.78 1029.48 2696.84 1015.56 2714.19 1006.87 2732.35 1003.39L2747 1002Z" fill="#47D45A" fill-rule="evenodd"/><path d="M2837 1002 2835.6 1016.49C2832.08 1034.46 2823.29 1051.61 2809.22 1065.52 2795.16 1079.44 2777.81 1088.13 2759.65 1091.61L2745 1093 2746.4 1078.51C2749.92 1060.54 2758.71 1043.39 2772.78 1029.48 2786.84 1015.56 2804.19 1006.87 2822.35 1003.39L2837 1002Z" fill="#47D45A" fill-rule="evenodd"/><path d="M2361 1063 2359.04 1065.62C2345.02 1079.49 2327.72 1088.15 2309.61 1091.62L2295 1093 2296.16 1081.06 2304.18 1079.85C2315.85 1077.49 2327.33 1074.57 2338.56 1071.12L2361 1063Z" fill="#47D45A" fill-rule="evenodd"/><path d="M2133 1073 2160 1080.16 2156.16 1083.08 2137.05 1090 2133.26 1074.79 2133 1073Z" fill="#47D45A" fill-rule="evenodd"/><path d="M2206.68 1086 2232.47 1087.28 2233 1087.25 2220.17 1091.67 2206 1093 2206.68 1086Z" fill="#47D45A" fill-rule="evenodd"/><path d="M2284 1092 2282.61 1106.49C2279.13 1124.46 2270.44 1141.61 2256.52 1155.52 2242.61 1169.44 2225.46 1178.13 2207.49 1181.61L2193 1183 2194.39 1168.51C2197.87 1150.54 2206.56 1133.39 2220.48 1119.48 2234.39 1105.56 2251.54 1096.87 2269.51 1093.39L2284 1092Z" fill="#47D45A" fill-rule="evenodd"/><path d="M2374 1092 2372.6 1106.49C2369.08 1124.46 2360.29 1141.61 2346.22 1155.52 2332.16 1169.44 2314.81 1178.13 2296.65 1181.61L2282 1183 2283.4 1168.51C2286.92 1150.54 2295.71 1133.39 2309.78 1119.48 2323.84 1105.56 2341.19 1096.87 2359.35 1093.39L2374 1092Z" fill="#47D45A" fill-rule="evenodd"/><path d="M2464 1092 2462.6 1106.49C2459.08 1124.46 2450.29 1141.61 2436.22 1155.52 2422.16 1169.44 2404.81 1178.13 2386.65 1181.61L2372 1183 2373.4 1168.51C2376.92 1150.54 2385.71 1133.39 2399.78 1119.48 2413.84 1105.56 2431.19 1096.87 2449.35 1093.39L2464 1092Z" fill="#47D45A" fill-rule="evenodd"/><path d="M2554 1092 2552.6 1106.49C2549.08 1124.46 2540.29 1141.61 2526.22 1155.52 2512.16 1169.44 2494.81 1178.13 2476.65 1181.61L2462 1183 2463.4 1168.51C2466.92 1150.54 2475.71 1133.39 2489.78 1119.48 2503.84 1105.56 2521.19 1096.87 2539.35 1093.39L2554 1092Z" fill="#47D45A" fill-rule="evenodd"/><path d="M2644 1092 2642.6 1106.49C2639.08 1124.46 2630.29 1141.61 2616.22 1155.52 2602.16 1169.44 2584.81 1178.13 2566.65 1181.61L2552 1183 2553.4 1168.51C2556.92 1150.54 2565.71 1133.39 2579.78 1119.48 2593.84 1105.56 2611.19 1096.87 2629.35 1093.39L2644 1092Z" fill="#47D45A" fill-rule="evenodd"/><path d="M2734 1092 2732.6 1106.49C2729.08 1124.46 2720.29 1141.61 2706.22 1155.52 2692.16 1169.44 2674.81 1178.13 2656.65 1181.61L2642 1183 2643.4 1168.51C2646.92 1150.54 2655.71 1133.39 2669.78 1119.48 2683.84 1105.56 2701.19 1096.87 2719.35 1093.39L2734 1092Z" fill="#47D45A" fill-rule="evenodd"/><path d="M2824 1092 2822.6 1106.49C2819.08 1124.46 2810.29 1141.61 2796.22 1155.52 2782.16 1169.44 2764.81 1178.13 2746.65 1181.61L2732 1183 2733.4 1168.51C2736.92 1150.54 2745.71 1133.39 2759.78 1119.48 2773.84 1105.56 2791.19 1096.87 2809.35 1093.39L2824 1092Z" fill="#47D45A" fill-rule="evenodd"/><path d="M2194 1092 2192.59 1106.35C2189.07 1124.13 2180.26 1141.12 2166.16 1154.89L2161.84 1158 2153.67 1141.44 2142 1110.29 2152.93 1102.41C2161.32 1098.11 2170.21 1095.1 2179.32 1093.37L2194 1092Z" fill="#47D45A" fill-rule="evenodd"/><path d="M2181 1181 2179.99 1191 2174 1181.64 2181 1181Z" fill="#47D45A" fill-rule="evenodd"/><path d="M2361 1181 2359.6 1195.49C2356.08 1213.46 2347.29 1230.61 2333.22 1244.52 2319.16 1258.44 2301.81 1267.13 2283.65 1270.61L2269 1272 2270.4 1257.51C2273.92 1239.54 2282.71 1222.39 2296.78 1208.48 2310.84 1194.56 2328.19 1185.87 2346.35 1182.39L2361 1181Z" fill="#47D45A" fill-rule="evenodd"/><path d="M2451 1181 2449.6 1195.49C2446.08 1213.46 2437.29 1230.61 2423.22 1244.52 2409.16 1258.44 2391.81 1267.13 2373.65 1270.61L2359 1272 2360.4 1257.51C2363.92 1239.54 2372.71 1222.39 2386.78 1208.48 2400.84 1194.56 2418.19 1185.87 2436.35 1182.39L2451 1181Z" fill="#47D45A" fill-rule="evenodd"/><path d="M2541 1181 2539.6 1195.49C2536.08 1213.46 2527.29 1230.61 2513.22 1244.52 2499.16 1258.44 2481.81 1267.13 2463.65 1270.61L2449 1272 2450.4 1257.51C2453.92 1239.54 2462.71 1222.39 2476.78 1208.48 2490.84 1194.56 2508.19 1185.87 2526.35 1182.39L2541 1181Z" fill="#47D45A" fill-rule="evenodd"/><path d="M2631 1181 2629.6 1195.49C2626.08 1213.46 2617.29 1230.61 2603.22 1244.52 2589.16 1258.44 2571.81 1267.13 2553.65 1270.61L2539 1272 2540.4 1257.51C2543.92 1239.54 2552.71 1222.39 2566.78 1208.48 2580.84 1194.56 2598.19 1185.87 2616.35 1182.39L2631 1181Z" fill="#47D45A" fill-rule="evenodd"/><path d="M2721 1181 2719.6 1195.49C2716.08 1213.46 2707.29 1230.61 2693.22 1244.52 2679.16 1258.44 2661.81 1267.13 2643.65 1270.61L2629 1272 2630.4 1257.51C2633.92 1239.54 2642.71 1222.39 2656.78 1208.48 2670.84 1194.56 2688.19 1185.87 2706.35 1182.39L2721 1181Z" fill="#47D45A" fill-rule="evenodd"/><path d="M2271 1181 2269.6 1195.41C2266.08 1213.28 2257.3 1230.35 2243.25 1244.19L2229.73 1254 2207.13 1229.51 2199 1218.8 2206.84 1208.33C2220.89 1194.49 2238.22 1185.84 2256.37 1182.38L2271 1181Z" fill="#47D45A" fill-rule="evenodd"/><path d="M2790 1185 2779.2 1202.61C2766.38 1221.41 2751.79 1238.92 2735.65 1254.91L2720 1269 2721.13 1257.36C2724.61 1239.53 2733.33 1222.49 2747.27 1208.68 2754.24 1201.77 2762.03 1196.16 2770.32 1191.84L2790 1185Z" fill="#47D45A" fill-rule="evenodd"/><path d="M2258 1268 2256.95 1279 2255.89 1278.2 2246 1269.16 2258 1268Z" fill="#47D45A" fill-rule="evenodd"/><path d="M2348 1268 2346.59 1282.52C2344.83 1291.53 2341.75 1300.33 2337.35 1308.62L2326.64 1323 2312.56 1316.28C2302.34 1310.79 2292.43 1304.83 2282.85 1298.42L2282 1297.79 2283.68 1295.54C2297.76 1281.6 2315.14 1272.88 2333.33 1269.39L2348 1268Z" fill="#47D45A" fill-rule="evenodd"/><path d="M2438 1268 2436.61 1282.58C2433.13 1300.67 2424.42 1317.93 2410.5 1331.93L2390.17 1347 2377.05 1343.61 2352 1334.39 2357.44 1318.8C2361.79 1310.47 2367.45 1302.66 2374.41 1295.65 2388.34 1281.65 2405.51 1272.9 2423.5 1269.4L2438 1268Z" fill="#47D45A" fill-rule="evenodd"/><path d="M2528 1268 2526.61 1282.57C2523.12 1300.63 2514.39 1317.87 2500.43 1331.86 2493.45 1338.85 2485.66 1344.53 2477.36 1348.9L2451.47 1358 2446.59 1357.75 2437 1356.29 2438.09 1344.91C2441.58 1326.85 2450.3 1309.61 2464.26 1295.62 2478.22 1281.63 2495.44 1272.89 2513.46 1269.4L2528 1268Z" fill="#47D45A" fill-rule="evenodd"/><path d="M2618 1268 2616.61 1282.63C2613.12 1300.76 2604.4 1318.08 2590.44 1332.12 2583.46 1339.15 2575.67 1344.85 2567.38 1349.24L2564.57 1350.23 2555.1 1352.68 2527 1357 2528.12 1345.23C2531.61 1327.1 2540.33 1309.78 2554.29 1295.74 2568.24 1281.69 2585.45 1272.91 2603.47 1269.4L2618 1268Z" fill="#47D45A" fill-rule="evenodd"/><path d="M2708 1268 2706.81 1280.47 2682.78 1298.46C2673.3 1304.88 2663.48 1310.85 2653.37 1316.35L2623 1331 2627.32 1318.66C2631.68 1310.36 2637.35 1302.56 2644.32 1295.58 2658.27 1281.61 2675.46 1272.89 2693.47 1269.39L2708 1268Z" fill="#47D45A" fill-rule="evenodd"/><text fill="#404040" font-family="Aharoni,Aharoni_MSFontService,sans-serif" font-weight="700" font-size="303" transform="matrix(1 0 0 1 589.449 1910)">Canopy</text><text fill="#404040" font-family="Aharoni,Aharoni_MSFontService,sans-serif" font-weight="700" font-size="303" transform="matrix(1 0 0 1 1691.17 1910)">–</text><text fill="#404040" font-family="Aharoni,Aharoni_MSFontService,sans-serif" font-weight="700" font-size="303" transform="matrix(1 0 0 1 1872.78 1910)">Shade</text><text fill="#404040" font-family="Aharoni,Aharoni_MSFontService,sans-serif" font-weight="700" font-size="303" transform="matrix(1 0 0 1 2771.12 1910)">–</text><text fill="#404040" font-family="Aharoni,Aharoni_MSFontService,sans-serif" font-weight="700" font-size="303" transform="matrix(1 0 0 1 2952.73 1910)">Mapper</text></g></svg>