<svg width="3001" height="1651" xmlns="http://www.w3.org/2000/svg" xmlns:xlink="http://www.w3.org/1999/xlink" xml:space="preserve" overflow="hidden"><defs><clipPath id="clip0"><rect x="470" y="460" width="3001" height="1651"/></clipPath></defs><g clip-path="url(#clip0)" transform="translate(-470 -460)"><path d="M1222 1312 1198.79 1342.9 1185 1358 1188.21 1348.88C1193.24 1339.35 1199.78 1330.42 1207.82 1322.41L1222 1312Z" fill="#47D45A" fill-rule="evenodd"/><path d="M1205.08 986 1211.58 986.326 1222 987.908 1220.75 1000.91C1216.72 1021.59 1206.65 1041.35 1190.54 1057.36 1174.44 1073.38 1154.57 1083.4 1133.78 1087.4L1117 1089 1118.61 1072.32C1122.63 1051.63 1132.7 1031.88 1148.81 1015.86 1156.86 1007.85 1165.86 1001.34 1175.44 996.337L1205.08 986Z" fill="#FFFFFF" fill-rule="evenodd"/><path d="M1118 988 1116.74 1001.16C1112.75 1021.78 1102.78 1041.48 1086.83 1057.45 1070.88 1073.43 1051.21 1083.41 1030.61 1087.41L1014 1089 1015.59 1072.36C1019.58 1051.74 1029.55 1032.04 1045.5 1016.07 1053.48 1008.08 1062.38 1001.59 1071.87 996.598L1071.99 996.555 1086.55 992.807 1118 988Z" fill="#FFFFFF" fill-rule="evenodd"/><path d="M1275.75 999 1284.13 1001.15 1290 1039.66 1291 1059.53 1267.41 1076.94C1257.93 1081.93 1247.88 1085.41 1237.59 1087.41L1221 1089 1222.59 1072.39C1226.57 1051.8 1236.53 1032.14 1252.46 1016.19L1275.75 999Z" fill="#FFFFFF" fill-rule="evenodd"/><path d="M1008 1017 1003.19 1030.68C998.159 1040.24 991.614 1049.21 983.558 1057.25 967.447 1073.33 947.582 1083.38 926.779 1087.4L910 1089 911.316 1075.3 939.776 1054.06C950.738 1046.67 962.075 1039.79 973.752 1033.46L1008 1017Z" fill="#FFFFFF" fill-rule="evenodd"/><path d="M1000 1085 998.397 1101.72C994.384 1122.45 984.35 1142.24 968.296 1158.3 952.243 1174.35 932.449 1184.38 911.719 1188.4L895 1190 896.602 1173.28C900.616 1152.55 910.65 1132.76 926.703 1116.7 942.757 1100.65 962.552 1090.62 983.281 1086.6L1000 1085Z" fill="#FFFFFF" fill-rule="evenodd"/><path d="M1104 1085 1102.4 1101.72C1098.38 1122.45 1088.35 1142.24 1072.3 1158.3 1056.24 1174.35 1036.45 1184.38 1015.72 1188.4L999 1190 1000.6 1173.28C1004.62 1152.55 1014.65 1132.76 1030.7 1116.7 1046.76 1100.65 1066.55 1090.62 1087.28 1086.6L1104 1085Z" fill="#FFFFFF" fill-rule="evenodd"/><path d="M1207 1085 1205.4 1101.72C1201.38 1122.45 1191.35 1142.24 1175.3 1158.3 1159.24 1174.35 1139.45 1184.38 1118.72 1188.4L1102 1190 1103.6 1173.28C1107.62 1152.55 1117.65 1132.76 1133.7 1116.7 1149.76 1100.65 1169.55 1090.62 1190.28 1086.6L1207 1085Z" fill="#FFFFFF" fill-rule="evenodd"/><path d="M1292 1087 1290.17 1123.55 1286.44 1148.1 1279.04 1158.2C1263.04 1174.3 1243.32 1184.37 1222.66 1188.39L1206 1190 1207.6 1173.23C1211.6 1152.44 1221.59 1132.59 1237.59 1116.49 1245.59 1108.44 1254.52 1101.9 1264.04 1096.87L1292 1087Z" fill="#FFFFFF" fill-rule="evenodd"/><path d="M896 1089 894.788 1101.67C890.805 1122.29 880.846 1141.98 864.913 1157.95 856.946 1165.94 848.051 1172.43 838.576 1177.42L817 1185 829.071 1165.09C843.718 1143.36 860.397 1123.11 878.835 1104.64L896 1089Z" fill="#FFFFFF" fill-rule="evenodd"/><path d="M882 1188 880.398 1204.72C876.384 1225.45 866.35 1245.24 850.296 1261.3 834.243 1277.35 814.448 1287.38 793.719 1291.4L777 1293 778.602 1276.28C782.616 1255.55 792.649 1235.76 808.703 1219.7 824.757 1203.65 844.552 1193.62 865.281 1189.6L882 1188Z" fill="#FFFFFF" fill-rule="evenodd"/><path d="M985 1188 983.397 1204.72C979.384 1225.45 969.35 1245.24 953.296 1261.3 937.242 1277.35 917.448 1287.38 896.719 1291.4L880 1293 881.602 1276.28C885.616 1255.55 895.649 1235.76 911.703 1219.7 927.757 1203.65 947.551 1193.62 968.281 1189.6L985 1188Z" fill="#FFFFFF" fill-rule="evenodd"/><path d="M1089 1188 1087.4 1204.72C1083.38 1225.45 1073.35 1245.24 1057.3 1261.3 1041.24 1277.35 1021.45 1287.38 1000.72 1291.4L984 1293 985.603 1276.28C989.616 1255.55 999.65 1235.76 1015.7 1219.7 1031.76 1203.65 1051.55 1193.62 1072.28 1189.6L1089 1188Z" fill="#FFFFFF" fill-rule="evenodd"/><path d="M1192 1188 1190.4 1204.72C1186.38 1225.45 1176.35 1245.24 1160.3 1261.3 1144.24 1277.35 1124.45 1287.38 1103.72 1291.4L1087 1293 1088.6 1276.28C1092.62 1255.55 1102.65 1235.76 1118.7 1219.7 1134.76 1203.65 1154.55 1193.62 1175.28 1189.6L1192 1188Z" fill="#FFFFFF" fill-rule="evenodd"/><path d="M1278 1190 1274.47 1203.69C1270.45 1216.57 1265.81 1229.19 1260.59 1241.49L1243.56 1276.75 1237.99 1280.84C1228.4 1285.86 1218.22 1289.38 1207.8 1291.39L1191 1293 1192.61 1276.25C1196.64 1255.48 1206.73 1235.64 1222.86 1219.56 1230.93 1211.52 1239.93 1204.98 1249.53 1199.96L1278 1190Z" fill="#FFFFFF" fill-rule="evenodd"/><path d="M867 1291 865.397 1307.72C861.384 1328.45 851.35 1348.24 835.296 1364.3 819.243 1380.35 799.449 1390.38 778.719 1394.4L762 1396 763.602 1379.28C767.616 1358.55 777.65 1338.76 793.703 1322.7 809.757 1306.65 829.552 1296.62 850.281 1292.6L867 1291Z" fill="#FFFFFF" fill-rule="evenodd"/><path d="M970 1291 968.398 1307.72C964.384 1328.45 954.35 1348.24 938.296 1364.3 922.243 1380.35 902.448 1390.38 881.719 1394.4L865 1396 866.602 1379.28C870.616 1358.55 880.649 1338.76 896.703 1322.7 912.757 1306.65 932.552 1296.62 953.281 1292.6L970 1291Z" fill="#FFFFFF" fill-rule="evenodd"/><path d="M1074 1291 1072.4 1307.72C1068.38 1328.45 1058.35 1348.24 1042.3 1364.3 1026.24 1380.35 1006.45 1390.38 985.719 1394.4L969 1396 970.603 1379.28C974.616 1358.55 984.649 1338.76 1000.7 1322.7 1016.76 1306.65 1036.55 1296.62 1057.28 1292.6L1074 1291Z" fill="#FFFFFF" fill-rule="evenodd"/><path d="M1177 1291 1175.4 1307.72C1171.38 1328.45 1161.35 1348.24 1145.3 1364.3 1129.24 1380.35 1109.45 1390.38 1088.72 1394.4L1072 1396 1073.6 1379.28C1077.62 1358.55 1087.65 1338.76 1103.7 1322.7 1119.76 1306.65 1139.55 1296.62 1160.28 1292.6L1177 1291Z" fill="#FFFFFF" fill-rule="evenodd"/><path d="M852 1394 850.386 1410.8C846.344 1431.62 836.24 1451.51 820.073 1467.64L797.83 1484 766.309 1475.91 762 1447.75 778.186 1425.85C794.353 1409.72 814.287 1399.64 835.163 1395.61L852 1394Z" fill="#FFFFFF" fill-rule="evenodd"/><path d="M955 1394 953.4 1410.87C949.394 1431.78 939.379 1451.76 923.355 1467.95 915.343 1476.05 906.398 1482.63 896.869 1487.7L881.999 1492.97 881.372 1493 851 1491.45 851.794 1483.07C855.8 1462.16 865.815 1442.19 881.839 1425.99 897.863 1409.79 917.621 1399.67 938.312 1395.62L955 1394Z" fill="#FFFFFF" fill-rule="evenodd"/><path d="M1059 1394 1057.39 1410.87C1055.38 1421.33 1051.86 1431.55 1046.82 1441.18L1029.44 1464.89 1003.68 1474.38C990.784 1478.41 977.615 1481.83 964.208 1484.59L955 1486 955.278 1483.08C959.304 1462.16 969.37 1442.19 985.474 1425.99 1001.58 1409.79 1021.43 1399.67 1042.23 1395.62L1059 1394Z" fill="#FFFFFF" fill-rule="evenodd"/><path d="M1146 1396 1142.93 1398.8C1122.54 1415.71 1100.51 1430.69 1077.11 1443.46L1076 1444 1088.89 1426.43C1105.03 1410.21 1124.93 1400.08 1145.77 1396.02L1146 1396Z" fill="#FFFFFF" fill-rule="evenodd"/><path d="M881.5 671C1080.36 671 1246.27 811.889 1284.64 999.182L1284.95 1001.19 1276.49 999.019 1252.98 1016.34C1236.89 1032.41 1226.83 1052.22 1222.81 1072.97L1221.2 1089.71 1237.96 1088.1C1248.35 1086.09 1258.5 1082.58 1268.07 1077.56L1291.89 1060.01 1293 1082.02 1292.72 1087.56 1264.6 1097.41C1255.03 1102.43 1246.05 1108.96 1238 1116.99 1221.92 1133.06 1211.86 1152.87 1207.84 1173.62L1206.23 1190.36 1222.99 1188.76C1243.76 1184.74 1263.6 1174.69 1279.69 1158.62L1287.13 1148.54 1284.64 1164.85 1278.02 1190.56 1249.63 1200.51C1240.06 1205.53 1231.08 1212.06 1223.03 1220.09 1206.94 1236.16 1196.89 1255.97 1192.87 1276.72L1191.26 1293.46 1208.02 1291.86C1218.4 1289.85 1228.56 1286.33 1238.12 1281.31L1243.68 1277.22 1243.33 1277.93C1237 1289.58 1230.12 1300.89 1222.72 1311.82L1222.25 1312.45 1208.06 1322.9C1200.02 1330.93 1193.48 1339.91 1188.45 1349.46L1185.24 1358.62 1172.47 1372.65 1146.31 1396.4 1146.08 1396.42C1125.31 1400.44 1105.47 1410.48 1089.38 1426.55L1076.53 1443.96 1041.67 1460.73 1029.6 1465.14 1046.97 1441.62C1052 1432.07 1055.52 1421.93 1057.53 1411.55L1059.13 1394.82 1042.38 1396.42C1021.6 1400.44 1001.77 1410.48 985.677 1426.55 969.588 1442.62 959.533 1462.43 955.511 1483.18L955.233 1486.08 923.573 1490.91 882.13 1493 897.06 1487.77C906.627 1482.75 915.608 1476.22 923.652 1468.19 939.741 1452.12 949.796 1432.3 953.819 1411.55L955.425 1394.82 938.669 1396.42C917.895 1400.44 898.058 1410.48 881.969 1426.55 865.881 1442.62 855.825 1462.43 851.803 1483.18L851.006 1491.49 839.427 1490.91C825.593 1489.51 811.962 1487.42 798.568 1484.68L797.811 1484.49 819.945 1468.19C836.034 1452.12 846.089 1432.3 850.111 1411.55L851.717 1394.82 834.962 1396.42C814.188 1400.44 794.35 1410.48 778.262 1426.55L762.155 1448.37 766.443 1476.43 759.133 1474.55C591.624 1422.51 470 1266.45 470 1082.02 470 855.018 654.235 671 881.5 671ZM1205.47 986.384 1175.86 996.753C1166.29 1001.78 1157.31 1008.3 1149.27 1016.34 1133.18 1032.41 1123.12 1052.22 1119.1 1072.97L1117.5 1089.71 1134.25 1088.1C1155.03 1084.09 1174.86 1074.04 1190.95 1057.97 1207.04 1041.9 1217.1 1022.09 1221.12 1001.34L1222.37 988.297 1211.96 986.711 1205.47 986.384ZM1207.75 1085.26 1191 1086.86C1170.22 1090.88 1150.39 1100.92 1134.3 1116.99 1118.21 1133.06 1108.15 1152.87 1104.13 1173.62L1102.53 1190.36 1119.28 1188.76C1140.05 1184.74 1159.89 1174.69 1175.98 1158.62 1192.07 1142.56 1202.12 1122.74 1206.15 1101.99L1207.75 1085.26ZM1192.78 1188.36 1176.03 1189.96C1155.25 1193.98 1135.41 1204.02 1119.33 1220.09 1103.24 1236.16 1093.18 1255.97 1089.16 1276.72L1087.55 1293.46 1104.31 1291.86C1125.08 1287.84 1144.92 1277.79 1161.01 1261.73 1177.1 1245.66 1187.15 1225.84 1191.18 1205.09L1192.78 1188.36ZM1177.81 1291.17 1161.06 1292.77C1140.28 1296.79 1120.44 1306.83 1104.36 1322.9 1088.27 1338.97 1078.21 1358.78 1074.19 1379.53L1072.58 1396.27 1089.34 1394.66C1110.11 1390.65 1129.95 1380.6 1146.04 1364.53 1162.13 1348.46 1172.18 1328.65 1176.2 1307.9L1177.81 1291.17ZM1118.68 988.104 1086.96 992.939 1072.28 996.71 1072.15 996.753C1062.59 1001.77 1053.6 1008.3 1045.56 1016.34 1029.47 1032.41 1019.42 1052.22 1015.39 1072.97L1013.79 1089.71 1030.54 1088.1C1051.32 1084.09 1071.15 1074.04 1087.24 1057.97 1103.33 1041.9 1113.39 1022.09 1117.41 1001.34L1118.68 988.104ZM1104.04 1085.26 1087.29 1086.86C1066.52 1090.88 1046.68 1100.92 1030.59 1116.99 1014.5 1133.06 1004.45 1152.87 1000.42 1173.62L998.818 1190.36 1015.57 1188.76C1036.35 1184.74 1056.18 1174.69 1072.27 1158.62 1088.36 1142.56 1098.42 1122.74 1102.44 1101.99L1104.04 1085.26ZM1089.07 1188.36 1072.32 1189.96C1051.54 1193.98 1031.71 1204.02 1015.62 1220.09 999.53 1236.16 989.475 1255.97 985.453 1276.72L983.847 1293.46 1000.6 1291.86C1021.38 1287.84 1041.21 1277.79 1057.3 1261.73 1073.39 1245.66 1083.45 1225.84 1087.47 1205.09L1089.07 1188.36ZM1074.1 1291.17 1057.35 1292.77C1036.57 1296.79 1016.74 1306.83 1000.65 1322.9 984.559 1338.97 974.504 1358.78 970.482 1379.53L968.876 1396.27 985.631 1394.66C1006.41 1390.65 1026.24 1380.6 1042.33 1364.53 1058.42 1348.46 1068.47 1328.65 1072.5 1307.9L1074.1 1291.17ZM1007.94 1017.74 973.745 1034.2C962.083 1040.52 950.762 1047.4 939.816 1054.78L911.395 1076.01 910.082 1089.71 926.837 1088.1C947.611 1084.09 967.448 1074.04 983.536 1057.97 991.581 1049.94 998.117 1040.97 1003.14 1031.41L1007.94 1017.74ZM1000.34 1085.26 983.582 1086.86C962.808 1090.88 942.971 1100.92 926.882 1116.99 910.794 1133.06 900.738 1152.87 896.716 1173.62L895.11 1190.36 911.866 1188.76C932.64 1184.74 952.477 1174.69 968.565 1158.62 984.654 1142.56 994.709 1122.74 998.731 1101.99L1000.34 1085.26ZM985.366 1188.36 968.611 1189.96C947.837 1193.98 928 1204.02 911.911 1220.09 895.823 1236.16 885.767 1255.97 881.745 1276.72L880.139 1293.46 896.895 1291.86C917.669 1287.84 937.506 1277.79 953.594 1261.73 969.683 1245.66 979.738 1225.84 983.76 1205.09L985.366 1188.36ZM970.396 1291.17 953.64 1292.77C932.866 1296.79 913.029 1306.83 896.94 1322.9 880.852 1338.97 870.796 1358.78 866.774 1379.53L865.168 1396.27 881.924 1394.66C902.698 1390.65 922.535 1380.6 938.623 1364.53 954.712 1348.46 964.767 1328.65 968.789 1307.9L970.396 1291.17ZM896.248 1089.24 878.915 1104.97C860.299 1123.57 843.457 1143.94 828.667 1165.8L816.479 1185.84 838.265 1178.21C847.832 1173.19 856.814 1166.66 864.858 1158.62 880.946 1142.56 891.002 1122.74 895.024 1101.99L896.248 1089.24ZM881.659 1188.36 864.904 1189.96C844.13 1193.98 824.292 1204.02 808.204 1220.09 792.115 1236.16 782.06 1255.97 778.038 1276.72L776.432 1293.46 793.187 1291.86C813.961 1287.84 833.798 1277.79 849.887 1261.73 865.975 1245.66 876.031 1225.84 880.053 1205.09L881.659 1188.36ZM866.688 1291.17 849.933 1292.77C829.159 1296.79 809.321 1306.83 793.233 1322.9 777.144 1338.97 767.089 1358.78 763.067 1379.53L761.461 1396.27 778.216 1394.66C798.99 1390.65 818.827 1380.6 834.916 1364.53 851.004 1348.46 861.06 1328.65 865.082 1307.9L866.688 1291.17Z" fill="#47D45A" fill-rule="evenodd"/><path d="M1285 1001 1292.18 1002.88 1320 1013.27 1313.8 1031.31C1308.86 1040.9 1302.44 1049.89 1294.54 1057.95L1291.82 1060 1290.82 1039.92 1285 1001Z" fill="#47D45A" fill-rule="evenodd"/><path d="M1348.64 1026 1365.37 1033.94C1377.11 1040.21 1388.5 1047.03 1399.51 1054.36L1400 1054.72 1397.9 1057.52C1381.72 1073.46 1361.76 1083.42 1340.86 1087.41L1324 1089 1325.62 1072.4C1327.64 1062.11 1331.18 1052.05 1336.24 1042.57L1348.64 1026Z" fill="#47D45A" fill-rule="evenodd"/><path d="M1429.21 1077 1431.03 1078.29 1442 1087.73 1428 1089 1429.21 1077Z" fill="#47D45A" fill-rule="evenodd"/><path d="M1311 1085 1309.42 1101.66C1307.43 1111.99 1303.96 1122.08 1299 1131.6L1287 1148 1290.69 1123.61 1292.51 1087.29 1294.47 1086.6 1311 1085Z" fill="#47D45A" fill-rule="evenodd"/><path d="M1415 1085 1413.38 1101.72C1409.33 1122.45 1399.2 1142.24 1382.99 1158.3 1366.79 1174.35 1346.81 1184.38 1325.88 1188.4L1309 1190 1310.62 1173.28C1314.67 1152.55 1324.8 1132.76 1341.01 1116.7 1357.21 1100.65 1377.19 1090.62 1398.12 1086.6L1415 1085Z" fill="#47D45A" fill-rule="evenodd"/><path d="M1460.74 1105 1487.04 1133.8 1496 1145.73 1486.71 1158.27C1470.57 1174.34 1450.66 1184.38 1429.81 1188.4L1413 1190 1414.61 1173.26C1418.65 1152.52 1428.74 1132.7 1444.88 1116.63L1460.74 1105Z" fill="#47D45A" fill-rule="evenodd"/><path d="M1518.15 1178 1525 1189.24 1517 1190 1518.15 1178Z" fill="#47D45A" fill-rule="evenodd"/><path d="M1296 1188 1294.39 1204.76C1290.35 1225.54 1280.26 1245.39 1264.12 1261.48L1243 1277 1260.05 1241.73C1265.27 1229.41 1269.91 1216.8 1273.93 1203.91L1277.47 1190.21 1279.19 1189.61 1296 1188Z" fill="#47D45A" fill-rule="evenodd"/><path d="M1400 1188 1398.4 1204.72C1394.38 1225.45 1384.35 1245.24 1368.3 1261.3 1352.24 1277.35 1332.45 1287.38 1311.72 1291.4L1295 1293 1296.6 1276.28C1300.62 1255.55 1310.65 1235.76 1326.7 1219.7 1342.76 1203.65 1362.55 1193.62 1383.28 1189.6L1400 1188Z" fill="#47D45A" fill-rule="evenodd"/><path d="M1503 1188 1501.4 1204.72C1497.38 1225.45 1487.35 1245.24 1471.3 1261.3 1455.24 1277.35 1435.45 1287.38 1414.72 1291.4L1398 1293 1399.6 1276.28C1403.62 1255.55 1413.65 1235.76 1429.7 1219.7 1445.76 1203.65 1465.55 1193.62 1486.28 1189.6L1503 1188Z" fill="#47D45A" fill-rule="evenodd"/><path d="M1539.3 1216 1548.75 1235.45 1562 1271.36 1548.95 1280.91C1539.36 1285.91 1529.19 1289.41 1518.78 1291.4L1502 1293 1503.61 1276.35C1507.64 1255.71 1517.71 1235.99 1533.83 1220L1539.3 1216Z" fill="#47D45A" fill-rule="evenodd"/><path d="M1281 1291 1279.4 1307.72C1275.38 1328.45 1265.35 1348.24 1249.3 1364.3 1233.24 1380.35 1213.45 1390.38 1192.72 1394.4L1176 1396 1177.6 1379.28 1184.93 1358.39 1198.69 1343.24 1221.86 1312.27 1234.24 1303.14C1243.79 1298.12 1253.92 1294.61 1264.28 1292.6L1281 1291Z" fill="#47D45A" fill-rule="evenodd"/><path d="M1385 1291 1383.4 1307.72C1379.38 1328.45 1369.35 1348.24 1353.3 1364.3 1337.24 1380.35 1317.45 1390.38 1296.72 1394.4L1280 1396 1281.6 1379.28C1285.62 1358.55 1295.65 1338.76 1311.7 1322.7 1327.76 1306.65 1347.55 1296.62 1368.28 1292.6L1385 1291Z" fill="#47D45A" fill-rule="evenodd"/><path d="M1488 1291 1486.4 1307.72C1482.38 1328.45 1472.35 1348.24 1456.3 1364.3 1440.24 1380.35 1420.45 1390.38 1399.72 1394.4L1383 1396 1384.6 1379.28C1388.62 1358.55 1398.65 1338.76 1414.7 1322.7 1430.76 1306.65 1450.55 1296.62 1471.28 1292.6L1488 1291Z" fill="#47D45A" fill-rule="evenodd"/><path d="M1568.05 1295 1572.54 1312.44 1577 1341.7 1560.39 1364.24C1544.31 1380.32 1524.49 1390.37 1503.74 1394.39L1487 1396 1488.6 1379.25C1492.62 1358.49 1502.67 1338.66 1518.74 1322.58 1526.78 1314.54 1535.75 1308 1545.31 1302.98L1568.05 1295Z" fill="#47D45A" fill-rule="evenodd"/><path d="M1163 1394 1161.38 1410.88C1157.33 1431.81 1147.2 1451.79 1130.99 1467.99 1114.79 1484.2 1094.81 1494.33 1073.88 1498.38L1057 1500 1058.62 1483.12C1060.64 1472.66 1064.19 1462.43 1069.25 1452.79L1076.06 1443.56 1077.18 1443.02C1100.67 1430.26 1122.8 1415.29 1143.27 1398.4L1146.35 1395.6 1163 1394Z" fill="#47D45A" fill-rule="evenodd"/><path d="M1266 1394 1264.4 1410.88C1260.38 1431.81 1250.35 1451.79 1234.3 1467.99 1218.24 1484.2 1198.45 1494.33 1177.72 1498.38L1161 1500 1162.6 1483.12C1166.62 1462.19 1176.65 1442.21 1192.7 1426.01 1208.76 1409.8 1228.55 1399.67 1249.28 1395.62L1266 1394Z" fill="#47D45A" fill-rule="evenodd"/><path d="M1370 1394 1368.4 1410.88C1364.38 1431.81 1354.35 1451.79 1338.3 1467.99 1322.24 1484.2 1302.45 1494.33 1281.72 1498.38L1265 1500 1266.6 1483.12C1270.62 1462.19 1280.65 1442.21 1296.7 1426.01 1312.76 1409.8 1332.55 1399.67 1353.28 1395.62L1370 1394Z" fill="#47D45A" fill-rule="evenodd"/><path d="M1473 1394 1471.4 1410.88C1467.38 1431.81 1457.35 1451.79 1441.3 1467.99 1425.24 1484.2 1405.45 1494.33 1384.72 1498.38L1368 1500 1369.6 1483.12C1373.62 1462.19 1383.65 1442.21 1399.7 1426.01 1415.76 1409.8 1435.55 1399.67 1456.28 1395.62L1473 1394Z" fill="#47D45A" fill-rule="evenodd"/><path d="M1577 1394 1575.4 1410.88C1571.38 1431.81 1561.35 1451.79 1545.3 1467.99 1529.24 1484.2 1509.45 1494.33 1488.72 1498.38L1472 1500 1473.6 1483.12C1477.62 1462.19 1487.65 1442.21 1503.7 1426.01 1519.76 1409.8 1539.55 1399.67 1560.28 1395.62L1577 1394Z" fill="#47D45A" fill-rule="evenodd"/><path d="M1029 1465 1026.78 1468.06C1010.84 1484.23 991.182 1494.34 970.6 1498.39L954 1500 955.315 1486.07 964.429 1484.66C977.699 1481.91 990.734 1478.5 1003.5 1474.47L1029 1465Z" fill="#47D45A" fill-rule="evenodd"/><path d="M767 1476 798 1484.01 793.594 1487.27 771.655 1495 767.303 1478 767 1476Z" fill="#47D45A" fill-rule="evenodd"/><path d="M850.81 1491 881.369 1492.64 882 1492.61 866.791 1498.29 850 1500 850.81 1491Z" fill="#47D45A" fill-rule="evenodd"/><path d="M940 1498 938.398 1514.72C934.384 1535.45 924.35 1555.24 908.297 1571.3 892.243 1587.35 872.448 1597.38 851.719 1601.4L835 1603 836.602 1586.28C840.616 1565.55 850.649 1545.76 866.703 1529.7 882.757 1513.65 902.552 1503.62 923.281 1499.6L940 1498Z" fill="#47D45A" fill-rule="evenodd"/><path d="M1044 1498 1042.4 1514.72C1038.38 1535.45 1028.35 1555.24 1012.3 1571.3 996.243 1587.35 976.449 1597.38 955.719 1601.4L939 1603 940.602 1586.28C944.616 1565.55 954.65 1545.76 970.703 1529.7 986.757 1513.65 1006.55 1503.62 1027.28 1499.6L1044 1498Z" fill="#47D45A" fill-rule="evenodd"/><path d="M1148 1498 1146.38 1514.72C1142.33 1535.45 1132.2 1555.24 1115.99 1571.3 1099.79 1587.35 1079.81 1597.38 1058.88 1601.4L1042 1603 1043.62 1586.28C1047.67 1565.55 1057.8 1545.76 1074.01 1529.7 1090.21 1513.65 1110.19 1503.62 1131.12 1499.6L1148 1498Z" fill="#47D45A" fill-rule="evenodd"/><path d="M1251 1498 1249.4 1514.72C1245.38 1535.45 1235.35 1555.24 1219.3 1571.3 1203.24 1587.35 1183.45 1597.38 1162.72 1601.4L1146 1603 1147.6 1586.28C1151.62 1565.55 1161.65 1545.76 1177.7 1529.7 1193.76 1513.65 1213.55 1503.62 1234.28 1499.6L1251 1498Z" fill="#47D45A" fill-rule="evenodd"/><path d="M1355 1498 1353.4 1514.72C1349.38 1535.45 1339.35 1555.24 1323.3 1571.3 1307.24 1587.35 1287.45 1597.38 1266.72 1601.4L1250 1603 1251.6 1586.28C1255.62 1565.55 1265.65 1545.76 1281.7 1529.7 1297.76 1513.65 1317.55 1503.62 1338.28 1499.6L1355 1498Z" fill="#47D45A" fill-rule="evenodd"/><path d="M1458 1498 1456.4 1514.72C1452.38 1535.45 1442.35 1555.24 1426.3 1571.3 1410.24 1587.35 1390.45 1597.38 1369.72 1601.4L1353 1603 1354.6 1586.28C1358.62 1565.55 1368.65 1545.76 1384.7 1529.7 1400.76 1513.65 1420.55 1503.62 1441.28 1499.6L1458 1498Z" fill="#47D45A" fill-rule="evenodd"/><path d="M1562 1498 1560.4 1514.72C1556.38 1535.45 1546.35 1555.24 1530.3 1571.3 1514.24 1587.35 1494.45 1597.38 1473.72 1601.4L1457 1603 1458.6 1586.28C1462.62 1565.55 1472.65 1545.76 1488.7 1529.7 1504.76 1513.65 1524.55 1503.62 1545.28 1499.6L1562 1498Z" fill="#47D45A" fill-rule="evenodd"/><path d="M837 1498 835.376 1514.74C831.309 1535.49 821.141 1555.3 804.872 1571.37L799.889 1575 790.465 1555.68 777 1519.34 789.612 1510.15C799.287 1505.13 809.553 1501.61 820.057 1499.6L837 1498Z" fill="#47D45A" fill-rule="evenodd"/><path d="M822 1600 820.846 1612 814 1600.76 822 1600Z" fill="#47D45A" fill-rule="evenodd"/><path d="M1029 1600 1027.4 1616.88C1023.38 1637.81 1013.35 1657.79 997.296 1673.99 981.242 1690.2 961.448 1700.33 940.719 1704.38L924 1706 925.602 1689.12C929.616 1668.19 939.649 1648.21 955.703 1632.01 971.757 1615.8 991.551 1605.67 1012.28 1601.62L1029 1600Z" fill="#47D45A" fill-rule="evenodd"/><path d="M1133 1600 1131.38 1616.88C1127.33 1637.81 1117.2 1657.79 1100.99 1673.99 1084.79 1690.2 1064.81 1700.33 1043.88 1704.38L1027 1706 1028.62 1689.12C1032.67 1668.19 1042.8 1648.21 1059.01 1632.01 1075.21 1615.8 1095.19 1605.67 1116.12 1601.62L1133 1600Z" fill="#47D45A" fill-rule="evenodd"/><path d="M1236 1600 1234.4 1616.88C1230.38 1637.81 1220.35 1657.79 1204.3 1673.99 1188.24 1690.2 1168.45 1700.33 1147.72 1704.38L1131 1706 1132.6 1689.12C1136.62 1668.19 1146.65 1648.21 1162.7 1632.01 1178.76 1615.8 1198.55 1605.67 1219.28 1601.62L1236 1600Z" fill="#47D45A" fill-rule="evenodd"/><path d="M1340 1600 1338.4 1616.88C1334.38 1637.81 1324.35 1657.79 1308.3 1673.99 1292.24 1690.2 1272.45 1700.33 1251.72 1704.38L1235 1706 1236.6 1689.12C1240.62 1668.19 1250.65 1648.21 1266.7 1632.01 1282.76 1615.8 1302.55 1605.67 1323.28 1601.62L1340 1600Z" fill="#47D45A" fill-rule="evenodd"/><path d="M1443 1600 1441.4 1616.88C1437.38 1637.81 1427.35 1657.79 1411.3 1673.99 1395.24 1690.2 1375.45 1700.33 1354.72 1704.38L1338 1706 1339.6 1689.12C1343.62 1668.19 1353.65 1648.21 1369.7 1632.01 1385.76 1615.8 1405.55 1605.67 1426.28 1601.62L1443 1600Z" fill="#47D45A" fill-rule="evenodd"/><path d="M925 1600 923.402 1616.78C919.401 1637.59 909.398 1657.46 893.394 1673.57L878.001 1685 852.256 1656.48 843 1644.02 851.929 1631.82C867.933 1615.71 887.667 1605.64 908.332 1601.61L925 1600Z" fill="#47D45A" fill-rule="evenodd"/><path d="M1523 1605 1510.5 1625.34C1495.67 1647.05 1478.78 1667.27 1460.11 1685.73L1442 1702 1443.3 1688.56C1447.34 1667.96 1457.42 1648.29 1473.56 1632.34 1481.62 1624.36 1490.63 1617.88 1500.23 1612.9L1523 1605Z" fill="#47D45A" fill-rule="evenodd"/><path d="M910 1701 908.865 1713 907.712 1712.13 897 1702.26 910 1701Z" fill="#47D45A" fill-rule="evenodd"/><path d="M1014 1701 1012.4 1717.64C1010.4 1727.95 1006.9 1738.03 1001.9 1747.53L989.727 1764 973.723 1756.31C962.119 1750.02 950.853 1743.18 939.96 1735.84L939 1735.12 940.904 1732.55C956.914 1716.57 976.654 1706.59 997.327 1702.59L1014 1701Z" fill="#47D45A" fill-rule="evenodd"/><path d="M1118 1701 1116.38 1717.8C1112.33 1738.63 1102.21 1758.52 1086.02 1774.65L1062.39 1792 1047.13 1788.09 1018 1777.47 1024.32 1759.52C1029.38 1749.92 1035.96 1740.92 1044.06 1732.85 1060.25 1716.72 1080.22 1706.64 1101.13 1702.61L1118 1701Z" fill="#47D45A" fill-rule="evenodd"/><path d="M1221 1701 1219.39 1717.67C1215.36 1738.34 1205.3 1758.08 1189.19 1774.08 1181.14 1782.09 1172.14 1788.59 1162.57 1793.59L1132.7 1804 1127.07 1803.72 1116 1802.04 1117.26 1789.02C1121.28 1768.35 1131.35 1748.62 1147.46 1732.61 1163.56 1716.6 1183.43 1706.6 1204.22 1702.6L1221 1701Z" fill="#47D45A" fill-rule="evenodd"/><path d="M1325 1701 1323.39 1717.76C1319.37 1738.55 1309.3 1758.39 1293.2 1774.49 1285.15 1782.54 1276.16 1789.08 1266.59 1794.11L1263.35 1795.24 1252.42 1798.05 1220 1803 1221.29 1789.52C1225.32 1768.73 1235.38 1748.88 1251.48 1732.79 1267.59 1716.69 1287.44 1706.63 1308.23 1702.61L1325 1701Z" fill="#47D45A" fill-rule="evenodd"/><path d="M1428 1701 1426.64 1715.45 1399.22 1736.29C1388.4 1743.73 1377.2 1750.65 1365.66 1757.03L1331 1774 1335.93 1759.71C1340.9 1750.08 1347.37 1741.05 1355.33 1732.96 1371.25 1716.77 1390.87 1706.66 1411.42 1702.61L1428 1701Z" fill="#47D45A" fill-rule="evenodd"/><text fill="#404040" font-family="Aharoni,Aharoni_MSFontService,sans-serif" font-weight="700" font-size="367" transform="matrix(1 0 0 1 1812.44 898)">C</text><text fill="#404040" font-family="Aharoni,Aharoni_MSFontService,sans-serif" font-weight="700" font-size="367" transform="matrix(1 0 0 1 2029 898)">anopy </text><text fill="#404040" font-family="Aharoni,Aharoni_MSFontService,sans-serif" font-weight="700" font-size="367" transform="matrix(1 0 0 1 1812.44 1338)">S</text><text fill="#404040" font-family="Aharoni,Aharoni_MSFontService,sans-serif" font-weight="700" font-size="367" transform="matrix(1 0 0 1 2022.13 1338)">hade</text><text fill="#404040" font-family="Aharoni,Aharoni_MSFontService,sans-serif" font-weight="700" font-size="367" transform="matrix(1 0 0 1 1812.44 1778)">Mapper</text></g></svg>