<svg width="3011" height="1248" xmlns="http://www.w3.org/2000/svg" xmlns:xlink="http://www.w3.org/1999/xlink" xml:space="preserve" overflow="hidden"><g transform="translate(-1012 -937)"><path d="M2623 1277 2610.45 1293.79 2603 1302 2604.74 1297.04C2607.45 1291.87 2610.99 1287.01 2615.33 1282.66L2623 1277Z" fill="#47D45A" fill-rule="evenodd"/><path d="M2442 937C2547.35 937 2635.24 1011.73 2655.57 1111.07L2655.73 1112.14 2651.25 1110.99 2638.8 1120.17C2630.27 1128.7 2624.95 1139.21 2622.82 1150.21L2621.96 1159.09 2630.84 1158.24C2636.34 1157.17 2641.72 1155.31 2646.79 1152.64L2659.41 1143.34 2660 1155.01 2659.85 1157.95 2644.95 1163.17C2639.88 1165.84 2635.13 1169.3 2630.86 1173.56 2622.34 1182.08 2617.01 1192.59 2614.88 1203.6L2614.03 1212.48 2622.91 1211.62C2633.92 1209.49 2644.42 1204.17 2652.95 1195.64L2656.89 1190.29 2655.57 1198.94 2652.06 1212.58 2637.02 1217.86C2631.95 1220.52 2627.2 1223.98 2622.93 1228.25 2614.41 1236.77 2609.08 1247.28 2606.95 1258.28L2606.1 1267.16 2614.98 1266.31C2620.48 1265.24 2625.86 1263.38 2630.93 1260.72L2633.87 1258.55 2633.69 1258.92C2630.33 1265.1 2626.69 1271.1 2622.77 1276.9L2622.52 1277.24 2615 1282.78C2610.74 1287.04 2607.28 1291.8 2604.61 1296.87L2602.91 1301.72 2596.15 1309.16 2582.29 1321.76 2582.17 1321.77C2571.16 1323.9 2560.65 1329.23 2552.13 1337.75L2545.32 1346.99 2526.86 1355.88 2520.46 1358.22 2529.66 1345.75C2532.32 1340.68 2534.19 1335.3 2535.25 1329.8L2536.1 1320.92 2527.23 1321.77C2516.22 1323.9 2505.71 1329.23 2497.19 1337.75 2488.67 1346.28 2483.34 1356.79 2481.21 1367.79L2481.06 1369.33 2464.29 1371.89 2442.33 1373 2450.24 1370.23C2455.31 1367.56 2460.07 1364.1 2464.33 1359.84 2472.85 1351.31 2478.18 1340.8 2480.31 1329.8L2481.16 1320.92 2472.29 1321.77C2461.28 1323.9 2450.77 1329.23 2442.25 1337.75 2433.73 1346.28 2428.4 1356.79 2426.27 1367.79L2425.85 1372.2 2419.71 1371.89C2412.38 1371.15 2405.16 1370.04 2398.07 1368.59L2397.66 1368.48 2409.39 1359.84C2417.91 1351.31 2423.24 1340.8 2425.37 1329.8L2426.22 1320.92 2417.35 1321.77C2406.34 1323.9 2395.83 1329.23 2387.31 1337.75L2378.77 1349.33 2381.05 1364.21 2377.17 1363.22C2288.43 1335.61 2224 1252.84 2224 1155.01 2224 1034.61 2321.6 937 2442 937ZM2613.63 1104.28 2597.94 1109.78C2592.88 1112.45 2588.12 1115.91 2583.86 1120.17 2575.33 1128.7 2570.01 1139.21 2567.87 1150.21L2567.02 1159.09 2575.9 1158.24C2586.91 1156.11 2597.41 1150.78 2605.94 1142.26 2614.46 1133.73 2619.79 1123.22 2621.92 1112.22L2622.58 1105.3 2617.07 1104.46 2613.63 1104.28ZM2614.84 1156.73 2605.96 1157.58C2594.96 1159.71 2584.45 1165.04 2575.92 1173.56 2567.4 1182.08 2562.07 1192.59 2559.94 1203.6L2559.09 1212.48 2567.97 1211.62C2578.97 1209.49 2589.48 1204.17 2598.01 1195.64 2606.53 1187.12 2611.86 1176.61 2613.99 1165.6L2614.84 1156.73ZM2606.91 1211.41 2598.03 1212.26C2587.03 1214.39 2576.52 1219.72 2567.99 1228.25 2559.47 1236.77 2554.14 1247.28 2552.01 1258.28L2551.16 1267.16 2560.04 1266.31C2571.04 1264.18 2581.55 1258.85 2590.08 1250.33 2598.6 1241.81 2603.93 1231.3 2606.06 1220.29L2606.91 1211.41ZM2598.98 1265.94 2590.1 1266.79C2579.09 1268.93 2568.58 1274.25 2560.06 1282.78 2551.54 1291.3 2546.21 1301.81 2544.08 1312.82L2543.23 1321.69 2552.11 1320.84C2563.11 1318.71 2573.62 1313.38 2582.14 1304.86 2590.67 1296.34 2595.99 1285.83 2598.13 1274.82L2598.98 1265.94ZM2567.65 1105.2 2550.85 1107.76 2543.07 1109.76 2543 1109.78C2537.93 1112.45 2533.18 1115.91 2528.91 1120.17 2520.39 1128.7 2515.06 1139.21 2512.93 1150.21L2512.08 1159.09 2520.96 1158.24C2531.96 1156.11 2542.47 1150.78 2551 1142.26 2559.52 1133.73 2564.85 1123.22 2566.98 1112.22L2567.65 1105.2ZM2559.9 1156.73 2551.02 1157.58C2540.02 1159.71 2529.51 1165.04 2520.98 1173.56 2512.46 1182.08 2507.13 1192.59 2505 1203.6L2504.15 1212.48 2513.03 1211.62C2524.03 1209.49 2534.54 1204.17 2543.07 1195.64 2551.59 1187.12 2556.92 1176.61 2559.05 1165.6L2559.9 1156.73ZM2551.97 1211.41 2543.09 1212.26C2532.08 1214.39 2521.58 1219.72 2513.05 1228.25 2504.53 1236.77 2499.2 1247.28 2497.07 1258.28L2496.22 1267.16 2505.1 1266.31C2516.1 1264.18 2526.61 1258.85 2535.13 1250.33 2543.66 1241.81 2548.98 1231.3 2551.12 1220.29L2551.97 1211.41ZM2544.04 1265.94 2535.16 1266.79C2524.15 1268.93 2513.64 1274.25 2505.12 1282.78 2496.6 1291.3 2491.27 1301.81 2489.14 1312.82L2488.29 1321.69 2497.17 1320.84C2508.17 1318.71 2518.68 1313.38 2527.2 1304.86 2535.73 1296.34 2541.05 1285.83 2543.18 1274.82L2544.04 1265.94ZM2508.99 1120.92 2490.87 1129.64C2484.69 1133 2478.69 1136.65 2472.89 1140.56L2457.84 1151.82 2457.14 1159.09 2466.02 1158.24C2477.02 1156.11 2487.53 1150.78 2496.06 1142.26 2500.32 1137.99 2503.78 1133.24 2506.44 1128.17L2508.99 1120.92ZM2504.96 1156.73 2496.08 1157.58C2485.07 1159.71 2474.57 1165.04 2466.04 1173.56 2457.52 1182.08 2452.19 1192.59 2450.06 1203.6L2449.21 1212.48 2458.09 1211.62C2469.09 1209.49 2479.6 1204.17 2488.12 1195.64 2496.65 1187.12 2501.97 1176.61 2504.11 1165.6L2504.96 1156.73ZM2497.03 1211.41 2488.15 1212.26C2477.14 1214.39 2466.63 1219.72 2458.11 1228.25 2449.59 1236.77 2444.26 1247.28 2442.13 1258.28L2441.28 1267.16 2450.16 1266.31C2461.16 1264.18 2471.67 1258.85 2480.19 1250.33 2488.72 1241.81 2494.04 1231.3 2496.17 1220.29L2497.03 1211.41ZM2489.09 1265.94 2480.22 1266.79C2469.21 1268.93 2458.7 1274.25 2450.18 1282.78 2441.66 1291.3 2436.33 1301.81 2434.2 1312.82L2433.35 1321.69 2442.22 1320.84C2453.23 1318.71 2463.74 1313.38 2472.26 1304.86 2480.79 1296.34 2486.11 1285.83 2488.24 1274.82L2489.09 1265.94ZM2449.81 1158.84 2440.63 1167.19C2430.77 1177.05 2421.85 1187.85 2414.01 1199.45L2407.55 1210.08 2419.1 1206.03C2424.16 1203.37 2428.92 1199.9 2433.18 1195.64 2441.71 1187.12 2447.03 1176.61 2449.16 1165.6L2449.81 1158.84ZM2442.08 1211.41 2433.21 1212.26C2422.2 1214.39 2411.69 1219.72 2403.17 1228.25 2394.65 1236.77 2389.32 1247.28 2387.19 1258.28L2386.34 1267.16 2395.21 1266.31C2406.22 1264.18 2416.73 1258.85 2425.25 1250.33 2433.78 1241.81 2439.1 1231.3 2441.23 1220.29L2442.08 1211.41ZM2434.15 1265.94 2425.28 1266.79C2414.27 1268.93 2403.76 1274.25 2395.24 1282.78 2386.72 1291.3 2381.39 1301.81 2379.26 1312.82L2378.41 1321.69 2387.28 1320.84C2398.29 1318.71 2408.8 1313.38 2417.32 1304.86 2425.84 1296.34 2431.17 1285.83 2433.3 1274.82L2434.15 1265.94Z" fill="#47D45A" fill-rule="evenodd"/><path d="M2656 1112 2659.9 1112.99 2675 1118.45 2671.63 1127.93C2668.95 1132.96 2665.47 1137.69 2661.18 1141.92L2659.7 1143 2659.16 1132.45 2656 1112Z" fill="#47D45A" fill-rule="evenodd"/><path d="M2689.97 1125 2698.78 1129.28C2704.95 1132.67 2710.95 1136.35 2716.74 1140.3L2717 1140.5 2715.9 1142.01C2707.38 1150.61 2696.87 1155.99 2685.87 1158.14L2677 1159 2677.85 1150.04C2678.92 1144.49 2680.78 1139.06 2683.44 1133.94L2689.97 1125Z" fill="#47D45A" fill-rule="evenodd"/><path d="M2732.61 1152 2733.52 1152.75 2739 1158.26 2732 1159 2732.61 1152Z" fill="#47D45A" fill-rule="evenodd"/><path d="M2670 1156 2669.14 1164.99C2668.07 1170.57 2666.19 1176.01 2663.5 1181.15L2657 1190 2659 1176.84 2659.99 1157.24 2661.05 1156.86 2670 1156Z" fill="#47D45A" fill-rule="evenodd"/><path d="M2725 1156 2724.15 1164.92C2722 1175.97 2716.65 1186.53 2708.09 1195.09 2699.53 1203.65 2688.97 1209 2677.92 1211.15L2669 1212 2669.85 1203.08C2671.99 1192.03 2677.35 1181.47 2685.91 1172.91 2694.47 1164.35 2705.03 1159 2716.08 1156.85L2725 1156Z" fill="#47D45A" fill-rule="evenodd"/><path d="M2749.31 1167 2763.25 1182.25 2768 1188.56 2763.08 1195.2C2754.52 1203.71 2743.97 1209.02 2732.91 1211.15L2724 1212 2724.85 1203.14C2726.99 1192.16 2732.34 1181.67 2740.9 1173.16L2749.31 1167Z" fill="#47D45A" fill-rule="evenodd"/><path d="M2779.58 1206 2783 1211.62 2779 1212 2779.58 1206Z" fill="#47D45A" fill-rule="evenodd"/><path d="M2662 1211 2661.15 1219.85C2659.02 1230.83 2653.69 1241.31 2645.16 1249.8L2634 1258 2643.01 1239.37C2645.77 1232.87 2648.22 1226.21 2650.34 1219.4L2652.21 1212.17 2653.12 1211.85 2662 1211Z" fill="#47D45A" fill-rule="evenodd"/><path d="M2717 1211 2716.15 1219.92C2714 1230.97 2708.65 1241.53 2700.09 1250.09 2691.53 1258.65 2680.97 1264 2669.92 1266.15L2661 1267 2661.85 1258.08C2664 1247.03 2669.35 1236.47 2677.91 1227.91 2686.47 1219.35 2697.03 1214 2708.08 1211.85L2717 1211Z" fill="#47D45A" fill-rule="evenodd"/><path d="M2772 1211 2771.15 1219.92C2769 1230.97 2763.65 1241.53 2755.09 1250.09 2746.53 1258.65 2735.97 1264 2724.92 1266.15L2716 1267 2716.85 1258.08C2719 1247.03 2724.35 1236.47 2732.91 1227.91 2741.47 1219.35 2752.03 1214 2763.08 1211.85L2772 1211Z" fill="#47D45A" fill-rule="evenodd"/><path d="M2790.9 1226 2795.93 1236.36 2803 1255.48 2796.04 1260.56C2790.93 1263.22 2785.5 1265.09 2779.95 1266.15L2771 1267 2771.86 1258.13C2774.01 1247.14 2779.38 1236.65 2787.97 1228.13L2790.9 1226Z" fill="#47D45A" fill-rule="evenodd"/><path d="M2654 1266 2653.15 1274.92C2651 1285.97 2645.65 1296.53 2637.09 1305.09 2628.53 1313.65 2617.97 1319 2606.92 1321.15L2598 1322 2598.85 1313.08 2602.76 1301.94 2610.1 1293.86 2622.46 1277.34 2629.06 1272.47C2634.15 1269.8 2639.56 1267.92 2645.08 1266.85L2654 1266Z" fill="#47D45A" fill-rule="evenodd"/><path d="M2709 1266 2708.15 1274.92C2706 1285.97 2700.65 1296.53 2692.09 1305.09 2683.53 1313.65 2672.97 1319 2661.92 1321.15L2653 1322 2653.85 1313.08C2656 1302.03 2661.35 1291.47 2669.91 1282.91 2678.47 1274.35 2689.03 1269 2700.08 1266.85L2709 1266Z" fill="#47D45A" fill-rule="evenodd"/><path d="M2764 1266 2763.15 1274.92C2761 1285.97 2755.65 1296.53 2747.09 1305.09 2738.53 1313.65 2727.97 1319 2716.92 1321.15L2708 1322 2708.85 1313.08C2711 1302.03 2716.35 1291.47 2724.91 1282.91 2733.47 1274.35 2744.03 1269 2755.08 1266.85L2764 1266Z" fill="#47D45A" fill-rule="evenodd"/><path d="M2806.23 1268 2808.62 1277.33 2811 1292.97 2802.14 1305.02C2793.57 1313.62 2783 1318.99 2771.93 1321.14L2763 1322 2763.86 1313.05C2766 1301.94 2771.36 1291.34 2779.93 1282.74 2784.22 1278.45 2789 1274.95 2794.1 1272.27L2806.23 1268Z" fill="#47D45A" fill-rule="evenodd"/><path d="M2591 1321 2590.15 1329.92C2588 1340.97 2582.65 1351.53 2574.09 1360.09 2565.53 1368.65 2554.97 1374 2543.92 1376.15L2535 1377 2535.85 1368.08C2536.93 1362.56 2538.8 1357.15 2541.47 1352.06L2545.07 1347.18 2545.66 1346.9C2558.07 1340.16 2569.76 1332.25 2580.58 1323.32L2582.2 1321.84 2591 1321Z" fill="#47D45A" fill-rule="evenodd"/><path d="M2646 1321 2645.15 1329.92C2643 1340.97 2637.65 1351.53 2629.09 1360.09 2620.53 1368.65 2609.97 1374 2598.92 1376.15L2590 1377 2590.85 1368.08C2593 1357.03 2598.35 1346.47 2606.91 1337.91 2615.47 1329.35 2626.03 1324 2637.08 1321.85L2646 1321Z" fill="#47D45A" fill-rule="evenodd"/><path d="M2701 1321 2700.15 1329.92C2698 1340.97 2692.65 1351.53 2684.09 1360.09 2675.53 1368.65 2664.97 1374 2653.92 1376.15L2645 1377 2645.85 1368.08C2648 1357.03 2653.35 1346.47 2661.91 1337.91 2670.47 1329.35 2681.03 1324 2692.08 1321.85L2701 1321Z" fill="#47D45A" fill-rule="evenodd"/><path d="M2756 1321 2755.15 1329.92C2753 1340.97 2747.65 1351.53 2739.09 1360.09 2730.53 1368.65 2719.97 1374 2708.92 1376.15L2700 1377 2700.85 1368.08C2703 1357.03 2708.35 1346.47 2716.91 1337.91 2725.47 1329.35 2736.03 1324 2747.08 1321.85L2756 1321Z" fill="#47D45A" fill-rule="evenodd"/><path d="M2811 1321 2810.15 1329.92C2808 1340.97 2802.65 1351.53 2794.09 1360.09 2785.53 1368.65 2774.97 1374 2763.92 1376.15L2755 1377 2755.85 1368.08C2758 1357.03 2763.35 1346.47 2771.91 1337.91 2780.47 1329.35 2791.03 1324 2802.08 1321.85L2811 1321Z" fill="#47D45A" fill-rule="evenodd"/><path d="M2521 1358 2519.78 1359.66C2511.07 1368.44 2500.33 1373.93 2489.08 1376.12L2480 1377 2480.72 1369.44 2485.7 1368.67C2492.96 1367.18 2500.08 1365.33 2507.06 1363.14L2521 1358Z" fill="#47D45A" fill-rule="evenodd"/><path d="M2381 1364 2398 1368.21 2395.58 1369.93 2383.55 1374 2381.17 1365.05 2381 1364Z" fill="#47D45A" fill-rule="evenodd"/><path d="M2425.43 1372 2441.66 1372.91 2442 1372.89 2433.92 1376.05 2425 1377 2425.43 1372Z" fill="#47D45A" fill-rule="evenodd"/><path d="M2473 1376 2472.15 1384.76C2470 1395.62 2464.65 1405.98 2456.09 1414.39 2447.53 1422.8 2436.97 1428.06 2425.92 1430.16L2417 1431 2417.85 1422.24C2420 1411.38 2425.35 1401.02 2433.91 1392.61 2442.47 1384.2 2453.03 1378.94 2464.08 1376.84L2473 1376Z" fill="#47D45A" fill-rule="evenodd"/><path d="M2528 1376 2527.15 1384.76C2525 1395.62 2519.65 1405.98 2511.09 1414.39 2502.53 1422.8 2491.97 1428.06 2480.92 1430.16L2472 1431 2472.85 1422.24C2475 1411.38 2480.35 1401.02 2488.91 1392.61 2497.47 1384.2 2508.03 1378.94 2519.08 1376.84L2528 1376Z" fill="#47D45A" fill-rule="evenodd"/><path d="M2583 1376 2582.15 1384.76C2580 1395.62 2574.65 1405.98 2566.09 1414.39 2557.53 1422.8 2546.97 1428.06 2535.92 1430.16L2527 1431 2527.85 1422.24C2530 1411.38 2535.35 1401.02 2543.91 1392.61 2552.47 1384.2 2563.03 1378.94 2574.08 1376.84L2583 1376Z" fill="#47D45A" fill-rule="evenodd"/><path d="M2638 1376 2637.15 1384.76C2635 1395.62 2629.65 1405.98 2621.09 1414.39 2612.53 1422.8 2601.97 1428.06 2590.92 1430.16L2582 1431 2582.85 1422.24C2585 1411.38 2590.35 1401.02 2598.91 1392.61 2607.47 1384.2 2618.03 1378.94 2629.08 1376.84L2638 1376Z" fill="#47D45A" fill-rule="evenodd"/><path d="M2693 1376 2692.15 1384.76C2690 1395.62 2684.65 1405.98 2676.09 1414.39 2667.53 1422.8 2656.97 1428.06 2645.92 1430.16L2637 1431 2637.85 1422.24C2640 1411.38 2645.35 1401.02 2653.91 1392.61 2662.47 1384.2 2673.03 1378.94 2684.08 1376.84L2693 1376Z" fill="#47D45A" fill-rule="evenodd"/><path d="M2748 1376 2747.15 1384.76C2745 1395.62 2739.65 1405.98 2731.09 1414.39 2722.53 1422.8 2711.97 1428.06 2700.92 1430.16L2692 1431 2692.85 1422.24C2695 1411.38 2700.35 1401.02 2708.91 1392.61 2717.47 1384.2 2728.03 1378.94 2739.08 1376.84L2748 1376Z" fill="#47D45A" fill-rule="evenodd"/><path d="M2803 1376 2802.15 1384.76C2800 1395.62 2794.65 1405.98 2786.09 1414.39 2777.53 1422.8 2766.97 1428.06 2755.92 1430.16L2747 1431 2747.85 1422.24C2750 1411.38 2755.35 1401.02 2763.91 1392.61 2772.47 1384.2 2783.03 1378.94 2794.08 1376.84L2803 1376Z" fill="#47D45A" fill-rule="evenodd"/><path d="M2418 1376 2417.16 1384.69C2415.06 1395.47 2409.81 1405.77 2401.4 1414.11L2398.83 1416 2393.96 1405.96 2387 1387.08 2393.52 1382.31C2398.51 1379.7 2403.82 1377.88 2409.25 1376.83L2418 1376Z" fill="#47D45A" fill-rule="evenodd"/><path d="M2410 1430 2409.42 1436 2406 1430.38 2410 1430Z" fill="#47D45A" fill-rule="evenodd"/><path d="M2520 1430 2519.16 1438.92C2517.06 1449.97 2511.8 1460.53 2503.39 1469.09 2494.98 1477.65 2484.62 1483 2473.76 1485.15L2465 1486 2465.84 1477.08C2467.94 1466.03 2473.2 1455.47 2481.61 1446.91 2490.02 1438.35 2500.38 1433 2511.24 1430.85L2520 1430Z" fill="#47D45A" fill-rule="evenodd"/><path d="M2575 1430 2574.16 1438.92C2572.06 1449.97 2566.8 1460.53 2558.39 1469.09 2549.98 1477.65 2539.62 1483 2528.76 1485.15L2520 1486 2520.84 1477.08C2522.94 1466.03 2528.2 1455.47 2536.61 1446.91 2545.02 1438.35 2555.38 1433 2566.24 1430.85L2575 1430Z" fill="#47D45A" fill-rule="evenodd"/><path d="M2630 1430 2629.15 1438.92C2627 1449.97 2621.65 1460.53 2613.09 1469.09 2604.53 1477.65 2593.97 1483 2582.92 1485.15L2574 1486 2574.85 1477.08C2577 1466.03 2582.35 1455.47 2590.91 1446.91 2599.47 1438.35 2610.03 1433 2621.08 1430.85L2630 1430Z" fill="#47D45A" fill-rule="evenodd"/><path d="M2685 1430 2684.15 1438.92C2682 1449.97 2676.65 1460.53 2668.09 1469.09 2659.53 1477.65 2648.97 1483 2637.92 1485.15L2629 1486 2629.85 1477.08C2632 1466.03 2637.35 1455.47 2645.91 1446.91 2654.47 1438.35 2665.03 1433 2676.08 1430.85L2685 1430Z" fill="#47D45A" fill-rule="evenodd"/><path d="M2740 1430 2739.15 1438.92C2737 1449.97 2731.65 1460.53 2723.09 1469.09 2714.53 1477.65 2703.97 1483 2692.92 1485.15L2684 1486 2684.85 1477.08C2687 1466.03 2692.35 1455.47 2700.91 1446.91 2709.47 1438.35 2720.03 1433 2731.08 1430.85L2740 1430Z" fill="#47D45A" fill-rule="evenodd"/><path d="M2465 1430 2464.16 1438.88C2462.06 1449.9 2456.82 1460.42 2448.43 1468.95L2440.35 1475 2426.85 1459.9 2422 1453.3 2426.68 1446.85C2435.07 1438.32 2445.42 1432.98 2456.26 1430.85L2465 1430Z" fill="#47D45A" fill-rule="evenodd"/><path d="M2782 1432 2775.52 1442.9C2767.83 1454.54 2759.07 1465.38 2749.39 1475.28L2740 1484 2740.68 1476.8C2742.77 1465.75 2748 1455.21 2756.36 1446.66 2760.55 1442.38 2765.22 1438.91 2770.19 1436.23L2782 1432Z" fill="#47D45A" fill-rule="evenodd"/><path d="M2457 1484 2456.39 1490 2455.77 1489.56 2450 1484.63 2457 1484Z" fill="#47D45A" fill-rule="evenodd"/><path d="M2512 1484 2511.15 1492.71C2510.08 1498.12 2508.21 1503.4 2505.54 1508.37L2499.05 1517 2490.52 1512.97C2484.33 1509.68 2478.32 1506.1 2472.51 1502.25L2472 1501.87 2473.02 1500.53C2481.55 1492.16 2492.08 1486.93 2503.11 1484.84L2512 1484Z" fill="#47D45A" fill-rule="evenodd"/><path d="M2567 1484 2566.16 1492.86C2564.05 1503.85 2558.79 1514.34 2550.37 1522.85L2538.08 1532 2530.15 1529.94 2515 1524.34 2518.29 1514.87C2520.92 1509.81 2524.34 1505.06 2528.55 1500.8 2536.97 1492.29 2547.36 1486.98 2558.23 1484.85L2567 1484Z" fill="#47D45A" fill-rule="evenodd"/><path d="M2622 1484 2621.16 1492.74C2619.05 1503.58 2613.78 1513.92 2605.34 1522.31 2601.12 1526.51 2596.41 1529.92 2591.39 1532.54L2575.75 1538 2572.8 1537.85 2567 1536.97 2567.66 1530.15C2569.77 1519.31 2575.04 1508.96 2583.48 1500.57 2591.92 1492.18 2602.32 1486.94 2613.21 1484.84L2622 1484Z" fill="#47D45A" fill-rule="evenodd"/><path d="M2677 1484 2676.16 1492.87C2674.05 1503.88 2668.78 1514.39 2660.34 1522.91 2656.13 1527.17 2651.42 1530.63 2646.4 1533.29L2644.71 1533.89 2638.98 1535.38 2622 1538 2622.68 1530.86C2624.79 1519.86 2630.06 1509.35 2638.49 1500.83 2646.93 1492.31 2657.33 1486.98 2668.22 1484.85L2677 1484Z" fill="#47D45A" fill-rule="evenodd"/><path d="M2732 1484 2731.27 1491.52 2716.57 1502.37C2710.77 1506.24 2704.76 1509.85 2698.58 1513.16L2680 1522 2682.64 1514.56C2685.31 1509.55 2688.78 1504.85 2693.04 1500.64 2701.57 1492.21 2712.1 1486.95 2723.11 1484.84L2732 1484Z" fill="#47D45A" fill-rule="evenodd"/><text fill="#404040" font-family="Aharoni,Aharoni_MSFontService,sans-serif" font-weight="700" font-size="303" transform="matrix(1 0 0 1 1193.75 1910)">TreeShadeMapper</text></g></svg>