<svg width="4449" height="1928" xmlns="http://www.w3.org/2000/svg" xmlns:xlink="http://www.w3.org/1999/xlink" xml:space="preserve" overflow="hidden"><defs><clipPath id="clip0"><rect x="-78" y="373" width="4449" height="1928"/></clipPath></defs><g clip-path="url(#clip0)" transform="translate(78 -373)"><path d="M2343 930 2322.93 957.537 2311 971 2313.78 962.867C2318.13 954.38 2323.78 946.413 2330.74 939.277L2343 930Z" fill="#47D45A" fill-rule="evenodd"/><path d="M2328.33 647 2333.97 647.285 2343 648.667 2341.91 660.027C2338.42 678.101 2329.7 695.36 2315.74 709.357 2301.78 723.355 2284.57 732.103 2266.54 735.603L2252 737 2253.39 722.422C2256.88 704.348 2265.61 687.089 2279.57 673.092 2286.55 666.094 2294.34 660.407 2302.64 656.033L2328.33 647Z" fill="#FFFFFF" fill-rule="evenodd"/><path d="M2253 649 2251.9 660.464C2248.41 678.435 2239.68 695.596 2225.73 709.514 2211.77 723.432 2194.56 732.131 2176.54 735.611L2162 737 2163.39 722.505C2166.88 704.533 2175.61 687.372 2189.56 673.454 2196.54 666.495 2204.33 660.841 2212.64 656.491L2212.74 656.454 2225.48 653.188 2253 649Z" fill="#FFFFFF" fill-rule="evenodd"/><path d="M2389.71 658 2397.01 659.891 2402.13 693.693 2403 711.133 2382.44 726.416C2374.19 730.791 2365.42 733.853 2356.46 735.603L2342 737 2343.39 722.421C2346.86 704.346 2355.53 687.086 2369.42 673.087L2389.71 658Z" fill="#FFFFFF" fill-rule="evenodd"/><path d="M2157 675 2152.83 686.777C2148.46 695.009 2142.79 702.738 2135.8 709.66 2121.83 723.504 2104.6 732.157 2086.55 735.618L2072 737 2073.14 725.201 2097.83 706.913C2107.33 700.55 2117.17 694.628 2127.3 689.177L2157 675Z" fill="#FFFFFF" fill-rule="evenodd"/><path d="M2150 733 2148.61 747.49C2145.13 765.455 2136.44 782.61 2122.52 796.523 2108.61 810.437 2091.46 819.133 2073.49 822.611L2059 824 2060.39 809.51C2063.87 791.545 2072.56 774.389 2086.48 760.476 2100.39 746.563 2117.54 737.867 2135.51 734.388L2150 733Z" fill="#FFFFFF" fill-rule="evenodd"/><path d="M2240 733 2238.61 747.49C2235.13 765.455 2226.44 782.61 2212.52 796.523 2198.61 810.437 2181.46 819.133 2163.49 822.611L2149 824 2150.39 809.51C2153.87 791.545 2162.56 774.389 2176.48 760.476 2190.39 746.563 2207.54 737.867 2225.51 734.388L2240 733Z" fill="#FFFFFF" fill-rule="evenodd"/><path d="M2330 733 2328.61 747.49C2325.13 765.455 2316.44 782.61 2302.52 796.523 2288.61 810.437 2271.46 819.133 2253.49 822.611L2239 824 2240.39 809.51C2243.87 791.545 2252.56 774.389 2266.48 760.476 2280.39 746.563 2297.54 737.867 2315.51 734.388L2330 733Z" fill="#FFFFFF" fill-rule="evenodd"/><path d="M2404 735 2402.4 766.585 2399.15 787.797 2392.7 796.526C2378.75 810.438 2361.54 819.133 2343.53 822.611L2329 824 2330.39 809.512C2333.88 791.548 2342.6 774.395 2356.55 760.483 2363.53 753.527 2371.32 747.875 2379.61 743.528L2404 735Z" fill="#FFFFFF" fill-rule="evenodd"/><path d="M2060 737 2058.94 748.089C2055.46 766.132 2046.76 783.361 2032.85 797.334 2025.89 804.321 2018.12 809.998 2009.85 814.364L1991 821 2001.54 803.575C2014.34 784.562 2028.9 766.85 2045.01 750.682L2060 737Z" fill="#FFFFFF" fill-rule="evenodd"/><path d="M2047 823 2045.61 837.49C2042.13 855.455 2033.44 872.61 2019.52 886.524 2005.61 900.437 1988.46 909.133 1970.49 912.611L1956 914 1957.39 899.51C1960.87 881.545 1969.56 864.389 1983.48 850.476 1997.39 836.563 2014.54 827.867 2032.51 824.389L2047 823Z" fill="#FFFFFF" fill-rule="evenodd"/><path d="M2137 823 2135.61 837.49C2132.13 855.455 2123.44 872.61 2109.52 886.524 2095.61 900.437 2078.46 909.133 2060.49 912.611L2046 914 2047.39 899.51C2050.87 881.545 2059.56 864.389 2073.48 850.476 2087.39 836.563 2104.54 827.867 2122.51 824.389L2137 823Z" fill="#FFFFFF" fill-rule="evenodd"/><path d="M2227 823 2225.61 837.49C2222.13 855.455 2213.44 872.61 2199.52 886.524 2185.61 900.437 2168.46 909.133 2150.49 912.611L2136 914 2137.39 899.51C2140.87 881.545 2149.56 864.389 2163.48 850.476 2177.39 836.563 2194.54 827.867 2212.51 824.389L2227 823Z" fill="#FFFFFF" fill-rule="evenodd"/><path d="M2317 823 2315.61 837.49C2312.13 855.455 2303.44 872.61 2289.52 886.524 2275.61 900.437 2258.46 909.133 2240.49 912.611L2226 914 2227.39 899.51C2230.87 881.545 2239.56 864.389 2253.48 850.476 2267.39 836.563 2284.54 827.867 2302.51 824.389L2317 823Z" fill="#FFFFFF" fill-rule="evenodd"/><path d="M2391 825 2387.96 836.831C2384.49 847.963 2380.49 858.86 2375.99 869.493L2361.31 899.955 2356.51 903.491C2348.24 907.835 2339.46 910.875 2330.48 912.613L2316 914 2317.39 899.525C2320.86 881.578 2329.56 864.441 2343.47 850.542 2350.42 843.592 2358.18 837.946 2366.45 833.602L2391 825Z" fill="#FFFFFF" fill-rule="evenodd"/><path d="M2034 912 2032.61 926.49C2029.13 944.455 2020.44 961.61 2006.52 975.524 1992.61 989.437 1975.46 998.133 1957.49 1001.61L1943 1003 1944.39 988.51C1947.87 970.545 1956.56 953.389 1970.48 939.476 1984.39 925.563 2001.54 916.867 2019.51 913.389L2034 912Z" fill="#FFFFFF" fill-rule="evenodd"/><path d="M2124 912 2122.61 926.49C2119.13 944.455 2110.44 961.61 2096.52 975.524 2082.61 989.437 2065.46 998.133 2047.49 1001.61L2033 1003 2034.39 988.51C2037.87 970.545 2046.56 953.389 2060.48 939.476 2074.39 925.563 2091.54 916.867 2109.51 913.389L2124 912Z" fill="#FFFFFF" fill-rule="evenodd"/><path d="M2214 912 2212.61 926.49C2209.13 944.455 2200.44 961.61 2186.52 975.524 2172.61 989.437 2155.46 998.133 2137.49 1001.61L2123 1003 2124.39 988.51C2127.87 970.545 2136.56 953.389 2150.48 939.476 2164.39 925.563 2181.54 916.867 2199.51 913.389L2214 912Z" fill="#FFFFFF" fill-rule="evenodd"/><path d="M2304 912 2302.61 926.49C2299.13 944.455 2290.44 961.61 2276.52 975.524 2262.61 989.437 2245.46 998.133 2227.49 1001.61L2213 1003 2214.39 988.51C2217.87 970.545 2226.56 953.389 2240.48 939.476 2254.39 925.563 2271.54 916.867 2289.51 913.389L2304 912Z" fill="#FFFFFF" fill-rule="evenodd"/><path d="M2021 1002 2019.62 1016.56C2016.16 1034.61 2007.52 1051.84 1993.68 1065.82L1974.65 1080 1947.69 1072.99 1944 1048.58 1957.85 1029.6C1971.68 1015.63 1988.73 1006.89 2006.59 1003.4L2021 1002Z" fill="#FFFFFF" fill-rule="evenodd"/><path d="M2111 1002 2109.62 1016.48C2106.15 1034.44 2097.48 1051.59 2083.61 1065.5 2076.68 1072.45 2068.94 1078.1 2060.69 1082.45L2047.83 1086.97 2047.28 1087 2021 1085.67 2021.69 1078.48C2025.15 1060.52 2033.82 1043.37 2047.69 1029.46 2061.55 1015.56 2078.65 1006.86 2096.56 1003.39L2111 1002Z" fill="#FFFFFF" fill-rule="evenodd"/><path d="M2201 1002 2199.61 1016.49C2197.87 1025.47 2194.82 1034.24 2190.46 1042.52L2175.42 1062.88 2153.13 1071.02C2141.97 1074.48 2130.57 1077.42 2118.97 1079.79L2111 1081 2111.24 1078.49C2114.73 1060.53 2123.44 1043.38 2137.37 1029.47 2151.31 1015.56 2168.49 1006.87 2186.49 1003.39L2201 1002Z" fill="#FFFFFF" fill-rule="evenodd"/><path d="M2277 1003 2274.33 1005.45C2256.56 1020.25 2237.36 1033.35 2216.97 1044.53L2216 1045 2227.23 1029.63C2241.3 1015.44 2258.64 1006.57 2276.8 1003.02L2277 1003Z" fill="#FFFFFF" fill-rule="evenodd"/><path d="M2047 373C2219.52 373 2363.46 495.378 2396.75 658.063L2397.01 659.807 2389.68 657.921 2369.28 672.965C2355.32 686.923 2346.59 704.134 2343.11 722.158L2341.71 736.694 2356.25 735.301C2365.26 733.556 2374.07 730.503 2382.37 726.141L2403.04 710.902 2404 730.014 2403.76 734.825 2379.36 743.382C2371.06 747.744 2363.27 753.414 2356.29 760.393 2342.33 774.352 2333.61 791.562 2330.12 809.586L2328.72 824.122 2343.26 822.729C2361.28 819.239 2378.49 810.516 2392.45 796.557L2398.91 787.798 2396.75 801.964 2391 824.297 2366.37 832.936C2358.07 837.298 2350.28 842.969 2343.3 849.948 2329.34 863.906 2320.62 881.117 2317.13 899.14L2315.74 913.677 2330.27 912.284C2339.28 910.539 2348.09 907.485 2356.39 903.123L2361.21 899.572 2360.91 900.188C2355.42 910.305 2349.45 920.127 2343.03 929.623L2342.62 930.175 2330.31 939.249C2323.33 946.228 2317.66 954.02 2313.3 962.321L2310.51 970.275 2299.44 982.46 2276.74 1003.09 2276.54 1003.11C2258.52 1006.6 2241.31 1015.32 2227.35 1029.28L2216.2 1044.4 2185.96 1058.97 2175.49 1062.8 2190.55 1042.37C2194.91 1034.07 2197.97 1025.27 2199.71 1016.25L2201.11 1001.72 2186.57 1003.11C2168.55 1006.6 2151.34 1015.32 2137.38 1029.28 2123.42 1043.24 2114.7 1060.45 2111.21 1078.47L2110.97 1080.99 2083.5 1085.18 2047.55 1087 2060.5 1082.46C2068.8 1078.1 2076.59 1072.42 2083.57 1065.45 2097.53 1051.49 2106.25 1034.28 2109.74 1016.25L2111.13 1001.72 2096.6 1003.11C2078.57 1006.6 2061.36 1015.32 2047.41 1029.28 2033.45 1043.24 2024.73 1060.45 2021.24 1078.47L2020.54 1085.69 2010.5 1085.18C1998.5 1083.97 1986.67 1082.15 1975.05 1079.77L1974.39 1079.61 1993.6 1065.45C2007.56 1051.49 2016.28 1034.28 2019.77 1016.25L2021.16 1001.72 2006.63 1003.11C1988.6 1006.6 1971.39 1015.32 1957.44 1029.28L1943.46 1048.23 1947.18 1072.61 1940.84 1070.98C1795.52 1025.77 1690 890.217 1690 730.014 1690 532.841 1849.83 373 2047 373ZM2328.06 646.946 2302.38 655.954C2294.08 660.316 2286.28 665.986 2279.3 672.965 2265.35 686.924 2256.62 704.134 2253.13 722.158L2251.74 736.695 2266.28 735.301C2284.3 731.812 2301.51 723.088 2315.47 709.129 2329.42 695.171 2338.15 677.961 2341.64 659.937L2342.72 648.609 2333.7 647.231 2328.06 646.946ZM2330.04 732.828 2315.51 734.221C2297.48 737.711 2280.27 746.435 2266.32 760.393 2252.36 774.352 2243.63 791.562 2240.15 809.586L2238.75 824.122 2253.29 822.729C2271.31 819.239 2288.52 810.516 2302.48 796.557 2316.44 782.599 2325.16 765.389 2328.65 747.365L2330.04 732.828ZM2317.05 822.383 2302.52 823.776C2284.5 827.266 2267.29 835.99 2253.33 849.948 2239.37 863.906 2230.65 881.117 2227.16 899.14L2225.76 913.677 2240.3 912.284C2258.32 908.794 2275.53 900.07 2289.49 886.112 2303.45 872.153 2312.17 854.943 2315.66 836.92L2317.05 822.383ZM2304.07 911.684 2289.53 913.077C2271.51 916.567 2254.3 925.291 2240.34 939.249 2226.38 953.207 2217.66 970.418 2214.17 988.441L2212.78 1002.98 2227.31 1001.58C2245.33 998.095 2262.54 989.371 2276.5 975.413 2290.46 961.454 2299.18 944.244 2302.67 926.221L2304.07 911.684ZM2252.77 648.44 2225.25 652.641 2212.51 655.916 2212.4 655.953C2204.1 660.315 2196.31 665.986 2189.33 672.965 2175.37 686.923 2166.65 704.134 2163.16 722.158L2161.77 736.694 2176.3 735.301C2194.33 731.811 2211.54 723.087 2225.49 709.129 2239.45 695.171 2248.18 677.96 2251.67 659.937L2252.77 648.44ZM2240.07 732.828 2225.53 734.221C2207.51 737.711 2190.3 746.435 2176.34 760.393 2162.39 774.352 2153.66 791.562 2150.17 809.586L2148.78 824.122 2163.32 822.729C2181.34 819.239 2198.55 810.516 2212.51 796.557 2226.46 782.599 2235.19 765.389 2238.68 747.365L2240.07 732.828ZM2227.08 822.383 2212.55 823.776C2194.52 827.266 2177.31 835.99 2163.36 849.948 2149.4 863.906 2140.67 881.117 2137.19 899.14L2135.79 913.677 2150.33 912.284C2168.35 908.794 2185.56 900.07 2199.52 886.112 2213.48 872.153 2222.2 854.943 2225.69 836.92L2227.08 822.383ZM2214.09 911.684 2199.56 913.077C2181.54 916.567 2164.33 925.291 2150.37 939.249 2136.41 953.207 2127.69 970.418 2124.2 988.441L2122.8 1002.98 2137.34 1001.58C2155.36 998.095 2172.57 989.371 2186.53 975.413 2200.49 961.454 2209.21 944.244 2212.7 926.221L2214.09 911.684ZM2156.7 674.184 2127.03 688.477C2116.91 693.973 2107.09 699.944 2097.59 706.36L2072.94 724.799 2071.8 736.694 2086.33 735.301C2104.35 731.811 2121.56 723.087 2135.52 709.129 2142.5 702.15 2148.17 694.358 2152.53 686.058L2156.7 674.184ZM2150.1 732.828 2135.56 734.221C2117.54 737.711 2100.33 746.435 2086.37 760.393 2072.41 774.352 2063.69 791.562 2060.2 809.586L2058.81 824.122 2073.34 822.729C2091.37 819.239 2108.58 810.516 2122.53 796.557 2136.49 782.599 2145.22 765.389 2148.7 747.365L2150.1 732.828ZM2137.11 822.383 2122.57 823.776C2104.55 827.266 2087.34 835.99 2073.38 849.948 2059.43 863.906 2050.7 881.117 2047.21 899.14L2045.82 913.677 2060.36 912.284C2078.38 908.794 2095.59 900.07 2109.55 886.112 2123.5 872.153 2132.23 854.943 2135.72 836.92L2137.11 822.383ZM2124.12 911.684 2109.59 913.077C2091.56 916.567 2074.35 925.291 2060.4 939.249 2046.44 953.207 2037.71 970.418 2034.22 988.441L2032.83 1002.98 2047.37 1001.58C2065.39 998.095 2082.6 989.371 2096.56 975.413 2110.52 961.454 2119.24 944.244 2122.73 926.221L2124.12 911.684ZM2059.79 736.288 2044.76 749.955C2028.61 766.106 2014 783.799 2001.16 802.792L1990.59 820.198 2009.49 813.569C2017.79 809.207 2025.58 803.537 2032.56 796.557 2046.52 782.599 2055.24 765.389 2058.73 747.365L2059.79 736.288ZM2047.14 822.383 2032.6 823.776C2014.58 827.266 1997.37 835.99 1983.41 849.948 1969.45 863.906 1960.73 881.117 1957.24 899.14L1955.85 913.677 1970.38 912.284C1988.41 908.794 2005.62 900.07 2019.57 886.112 2033.53 872.153 2042.26 854.943 2045.74 836.92L2047.14 822.383ZM2034.15 911.684 2019.61 913.077C2001.59 916.567 1984.38 925.291 1970.42 939.249 1956.47 953.207 1947.74 970.418 1944.25 988.441L1942.86 1002.98 1957.4 1001.58C1975.42 998.095 1992.63 989.371 2006.59 975.413 2020.54 961.454 2029.27 944.244 2032.76 926.221L2034.15 911.684Z" fill="#47D45A" fill-rule="evenodd"/><path d="M2397 660 2403.36 661.628 2428 670.606 2422.51 686.202C2418.13 694.487 2412.45 702.264 2405.45 709.23L2403.04 711 2402.16 693.642 2397 660Z" fill="#47D45A" fill-rule="evenodd"/><path d="M2453.08 682 2467.39 688.929C2477.42 694.408 2487.16 700.361 2496.58 706.757L2497 707.073 2495.21 709.518C2481.36 723.434 2464.29 732.132 2446.42 735.611L2432 737 2433.38 722.507C2435.11 713.523 2438.14 704.741 2442.47 696.466L2453.08 682Z" fill="#47D45A" fill-rule="evenodd"/><path d="M2523.04 726 2524.6 727.18 2534 735.835 2522 737 2523.04 726Z" fill="#47D45A" fill-rule="evenodd"/><path d="M2420 733 2418.61 747.545C2416.88 756.561 2413.84 765.375 2409.5 773.68L2399 788 2402.23 766.706 2403.82 734.998 2405.54 734.394 2420 733Z" fill="#47D45A" fill-rule="evenodd"/><path d="M2510 733 2508.61 747.49C2505.13 765.455 2496.44 782.61 2482.52 796.523 2468.61 810.437 2451.46 819.133 2433.49 822.611L2419 824 2420.39 809.51C2423.87 791.545 2432.56 774.389 2446.48 760.476 2460.39 746.563 2477.54 737.867 2495.51 734.388L2510 733Z" fill="#47D45A" fill-rule="evenodd"/><path d="M2549.83 751 2572.33 775.736 2580 785.982 2572.06 796.746C2558.25 810.547 2541.22 819.172 2523.38 822.622L2509 824 2510.38 809.627C2513.83 791.807 2522.46 774.791 2536.27 760.99L2549.83 751Z" fill="#47D45A" fill-rule="evenodd"/><path d="M2600.01 814 2606 823.363 2599 824 2600.01 814Z" fill="#47D45A" fill-rule="evenodd"/><path d="M2407 823 2405.6 837.501C2402.1 855.48 2393.34 872.649 2379.33 886.573L2361 900 2375.79 869.482C2380.33 858.831 2384.36 847.914 2387.85 836.762L2390.91 824.909 2392.41 824.39 2407 823Z" fill="#47D45A" fill-rule="evenodd"/><path d="M2497 823 2495.61 837.49C2492.13 855.455 2483.44 872.61 2469.52 886.524 2455.61 900.437 2438.46 909.133 2420.49 912.611L2406 914 2407.39 899.51C2410.87 881.545 2419.56 864.389 2433.48 850.476 2447.39 836.563 2464.54 827.867 2482.51 824.389L2497 823Z" fill="#47D45A" fill-rule="evenodd"/><path d="M2587 823 2585.61 837.49C2582.13 855.455 2573.44 872.61 2559.52 886.524 2545.61 900.437 2528.46 909.133 2510.49 912.611L2496 914 2497.39 899.51C2500.87 881.545 2509.56 864.389 2523.48 850.476 2537.39 836.563 2554.54 827.867 2572.51 824.389L2587 823Z" fill="#47D45A" fill-rule="evenodd"/><path d="M2618.33 847 2626.52 863.927 2638 895.173 2626.69 903.482C2618.38 907.829 2609.57 910.872 2600.55 912.611L2586 914 2587.39 899.512C2590.89 881.549 2599.62 864.396 2613.58 850.485L2618.33 847Z" fill="#47D45A" fill-rule="evenodd"/><path d="M2394 912 2392.61 926.49C2389.13 944.455 2380.44 961.61 2366.52 975.524 2352.61 989.437 2335.46 998.133 2317.49 1001.61L2303 1003 2304.39 988.51 2310.74 970.402 2322.67 957.277 2342.74 930.432 2353.47 922.519C2361.75 918.171 2370.53 915.128 2379.51 913.389L2394 912Z" fill="#47D45A" fill-rule="evenodd"/><path d="M2484 912 2482.61 926.49C2479.13 944.455 2470.44 961.61 2456.52 975.524 2442.61 989.437 2425.46 998.133 2407.49 1001.61L2393 1003 2394.39 988.51C2397.87 970.545 2406.56 953.389 2420.48 939.476 2434.39 925.563 2451.54 916.867 2469.51 913.389L2484 912Z" fill="#47D45A" fill-rule="evenodd"/><path d="M2574 912 2572.61 926.49C2569.13 944.455 2560.44 961.61 2546.52 975.524 2532.61 989.437 2515.46 998.133 2497.49 1001.61L2483 1003 2484.39 988.51C2487.87 970.545 2496.56 953.389 2510.48 939.476 2524.39 925.563 2541.54 916.867 2559.51 913.389L2574 912Z" fill="#47D45A" fill-rule="evenodd"/><path d="M2643.25 916 2647.13 931.024 2651 956.227 2636.6 975.645C2622.67 989.497 2605.5 998.154 2587.51 1001.62L2573 1003 2574.39 988.574C2577.87 970.688 2586.58 953.608 2600.51 939.756 2607.48 932.83 2615.25 927.202 2623.54 922.874L2643.25 916Z" fill="#47D45A" fill-rule="evenodd"/><path d="M2291 1002 2289.61 1016.49C2286.13 1034.46 2277.44 1051.61 2263.52 1065.52 2249.61 1079.44 2232.46 1088.13 2214.49 1091.61L2200 1093 2201.39 1078.51C2203.13 1069.53 2206.17 1060.75 2210.52 1052.47L2216.36 1044.55 2217.32 1044.09C2237.49 1033.13 2256.49 1020.28 2274.06 1005.77L2276.71 1003.37 2291 1002Z" fill="#47D45A" fill-rule="evenodd"/><path d="M2381 1002 2379.61 1016.49C2376.13 1034.46 2367.44 1051.61 2353.52 1065.52 2339.61 1079.44 2322.46 1088.13 2304.49 1091.61L2290 1093 2291.39 1078.51C2294.87 1060.54 2303.56 1043.39 2317.48 1029.48 2331.39 1015.56 2348.54 1006.87 2366.51 1003.39L2381 1002Z" fill="#47D45A" fill-rule="evenodd"/><path d="M2471 1002 2469.61 1016.49C2466.13 1034.46 2457.44 1051.61 2443.52 1065.52 2429.61 1079.44 2412.46 1088.13 2394.49 1091.61L2380 1093 2381.39 1078.51C2384.87 1060.54 2393.56 1043.39 2407.48 1029.48 2421.39 1015.56 2438.54 1006.87 2456.51 1003.39L2471 1002Z" fill="#47D45A" fill-rule="evenodd"/><path d="M2561 1002 2559.61 1016.49C2556.13 1034.46 2547.44 1051.61 2533.52 1065.52 2519.61 1079.44 2502.46 1088.13 2484.49 1091.61L2470 1093 2471.39 1078.51C2474.87 1060.54 2483.56 1043.39 2497.48 1029.48 2511.39 1015.56 2528.54 1006.87 2546.51 1003.39L2561 1002Z" fill="#47D45A" fill-rule="evenodd"/><path d="M2651 1002 2649.61 1016.49C2646.13 1034.46 2637.44 1051.61 2623.52 1065.52 2609.61 1079.44 2592.46 1088.13 2574.49 1091.61L2560 1093 2561.39 1078.51C2564.87 1060.54 2573.56 1043.39 2587.48 1029.48 2601.39 1015.56 2618.54 1006.87 2636.51 1003.39L2651 1002Z" fill="#47D45A" fill-rule="evenodd"/><path d="M2176 1063 2174.04 1065.62C2160.02 1079.49 2142.72 1088.15 2124.61 1091.62L2110 1093 2111.16 1081.06 2119.18 1079.85C2130.86 1077.49 2142.33 1074.57 2153.56 1071.12L2176 1063Z" fill="#47D45A" fill-rule="evenodd"/><path d="M1947 1073 1974 1080.16 1970.16 1083.08 1951.05 1090 1947.26 1074.79 1947 1073Z" fill="#47D45A" fill-rule="evenodd"/><path d="M2020.71 1086 2047.45 1087.28 2048 1087.25 2034.69 1091.67 2020 1093 2020.71 1086Z" fill="#47D45A" fill-rule="evenodd"/><path d="M2098 1092 2096.61 1106.49C2093.13 1124.46 2084.44 1141.61 2070.52 1155.52 2056.61 1169.44 2039.46 1178.13 2021.49 1181.61L2007 1183 2008.39 1168.51C2011.87 1150.54 2020.56 1133.39 2034.48 1119.48 2048.39 1105.56 2065.54 1096.87 2083.51 1093.39L2098 1092Z" fill="#47D45A" fill-rule="evenodd"/><path d="M2188 1092 2186.61 1106.49C2183.13 1124.46 2174.44 1141.61 2160.52 1155.52 2146.61 1169.44 2129.46 1178.13 2111.49 1181.61L2097 1183 2098.39 1168.51C2101.87 1150.54 2110.56 1133.39 2124.48 1119.48 2138.39 1105.56 2155.54 1096.87 2173.51 1093.39L2188 1092Z" fill="#47D45A" fill-rule="evenodd"/><path d="M2278 1092 2276.61 1106.49C2273.13 1124.46 2264.44 1141.61 2250.52 1155.52 2236.61 1169.44 2219.46 1178.13 2201.49 1181.61L2187 1183 2188.39 1168.51C2191.87 1150.54 2200.56 1133.39 2214.48 1119.48 2228.39 1105.56 2245.54 1096.87 2263.51 1093.39L2278 1092Z" fill="#47D45A" fill-rule="evenodd"/><path d="M2368 1092 2366.61 1106.49C2363.13 1124.46 2354.44 1141.61 2340.52 1155.52 2326.61 1169.44 2309.46 1178.13 2291.49 1181.61L2277 1183 2278.39 1168.51C2281.87 1150.54 2290.56 1133.39 2304.48 1119.48 2318.39 1105.56 2335.54 1096.87 2353.51 1093.39L2368 1092Z" fill="#47D45A" fill-rule="evenodd"/><path d="M2458 1092 2456.61 1106.49C2453.13 1124.46 2444.44 1141.61 2430.52 1155.52 2416.61 1169.44 2399.46 1178.13 2381.49 1181.61L2367 1183 2368.39 1168.51C2371.87 1150.54 2380.56 1133.39 2394.48 1119.48 2408.39 1105.56 2425.54 1096.87 2443.51 1093.39L2458 1092Z" fill="#47D45A" fill-rule="evenodd"/><path d="M2548 1092 2546.61 1106.49C2543.13 1124.46 2534.44 1141.61 2520.52 1155.52 2506.61 1169.44 2489.46 1178.13 2471.49 1181.61L2457 1183 2458.39 1168.51C2461.87 1150.54 2470.56 1133.39 2484.48 1119.48 2498.39 1105.56 2515.54 1096.87 2533.51 1093.39L2548 1092Z" fill="#47D45A" fill-rule="evenodd"/><path d="M2638 1092 2636.61 1106.49C2633.13 1124.46 2624.44 1141.61 2610.52 1155.52 2596.61 1169.44 2579.46 1178.13 2561.49 1181.61L2547 1183 2548.39 1168.51C2551.87 1150.54 2560.56 1133.39 2574.48 1119.48 2588.39 1105.56 2605.54 1096.87 2623.51 1093.39L2638 1092Z" fill="#47D45A" fill-rule="evenodd"/><path d="M2008 1092 2006.62 1106.35C2003.16 1124.13 1994.52 1141.12 1980.69 1154.89L1976.46 1158 1968.45 1141.44 1957 1110.29 1967.72 1102.41C1975.94 1098.11 1984.67 1095.1 1993.6 1093.37L2008 1092Z" fill="#47D45A" fill-rule="evenodd"/><path d="M1995 1181 1994.13 1191 1989 1181.64 1995 1181Z" fill="#47D45A" fill-rule="evenodd"/><path d="M2175 1181 2173.61 1195.49C2170.13 1213.46 2161.44 1230.61 2147.52 1244.52 2133.61 1258.44 2116.46 1267.13 2098.49 1270.61L2084 1272 2085.39 1257.51C2088.87 1239.54 2097.56 1222.39 2111.48 1208.48 2125.39 1194.56 2142.54 1185.87 2160.51 1182.39L2175 1181Z" fill="#47D45A" fill-rule="evenodd"/><path d="M2265 1181 2263.61 1195.49C2260.13 1213.46 2251.44 1230.61 2237.52 1244.52 2223.61 1258.44 2206.46 1267.13 2188.49 1270.61L2174 1272 2175.39 1257.51C2178.87 1239.54 2187.56 1222.39 2201.48 1208.48 2215.39 1194.56 2232.54 1185.87 2250.51 1182.39L2265 1181Z" fill="#47D45A" fill-rule="evenodd"/><path d="M2355 1181 2353.61 1195.49C2350.13 1213.46 2341.44 1230.61 2327.52 1244.52 2313.61 1258.44 2296.46 1267.13 2278.49 1270.61L2264 1272 2265.39 1257.51C2268.87 1239.54 2277.56 1222.39 2291.48 1208.48 2305.39 1194.56 2322.54 1185.87 2340.51 1182.39L2355 1181Z" fill="#47D45A" fill-rule="evenodd"/><path d="M2445 1181 2443.61 1195.49C2440.13 1213.46 2431.44 1230.61 2417.52 1244.52 2403.61 1258.44 2386.46 1267.13 2368.49 1270.61L2354 1272 2355.39 1257.51C2358.87 1239.54 2367.56 1222.39 2381.48 1208.48 2395.39 1194.56 2412.54 1185.87 2430.51 1182.39L2445 1181Z" fill="#47D45A" fill-rule="evenodd"/><path d="M2535 1181 2533.61 1195.49C2530.13 1213.46 2521.44 1230.61 2507.52 1244.52 2493.61 1258.44 2476.46 1267.13 2458.49 1270.61L2444 1272 2445.39 1257.51C2448.87 1239.54 2457.56 1222.39 2471.48 1208.48 2485.39 1194.56 2502.54 1185.87 2520.51 1182.39L2535 1181Z" fill="#47D45A" fill-rule="evenodd"/><path d="M2085 1181 2083.62 1195.41C2080.15 1213.28 2071.49 1230.35 2057.63 1244.19L2044.31 1254 2022.01 1229.51 2014 1218.8 2021.73 1208.33C2035.59 1194.49 2052.68 1185.84 2070.57 1182.38L2085 1181Z" fill="#47D45A" fill-rule="evenodd"/><path d="M2604 1185 2593.2 1202.61C2580.38 1221.41 2565.79 1238.92 2549.65 1254.91L2534 1269 2535.13 1257.36C2538.61 1239.53 2547.33 1222.49 2561.27 1208.68 2568.24 1201.77 2576.03 1196.16 2584.32 1191.84L2604 1185Z" fill="#47D45A" fill-rule="evenodd"/><path d="M2072 1268 2070.95 1279 2069.89 1278.2 2060 1269.16 2072 1268Z" fill="#47D45A" fill-rule="evenodd"/><path d="M2162 1268 2160.61 1282.52C2158.88 1291.53 2155.84 1300.33 2151.51 1308.62L2140.96 1323 2127.09 1316.28C2117.04 1310.79 2107.27 1304.83 2097.83 1298.42L2097 1297.79 2098.65 1295.54C2112.52 1281.6 2129.63 1272.88 2147.55 1269.39L2162 1268Z" fill="#47D45A" fill-rule="evenodd"/><path d="M2252 1268 2250.61 1282.58C2247.13 1300.67 2238.42 1317.93 2224.5 1331.93L2204.17 1347 2191.05 1343.61 2166 1334.39 2171.44 1318.8C2175.79 1310.47 2181.45 1302.66 2188.41 1295.65 2202.34 1281.65 2219.51 1272.9 2237.5 1269.4L2252 1268Z" fill="#47D45A" fill-rule="evenodd"/><path d="M2342 1268 2340.61 1282.57C2337.12 1300.63 2328.39 1317.87 2314.43 1331.86 2307.45 1338.85 2299.66 1344.53 2291.36 1348.9L2265.47 1358 2260.59 1357.75 2251 1356.29 2252.09 1344.91C2255.58 1326.85 2264.3 1309.61 2278.26 1295.62 2292.22 1281.63 2309.44 1272.89 2327.46 1269.4L2342 1268Z" fill="#47D45A" fill-rule="evenodd"/><path d="M2432 1268 2430.61 1282.63C2427.12 1300.76 2418.4 1318.08 2404.44 1332.12 2397.46 1339.15 2389.67 1344.85 2381.38 1349.24L2378.57 1350.23 2369.1 1352.68 2341 1357 2342.12 1345.23C2345.61 1327.1 2354.33 1309.78 2368.29 1295.74 2382.24 1281.69 2399.45 1272.91 2417.47 1269.4L2432 1268Z" fill="#47D45A" fill-rule="evenodd"/><path d="M2522 1268 2520.81 1280.47 2496.78 1298.46C2487.29 1304.88 2477.48 1310.85 2467.37 1316.35L2437 1331 2441.32 1318.66C2445.68 1310.36 2451.35 1302.56 2458.32 1295.58 2472.27 1281.61 2489.46 1272.89 2507.47 1269.39L2522 1268Z" fill="#47D45A" fill-rule="evenodd"/><text fill="#404040" font-family="Aharoni,Aharoni_MSFontService,sans-serif" font-weight="700" font-size="367" transform="matrix(1 0 0 1 142.456 1967)">Canopy </text><text fill="#404040" font-family="Aharoni,Aharoni_MSFontService,sans-serif" font-weight="700" font-size="367" transform="matrix(1 0 0 1 1580.48 1967)">Shade</text><text fill="#404040" font-family="Aharoni,Aharoni_MSFontService,sans-serif" font-weight="700" font-size="367" transform="matrix(1 0 0 1 2771.57 1967)">Mapper</text></g></svg>